<ttFont>
    <TTGlyph name="A" xMin="20" yMin="-8" xMax="685" yMax="766">
      <contour>
        <pt x="628" y="-1" on="1"/>
        <pt x="621" y="6" on="0"/>
        <pt x="615" y="13" on="0"/>
        <pt x="614" y="18" on="1"/>
        <pt x="598" y="25" on="0"/>
        <pt x="587" y="53" on="0"/>
        <pt x="576" y="64" on="1"/>
        <pt x="576" y="77" on="1"/>
        <pt x="571" y="82" on="0"/>
        <pt x="562" y="92" on="0"/>
        <pt x="557" y="96" on="1"/>
        <pt x="561" y="108" on="0"/>
        <pt x="549" y="127" on="0"/>
        <pt x="547" y="138" on="1"/>
        <pt x="542" y="142" on="0"/>
        <pt x="535" y="151" on="0"/>
        <pt x="533" y="157" on="1"/>
        <pt x="526" y="158" on="0"/>
        <pt x="508" y="157" on="0"/>
        <pt x="490" y="155" on="0"/>
        <pt x="473" y="156" on="0"/>
        <pt x="468" y="161" on="1"/>
        <pt x="460" y="162" on="0"/>
        <pt x="443" y="164" on="0"/>
        <pt x="435" y="166" on="1"/>
        <pt x="413" y="161" on="0"/>
        <pt x="375" y="165" on="0"/>
        <pt x="361" y="159" on="1"/>
        <pt x="357" y="161" on="0"/>
        <pt x="347" y="162" on="0"/>
        <pt x="344" y="166" on="1"/>
        <pt x="334" y="160" on="0"/>
        <pt x="323" y="166" on="0"/>
        <pt x="313" y="166" on="1"/>
        <pt x="309" y="166" on="0"/>
        <pt x="301" y="163" on="0"/>
        <pt x="297" y="161" on="1"/>
        <pt x="289" y="164" on="0"/>
        <pt x="272" y="168" on="0"/>
        <pt x="263" y="168" on="1"/>
        <pt x="258" y="168" on="0"/>
        <pt x="251" y="164" on="0"/>
        <pt x="247" y="164" on="1"/>
        <pt x="242" y="164" on="0"/>
        <pt x="233" y="167" on="0"/>
        <pt x="228" y="164" on="1"/>
        <pt x="217" y="166" on="0"/>
        <pt x="207" y="159" on="0"/>
        <pt x="202" y="164" on="1"/>
        <pt x="195" y="159" on="0"/>
        <pt x="179" y="157" on="0"/>
        <pt x="173" y="153" on="1"/>
        <pt x="169" y="144" on="0"/>
        <pt x="167" y="144" on="0"/>
        <pt x="166" y="142" on="1"/>
        <pt x="161" y="137" on="0"/>
        <pt x="160" y="124" on="0"/>
        <pt x="152" y="122" on="1"/>
        <pt x="150" y="111" on="0"/>
        <pt x="140" y="95" on="0"/>
        <pt x="135" y="86" on="1"/>
        <pt x="136" y="82" on="0"/>
        <pt x="137" y="76" on="0"/>
        <pt x="137" y="72" on="1"/>
        <pt x="132" y="62" on="0"/>
        <pt x="136" y="59" on="0"/>
        <pt x="135" y="57" on="1"/>
        <pt x="128" y="52" on="0"/>
        <pt x="128" y="45" on="0"/>
        <pt x="123" y="47" on="1"/>
        <pt x="123" y="27" on="0"/>
        <pt x="101" y="10" on="0"/>
        <pt x="90" y="-3" on="1"/>
        <pt x="82" y="-3" on="0"/>
        <pt x="69" y="-6" on="0"/>
        <pt x="61" y="-8" on="1"/>
        <pt x="55" y="-4" on="0"/>
        <pt x="40" y="0" on="0"/>
        <pt x="35" y="5" on="1"/>
        <pt x="29" y="20" on="0"/>
        <pt x="22" y="26" on="0"/>
        <pt x="20" y="34" on="1"/>
        <pt x="25" y="47" on="0"/>
        <pt x="39" y="64" on="0"/>
        <pt x="40" y="79" on="1"/>
        <pt x="42" y="83" on="0"/>
        <pt x="49" y="89" on="0"/>
        <pt x="51" y="94" on="1"/>
        <pt x="53" y="98" on="0"/>
        <pt x="54" y="106" on="0"/>
        <pt x="56" y="109" on="1"/>
        <pt x="63" y="117" on="0"/>
        <pt x="65" y="125" on="0"/>
        <pt x="71" y="127" on="1"/>
        <pt x="69" y="138" on="0"/>
        <pt x="83" y="145" on="0"/>
        <pt x="83" y="153" on="1"/>
        <pt x="83" y="163" on="0"/>
        <pt x="75" y="180" on="0"/>
        <pt x="75" y="190" on="1"/>
        <pt x="75" y="197" on="0"/>
        <pt x="82" y="204" on="0"/>
        <pt x="91" y="210" on="0"/>
        <pt x="99" y="217" on="0"/>
        <pt x="101" y="222" on="1"/>
        <pt x="111" y="222" on="1"/>
        <pt x="119" y="232" on="0"/>
        <pt x="129" y="256" on="0"/>
        <pt x="135" y="267" on="1"/>
        <pt x="137" y="271" on="0"/>
        <pt x="135" y="282" on="0"/>
        <pt x="137" y="285" on="1"/>
        <pt x="144" y="293" on="0"/>
        <pt x="142" y="300" on="0"/>
        <pt x="149" y="302" on="1"/>
        <pt x="148" y="311" on="0"/>
        <pt x="153" y="317" on="0"/>
        <pt x="154" y="324" on="1"/>
        <pt x="157" y="328" on="0"/>
        <pt x="164" y="333" on="0"/>
        <pt x="168" y="335" on="1"/>
        <pt x="168" y="348" on="1"/>
        <pt x="172" y="350" on="0"/>
        <pt x="176" y="357" on="0"/>
        <pt x="180" y="358" on="1"/>
        <pt x="181" y="362" on="0"/>
        <pt x="180" y="367" on="0"/>
        <pt x="185" y="367" on="1"/>
        <pt x="187" y="371" on="0"/>
        <pt x="185" y="378" on="0"/>
        <pt x="187" y="382" on="1"/>
        <pt x="189" y="387" on="0"/>
        <pt x="197" y="394" on="0"/>
        <pt x="197" y="399" on="1"/>
        <pt x="195" y="400" on="0"/>
        <pt x="196" y="404" on="0"/>
        <pt x="199" y="410" on="0"/>
        <pt x="200" y="416" on="0"/>
        <pt x="199" y="421" on="1"/>
        <pt x="203" y="424" on="0"/>
        <pt x="206" y="431" on="0"/>
        <pt x="209" y="434" on="1"/>
        <pt x="207" y="444" on="0"/>
        <pt x="211" y="458" on="0"/>
        <pt x="213" y="467" on="1"/>
        <pt x="220" y="470" on="0"/>
        <pt x="223" y="475" on="1"/>
        <pt x="222" y="482" on="0"/>
        <pt x="226" y="495" on="0"/>
        <pt x="231" y="507" on="0"/>
        <pt x="233" y="518" on="0"/>
        <pt x="230" y="525" on="1"/>
        <pt x="233" y="533" on="0"/>
        <pt x="244" y="540" on="0"/>
        <pt x="242" y="551" on="1"/>
        <pt x="249" y="557" on="0"/>
        <pt x="264" y="576" on="0"/>
        <pt x="261" y="586" on="1"/>
        <pt x="269" y="597" on="0"/>
        <pt x="277" y="622" on="0"/>
        <pt x="275" y="636" on="1"/>
        <pt x="280" y="646" on="0"/>
        <pt x="291" y="672" on="0"/>
        <pt x="290" y="683" on="1"/>
        <pt x="296" y="685" on="0"/>
        <pt x="297" y="696" on="0"/>
        <pt x="299" y="701" on="1"/>
        <pt x="301" y="703" on="0"/>
        <pt x="306" y="708" on="0"/>
        <pt x="306" y="712" on="1"/>
        <pt x="312" y="717" on="0"/>
        <pt x="317" y="730" on="0"/>
        <pt x="321" y="735" on="1"/>
        <pt x="324" y="741" on="0"/>
        <pt x="332" y="751" on="0"/>
        <pt x="335" y="757" on="1"/>
        <pt x="349" y="757" on="1"/>
        <pt x="351" y="762" on="0"/>
        <pt x="360" y="765" on="0"/>
        <pt x="371" y="765" on="0"/>
        <pt x="383" y="764" on="0"/>
        <pt x="387" y="766" on="1"/>
        <pt x="390" y="762" on="0"/>
        <pt x="397" y="758" on="0"/>
        <pt x="403" y="754" on="0"/>
        <pt x="407" y="748" on="0"/>
        <pt x="406" y="742" on="1"/>
        <pt x="410" y="741" on="0"/>
        <pt x="414" y="737" on="0"/>
        <pt x="418" y="737" on="1"/>
        <pt x="416" y="732" on="0"/>
        <pt x="423" y="725" on="0"/>
        <pt x="423" y="720" on="1"/>
        <pt x="423" y="718" on="0"/>
        <pt x="418" y="712" on="0"/>
        <pt x="418" y="707" on="1"/>
        <pt x="418" y="699" on="0"/>
        <pt x="424" y="687" on="0"/>
        <pt x="428" y="681" on="1"/>
        <pt x="427" y="673" on="0"/>
        <pt x="423" y="668" on="0"/>
        <pt x="428" y="660" on="1"/>
        <pt x="427" y="653" on="0"/>
        <pt x="429" y="651" on="0"/>
        <pt x="431" y="649" on="0"/>
        <pt x="432" y="644" on="0"/>
        <pt x="432" y="638" on="1"/>
        <pt x="439" y="628" on="0"/>
        <pt x="438" y="619" on="0"/>
        <pt x="445" y="618" on="1"/>
        <pt x="445" y="608" on="0"/>
        <pt x="454" y="594" on="0"/>
        <pt x="461" y="588" on="1"/>
        <pt x="461" y="580" on="0"/>
        <pt x="467" y="570" on="0"/>
        <pt x="466" y="562" on="1"/>
        <pt x="468" y="554" on="0"/>
        <pt x="476" y="549" on="1"/>
        <pt x="474" y="542" on="0"/>
        <pt x="477" y="528" on="0"/>
        <pt x="483" y="515" on="0"/>
        <pt x="490" y="501" on="0"/>
        <pt x="492" y="495" on="1"/>
        <pt x="498" y="470" on="0"/>
        <pt x="512" y="433" on="0"/>
        <pt x="528" y="413" on="1"/>
        <pt x="527" y="411" on="0"/>
        <pt x="529" y="401" on="0"/>
        <pt x="526" y="402" on="1"/>
        <pt x="530" y="397" on="0"/>
        <pt x="544" y="374" on="0"/>
        <pt x="542" y="367" on="1"/>
        <pt x="549" y="355" on="0"/>
        <pt x="550" y="338" on="0"/>
        <pt x="552" y="330" on="1"/>
        <pt x="560" y="322" on="0"/>
        <pt x="566" y="300" on="0"/>
        <pt x="578" y="296" on="1"/>
        <pt x="576" y="282" on="0"/>
        <pt x="593" y="253" on="0"/>
        <pt x="595" y="239" on="1"/>
        <pt x="603" y="231" on="0"/>
        <pt x="612" y="210" on="0"/>
        <pt x="619" y="200" on="1"/>
        <pt x="618" y="195" on="0"/>
        <pt x="618" y="180" on="0"/>
        <pt x="626" y="181" on="1"/>
        <pt x="625" y="175" on="0"/>
        <pt x="629" y="167" on="0"/>
        <pt x="634" y="161" on="0"/>
        <pt x="639" y="155" on="0"/>
        <pt x="640" y="151" on="1"/>
        <pt x="648" y="143" on="0"/>
        <pt x="652" y="140" on="1"/>
        <pt x="652" y="122" on="1"/>
        <pt x="657" y="117" on="0"/>
        <pt x="668" y="105" on="0"/>
        <pt x="676" y="103" on="1"/>
        <pt x="671" y="87" on="0"/>
        <pt x="685" y="67" on="0"/>
        <pt x="685" y="59" on="1"/>
        <pt x="685" y="55" on="0"/>
        <pt x="683" y="50" on="0"/>
        <pt x="683" y="47" on="1"/>
        <pt x="683" y="43" on="0"/>
        <pt x="685" y="38" on="0"/>
        <pt x="685" y="35" on="1"/>
        <pt x="685" y="24" on="0"/>
        <pt x="673" y="10" on="0"/>
        <pt x="656" y="2" on="0"/>
        <pt x="636" y="-1" on="0"/>
      </contour>
      <contour>
        <pt x="430" y="397" on="1"/>
        <pt x="430" y="411" on="0"/>
        <pt x="417" y="434" on="0"/>
        <pt x="418" y="447" on="1"/>
        <pt x="413" y="448" on="0"/>
        <pt x="413" y="457" on="0"/>
        <pt x="409" y="458" on="1"/>
        <pt x="413" y="465" on="0"/>
        <pt x="402" y="482" on="0"/>
        <pt x="404" y="493" on="1"/>
        <pt x="401" y="495" on="0"/>
        <pt x="397" y="503" on="0"/>
        <pt x="395" y="506" on="1"/>
        <pt x="392" y="526" on="0"/>
        <pt x="369" y="557" on="0"/>
        <pt x="364" y="575" on="1"/>
        <pt x="360" y="576" on="0"/>
        <pt x="355" y="580" on="0"/>
        <pt x="352" y="582" on="1"/>
        <pt x="350" y="578" on="0"/>
        <pt x="344" y="577" on="0"/>
        <pt x="342" y="575" on="1"/>
        <pt x="337" y="570" on="0"/>
        <pt x="338" y="554" on="0"/>
        <pt x="330" y="547" on="1"/>
        <pt x="330" y="544" on="0"/>
        <pt x="330" y="536" on="0"/>
        <pt x="333" y="534" on="1"/>
        <pt x="325" y="532" on="0"/>
        <pt x="325" y="522" on="0"/>
        <pt x="323" y="517" on="1"/>
        <pt x="317" y="505" on="0"/>
        <pt x="319" y="496" on="0"/>
        <pt x="318" y="491" on="1"/>
        <pt x="309" y="475" on="1"/>
        <pt x="305" y="473" on="0"/>
        <pt x="301" y="466" on="0"/>
        <pt x="299" y="462" on="1"/>
        <pt x="294" y="454" on="0"/>
        <pt x="288" y="443" on="0"/>
        <pt x="290" y="432" on="1"/>
        <pt x="285" y="422" on="0"/>
        <pt x="281" y="418" on="0"/>
        <pt x="280" y="415" on="1"/>
        <pt x="279" y="411" on="0"/>
        <pt x="280" y="403" on="0"/>
        <pt x="280" y="400" on="1"/>
        <pt x="272" y="390" on="0"/>
        <pt x="266" y="366" on="0"/>
        <pt x="266" y="354" on="1"/>
        <pt x="263" y="349" on="0"/>
        <pt x="260" y="344" on="0"/>
        <pt x="259" y="341" on="0"/>
        <pt x="258" y="337" on="0"/>
        <pt x="256" y="332" on="1"/>
        <pt x="247" y="323" on="0"/>
        <pt x="230" y="293" on="0"/>
        <pt x="230" y="285" on="1"/>
        <pt x="227" y="284" on="0"/>
        <pt x="223" y="280" on="0"/>
        <pt x="221" y="278" on="1"/>
        <pt x="222" y="269" on="0"/>
        <pt x="217" y="256" on="0"/>
        <pt x="216" y="248" on="1"/>
        <pt x="221" y="245" on="0"/>
        <pt x="235" y="243" on="0"/>
        <pt x="240" y="248" on="1"/>
        <pt x="241" y="246" on="0"/>
        <pt x="246" y="245" on="0"/>
        <pt x="252" y="245" on="0"/>
        <pt x="257" y="244" on="0"/>
        <pt x="256" y="241" on="1"/>
        <pt x="276" y="242" on="0"/>
        <pt x="318" y="244" on="0"/>
        <pt x="337" y="237" on="1"/>
        <pt x="356" y="240" on="0"/>
        <pt x="397" y="242" on="0"/>
        <pt x="416" y="237" on="1"/>
        <pt x="432" y="243" on="0"/>
        <pt x="464" y="241" on="0"/>
        <pt x="480" y="244" on="1"/>
        <pt x="478" y="249" on="0"/>
        <pt x="490" y="251" on="0"/>
        <pt x="490" y="261" on="1"/>
        <pt x="490" y="269" on="0"/>
        <pt x="479" y="285" on="0"/>
        <pt x="476" y="293" on="1"/>
        <pt x="474" y="298" on="0"/>
        <pt x="473" y="308" on="0"/>
        <pt x="471" y="313" on="1"/>
        <pt x="469" y="316" on="0"/>
        <pt x="463" y="320" on="0"/>
        <pt x="461" y="324" on="1"/>
        <pt x="454" y="343" on="0"/>
        <pt x="441" y="380" on="0"/>
      </contour>
    </TTGlyph>
    <TTGlyph name="AE" xMin="15" yMin="-39" xMax="979" yMax="731">
      <contour>
        <pt x="960" y="16" on="1"/>
        <pt x="956" y="15" on="0"/>
        <pt x="953" y="8" on="0"/>
        <pt x="951" y="5" on="1"/>
        <pt x="946" y="6" on="0"/>
        <pt x="936" y="11" on="0"/>
        <pt x="931" y="12" on="1"/>
        <pt x="923" y="7" on="0"/>
        <pt x="899" y="1" on="0"/>
        <pt x="889" y="1" on="1"/>
        <pt x="885" y="1" on="0"/>
        <pt x="879" y="3" on="0"/>
        <pt x="875" y="3" on="1"/>
        <pt x="863" y="3" on="0"/>
        <pt x="837" y="-5" on="0"/>
        <pt x="825" y="3" on="1"/>
        <pt x="821" y="1" on="0"/>
        <pt x="802" y="-1" on="0"/>
        <pt x="781" y="-1" on="0"/>
        <pt x="763" y="2" on="0"/>
        <pt x="760" y="5" on="1"/>
        <pt x="752" y="3" on="0"/>
        <pt x="746" y="5" on="0"/>
        <pt x="743" y="5" on="1"/>
        <pt x="741" y="5" on="0"/>
        <pt x="736" y="3" on="0"/>
        <pt x="733" y="3" on="1"/>
        <pt x="730" y="3" on="0"/>
        <pt x="725" y="8" on="0"/>
        <pt x="721" y="8" on="1"/>
        <pt x="715" y="8" on="0"/>
        <pt x="704" y="3" on="0"/>
        <pt x="698" y="3" on="1"/>
        <pt x="686" y="5" on="0"/>
        <pt x="682" y="1" on="0"/>
        <pt x="679" y="1" on="1"/>
        <pt x="662" y="1" on="0"/>
        <pt x="634" y="6" on="0"/>
        <pt x="617" y="-5" on="1"/>
        <pt x="612" y="-4" on="0"/>
        <pt x="590" y="-6" on="0"/>
        <pt x="585" y="-8" on="1"/>
        <pt x="576" y="-8" on="0"/>
        <pt x="562" y="-16" on="0"/>
        <pt x="559" y="-18" on="1"/>
        <pt x="546" y="-18" on="1"/>
        <pt x="538" y="-22" on="0"/>
        <pt x="527" y="-33" on="0"/>
        <pt x="520" y="-38" on="1"/>
        <pt x="515" y="-39" on="0"/>
        <pt x="511" y="-34" on="0"/>
        <pt x="507" y="-31" on="1"/>
        <pt x="501" y="-33" on="0"/>
        <pt x="497" y="-33" on="1"/>
        <pt x="493" y="-33" on="0"/>
        <pt x="489" y="-29" on="0"/>
        <pt x="486" y="-24" on="0"/>
        <pt x="482" y="-22" on="0"/>
        <pt x="477" y="-23" on="1"/>
        <pt x="479" y="-12" on="0"/>
        <pt x="470" y="12" on="0"/>
        <pt x="470" y="24" on="1"/>
        <pt x="470" y="28" on="0"/>
        <pt x="472" y="36" on="0"/>
        <pt x="472" y="40" on="1"/>
        <pt x="472" y="49" on="0"/>
        <pt x="463" y="74" on="0"/>
        <pt x="470" y="81" on="1"/>
        <pt x="466" y="86" on="0"/>
        <pt x="466" y="96" on="1"/>
        <pt x="466" y="103" on="0"/>
        <pt x="468" y="116" on="0"/>
        <pt x="468" y="122" on="1"/>
        <pt x="468" y="135" on="0"/>
        <pt x="462" y="159" on="0"/>
        <pt x="461" y="172" on="1"/>
        <pt x="450" y="179" on="0"/>
        <pt x="423" y="170" on="0"/>
        <pt x="411" y="170" on="1"/>
        <pt x="406" y="170" on="0"/>
        <pt x="395" y="172" on="0"/>
        <pt x="390" y="172" on="1"/>
        <pt x="379" y="172" on="0"/>
        <pt x="358" y="167" on="0"/>
        <pt x="347" y="166" on="1"/>
        <pt x="342" y="165" on="0"/>
        <pt x="331" y="167" on="0"/>
        <pt x="326" y="167" on="1"/>
        <pt x="317" y="167" on="0"/>
        <pt x="301" y="159" on="0"/>
        <pt x="293" y="159" on="1"/>
        <pt x="279" y="160" on="0"/>
        <pt x="260" y="152" on="0"/>
        <pt x="258" y="152" on="1"/>
        <pt x="255" y="152" on="0"/>
        <pt x="251" y="157" on="0"/>
        <pt x="249" y="157" on="1"/>
        <pt x="238" y="153" on="0"/>
        <pt x="235" y="155" on="0"/>
        <pt x="233" y="155" on="1"/>
        <pt x="228" y="155" on="0"/>
        <pt x="219" y="150" on="0"/>
        <pt x="214" y="148" on="1"/>
        <pt x="210" y="147" on="0"/>
        <pt x="201" y="147" on="0"/>
        <pt x="197" y="144" on="1"/>
        <pt x="193" y="144" on="0"/>
        <pt x="189" y="147" on="0"/>
        <pt x="186" y="148" on="1"/>
        <pt x="181" y="147" on="0"/>
        <pt x="165" y="132" on="0"/>
        <pt x="164" y="132" on="1"/>
        <pt x="154" y="133" on="0"/>
        <pt x="142" y="122" on="0"/>
        <pt x="134" y="122" on="1"/>
        <pt x="132" y="115" on="0"/>
        <pt x="122" y="111" on="0"/>
        <pt x="122" y="102" on="1"/>
        <pt x="122" y="99" on="0"/>
        <pt x="112" y="95" on="0"/>
        <pt x="115" y="88" on="1"/>
        <pt x="109" y="83" on="0"/>
        <pt x="105" y="77" on="0"/>
        <pt x="104" y="72" on="0"/>
        <pt x="103" y="67" on="0"/>
        <pt x="100" y="64" on="1"/>
        <pt x="94" y="60" on="0"/>
        <pt x="96" y="55" on="0"/>
        <pt x="96" y="53" on="1"/>
        <pt x="96" y="50" on="0"/>
        <pt x="91" y="46" on="0"/>
        <pt x="89" y="44" on="1"/>
        <pt x="84" y="38" on="0"/>
        <pt x="78" y="24" on="0"/>
        <pt x="71" y="11" on="0"/>
        <pt x="60" y="3" on="0"/>
        <pt x="50" y="3" on="1"/>
        <pt x="32" y="3" on="0"/>
        <pt x="15" y="38" on="0"/>
        <pt x="15" y="53" on="1"/>
        <pt x="15" y="60" on="0"/>
        <pt x="16" y="66" on="0"/>
        <pt x="19" y="70" on="0"/>
        <pt x="23" y="74" on="0"/>
        <pt x="26" y="79" on="1"/>
        <pt x="28" y="81" on="0"/>
        <pt x="29" y="91" on="0"/>
        <pt x="30" y="92" on="1"/>
        <pt x="39" y="96" on="0"/>
        <pt x="41" y="105" on="0"/>
        <pt x="48" y="103" on="1"/>
        <pt x="50" y="109" on="0"/>
        <pt x="53" y="121" on="0"/>
        <pt x="54" y="127" on="1"/>
        <pt x="58" y="129" on="0"/>
        <pt x="63" y="134" on="0"/>
        <pt x="67" y="135" on="1"/>
        <pt x="69" y="141" on="0"/>
        <pt x="74" y="154" on="0"/>
        <pt x="78" y="159" on="1"/>
        <pt x="85" y="168" on="0"/>
        <pt x="88" y="176" on="0"/>
        <pt x="93" y="179" on="1"/>
        <pt x="92" y="190" on="0"/>
        <pt x="98" y="196" on="0"/>
        <pt x="100" y="205" on="1"/>
        <pt x="106" y="209" on="0"/>
        <pt x="115" y="213" on="1"/>
        <pt x="116" y="217" on="0"/>
        <pt x="127" y="233" on="0"/>
        <pt x="137" y="249" on="0"/>
        <pt x="146" y="262" on="0"/>
        <pt x="146" y="264" on="1"/>
        <pt x="146" y="266" on="0"/>
        <pt x="143" y="271" on="0"/>
        <pt x="143" y="274" on="1"/>
        <pt x="147" y="278" on="0"/>
        <pt x="158" y="298" on="0"/>
        <pt x="168" y="320" on="0"/>
        <pt x="177" y="341" on="0"/>
        <pt x="180" y="348" on="1"/>
        <pt x="183" y="358" on="0"/>
        <pt x="188" y="367" on="0"/>
        <pt x="191" y="369" on="1"/>
        <pt x="192" y="372" on="0"/>
        <pt x="187" y="376" on="0"/>
        <pt x="188" y="380" on="1"/>
        <pt x="193" y="381" on="0"/>
        <pt x="198" y="387" on="0"/>
        <pt x="201" y="389" on="1"/>
        <pt x="200" y="392" on="0"/>
        <pt x="204" y="407" on="0"/>
        <pt x="206" y="410" on="1"/>
        <pt x="212" y="418" on="0"/>
        <pt x="221" y="428" on="0"/>
        <pt x="227" y="428" on="1"/>
        <pt x="228" y="435" on="0"/>
        <pt x="237" y="441" on="0"/>
        <pt x="236" y="452" on="1"/>
        <pt x="242" y="453" on="0"/>
        <pt x="245" y="463" on="0"/>
        <pt x="253" y="462" on="1"/>
        <pt x="253" y="469" on="0"/>
        <pt x="256" y="475" on="0"/>
        <pt x="261" y="478" on="0"/>
        <pt x="268" y="481" on="0"/>
        <pt x="271" y="484" on="1"/>
        <pt x="272" y="487" on="0"/>
        <pt x="271" y="494" on="0"/>
        <pt x="273" y="497" on="1"/>
        <pt x="275" y="500" on="0"/>
        <pt x="280" y="503" on="0"/>
        <pt x="282" y="506" on="1"/>
        <pt x="285" y="511" on="0"/>
        <pt x="285" y="516" on="0"/>
        <pt x="290" y="521" on="1"/>
        <pt x="295" y="532" on="1"/>
        <pt x="296" y="537" on="0"/>
        <pt x="307" y="554" on="0"/>
        <pt x="312" y="556" on="1"/>
        <pt x="313" y="570" on="0"/>
        <pt x="323" y="588" on="0"/>
        <pt x="331" y="599" on="1"/>
        <pt x="330" y="604" on="0"/>
        <pt x="334" y="611" on="0"/>
        <pt x="334" y="616" on="1"/>
        <pt x="337" y="624" on="0"/>
        <pt x="349" y="635" on="0"/>
        <pt x="347" y="644" on="1"/>
        <pt x="352" y="648" on="0"/>
        <pt x="356" y="651" on="0"/>
        <pt x="357" y="654" on="0"/>
        <pt x="355" y="660" on="0"/>
        <pt x="355" y="668" on="1"/>
        <pt x="359" y="677" on="0"/>
        <pt x="373" y="685" on="0"/>
        <pt x="373" y="696" on="1"/>
        <pt x="383" y="703" on="0"/>
        <pt x="394" y="726" on="0"/>
        <pt x="405" y="731" on="1"/>
        <pt x="410" y="731" on="0"/>
        <pt x="419" y="730" on="0"/>
        <pt x="422" y="727" on="1"/>
        <pt x="426" y="728" on="0"/>
        <pt x="429" y="731" on="0"/>
        <pt x="433" y="731" on="1"/>
        <pt x="438" y="731" on="0"/>
        <pt x="445" y="722" on="0"/>
        <pt x="455" y="725" on="1"/>
        <pt x="459" y="720" on="0"/>
        <pt x="468" y="710" on="0"/>
        <pt x="472" y="705" on="1"/>
        <pt x="479" y="702" on="0"/>
        <pt x="495" y="705" on="0"/>
        <pt x="503" y="705" on="1"/>
        <pt x="509" y="705" on="0"/>
        <pt x="522" y="703" on="0"/>
        <pt x="529" y="703" on="1"/>
        <pt x="544" y="703" on="0"/>
        <pt x="574" y="705" on="0"/>
        <pt x="589" y="705" on="1"/>
        <pt x="592" y="705" on="0"/>
        <pt x="597" y="701" on="0"/>
        <pt x="600" y="701" on="1"/>
        <pt x="605" y="703" on="0"/>
        <pt x="615" y="702" on="0"/>
        <pt x="620" y="702" on="1"/>
        <pt x="628" y="702" on="0"/>
        <pt x="644" y="707" on="0"/>
        <pt x="652" y="709" on="1"/>
        <pt x="663" y="701" on="0"/>
        <pt x="693" y="706" on="0"/>
        <pt x="706" y="701" on="1"/>
        <pt x="712" y="705" on="0"/>
        <pt x="731" y="705" on="0"/>
        <pt x="739" y="705" on="1"/>
        <pt x="742" y="706" on="0"/>
        <pt x="750" y="707" on="0"/>
        <pt x="752" y="712" on="1"/>
        <pt x="756" y="710" on="0"/>
        <pt x="770" y="708" on="0"/>
        <pt x="775" y="709" on="1"/>
        <pt x="783" y="707" on="0"/>
        <pt x="794" y="714" on="0"/>
        <pt x="799" y="714" on="1"/>
        <pt x="804" y="714" on="0"/>
        <pt x="812" y="712" on="0"/>
        <pt x="817" y="712" on="1"/>
        <pt x="821" y="712" on="0"/>
        <pt x="828" y="715" on="0"/>
        <pt x="832" y="716" on="1"/>
        <pt x="845" y="716" on="1"/>
        <pt x="850" y="716" on="0"/>
        <pt x="861" y="726" on="0"/>
        <pt x="866" y="729" on="1"/>
        <pt x="871" y="724" on="0"/>
        <pt x="879" y="730" on="0"/>
        <pt x="884" y="731" on="1"/>
        <pt x="885" y="728" on="0"/>
        <pt x="891" y="727" on="0"/>
        <pt x="897" y="726" on="0"/>
        <pt x="903" y="724" on="0"/>
        <pt x="903" y="720" on="1"/>
        <pt x="908" y="722" on="0"/>
        <pt x="917" y="719" on="0"/>
        <pt x="921" y="716" on="1"/>
        <pt x="923" y="718" on="0"/>
        <pt x="933" y="718" on="0"/>
        <pt x="936" y="718" on="1"/>
        <pt x="946" y="704" on="0"/>
        <pt x="957" y="690" on="0"/>
        <pt x="957" y="680" on="1"/>
        <pt x="957" y="670" on="0"/>
        <pt x="949" y="652" on="0"/>
        <pt x="944" y="644" on="1"/>
        <pt x="938" y="641" on="0"/>
        <pt x="923" y="635" on="0"/>
        <pt x="921" y="627" on="1"/>
        <pt x="916" y="628" on="0"/>
        <pt x="896" y="632" on="0"/>
        <pt x="895" y="627" on="1"/>
        <pt x="893" y="630" on="0"/>
        <pt x="888" y="632" on="0"/>
        <pt x="886" y="634" on="1"/>
        <pt x="882" y="630" on="0"/>
        <pt x="868" y="631" on="0"/>
        <pt x="852" y="634" on="0"/>
        <pt x="837" y="634" on="0"/>
        <pt x="832" y="629" on="1"/>
        <pt x="826" y="628" on="0"/>
        <pt x="823" y="634" on="0"/>
        <pt x="819" y="634" on="1"/>
        <pt x="813" y="634" on="0"/>
        <pt x="787" y="629" on="0"/>
        <pt x="782" y="625" on="1"/>
        <pt x="774" y="627" on="0"/>
        <pt x="765" y="626" on="0"/>
        <pt x="758" y="621" on="1"/>
        <pt x="754" y="621" on="0"/>
        <pt x="741" y="621" on="0"/>
        <pt x="739" y="616" on="1"/>
        <pt x="734" y="618" on="0"/>
        <pt x="728" y="621" on="0"/>
        <pt x="723" y="621" on="1"/>
        <pt x="715" y="621" on="0"/>
        <pt x="694" y="613" on="0"/>
        <pt x="689" y="621" on="1"/>
        <pt x="682" y="619" on="0"/>
        <pt x="680" y="616" on="1"/>
        <pt x="672" y="621" on="0"/>
        <pt x="651" y="622" on="0"/>
        <pt x="643" y="627" on="1"/>
        <pt x="638" y="627" on="0"/>
        <pt x="634" y="621" on="0"/>
        <pt x="630" y="621" on="1"/>
        <pt x="616" y="621" on="0"/>
        <pt x="589" y="625" on="0"/>
        <pt x="575" y="625" on="1"/>
        <pt x="572" y="625" on="0"/>
        <pt x="572" y="620" on="0"/>
        <pt x="564" y="620" on="1"/>
        <pt x="553" y="620" on="0"/>
        <pt x="532" y="624" on="0"/>
        <pt x="521" y="624" on="1"/>
        <pt x="504" y="624" on="0"/>
        <pt x="498" y="614" on="0"/>
        <pt x="490" y="612" on="1"/>
        <pt x="489" y="601" on="0"/>
        <pt x="491" y="578" on="0"/>
        <pt x="487" y="569" on="1"/>
        <pt x="488" y="566" on="0"/>
        <pt x="492" y="561" on="0"/>
        <pt x="492" y="558" on="1"/>
        <pt x="492" y="554" on="0"/>
        <pt x="490" y="547" on="0"/>
        <pt x="490" y="543" on="1"/>
        <pt x="492" y="535" on="0"/>
        <pt x="490" y="532" on="0"/>
        <pt x="490" y="530" on="1"/>
        <pt x="490" y="527" on="0"/>
        <pt x="493" y="521" on="0"/>
        <pt x="493" y="517" on="1"/>
        <pt x="493" y="505" on="1"/>
        <pt x="493" y="497" on="0"/>
        <pt x="499" y="485" on="0"/>
        <pt x="500" y="478" on="1"/>
        <pt x="502" y="466" on="0"/>
        <pt x="501" y="442" on="0"/>
        <pt x="503" y="430" on="1"/>
        <pt x="505" y="420" on="0"/>
        <pt x="509" y="410" on="0"/>
        <pt x="509" y="399" on="1"/>
        <pt x="509" y="394" on="0"/>
        <pt x="512" y="391" on="0"/>
        <pt x="513" y="387" on="1"/>
        <pt x="517" y="376" on="0"/>
        <pt x="513" y="354" on="0"/>
        <pt x="513" y="343" on="1"/>
        <pt x="513" y="338" on="0"/>
        <pt x="520" y="332" on="0"/>
        <pt x="520" y="327" on="1"/>
        <pt x="518" y="320" on="0"/>
        <pt x="520" y="319" on="0"/>
        <pt x="520" y="317" on="1"/>
        <pt x="520" y="315" on="0"/>
        <pt x="518" y="309" on="0"/>
        <pt x="518" y="306" on="1"/>
        <pt x="524" y="290" on="0"/>
        <pt x="524" y="276" on="0"/>
        <pt x="529" y="270" on="1"/>
        <pt x="538" y="268" on="0"/>
        <pt x="566" y="270" on="0"/>
        <pt x="574" y="276" on="1"/>
        <pt x="583" y="274" on="0"/>
        <pt x="603" y="273" on="0"/>
        <pt x="611" y="278" on="1"/>
        <pt x="615" y="279" on="0"/>
        <pt x="621" y="276" on="0"/>
        <pt x="626" y="276" on="1"/>
        <pt x="634" y="277" on="0"/>
        <pt x="638" y="282" on="0"/>
        <pt x="643" y="283" on="1"/>
        <pt x="645" y="281" on="0"/>
        <pt x="658" y="278" on="0"/>
        <pt x="661" y="278" on="1"/>
        <pt x="668" y="278" on="0"/>
        <pt x="673" y="285" on="0"/>
        <pt x="678" y="287" on="1"/>
        <pt x="684" y="283" on="0"/>
        <pt x="707" y="289" on="0"/>
        <pt x="714" y="289" on="1"/>
        <pt x="719" y="289" on="0"/>
        <pt x="727" y="293" on="0"/>
        <pt x="730" y="293" on="1"/>
        <pt x="741" y="296" on="1"/>
        <pt x="752" y="293" on="0"/>
        <pt x="758" y="296" on="0"/>
        <pt x="760" y="296" on="1"/>
        <pt x="764" y="296" on="0"/>
        <pt x="770" y="293" on="0"/>
        <pt x="773" y="293" on="1"/>
        <pt x="778" y="293" on="0"/>
        <pt x="784" y="298" on="0"/>
        <pt x="788" y="298" on="1"/>
        <pt x="799" y="296" on="0"/>
        <pt x="804" y="300" on="0"/>
        <pt x="808" y="300" on="1"/>
        <pt x="811" y="300" on="0"/>
        <pt x="818" y="298" on="0"/>
        <pt x="821" y="298" on="1"/>
        <pt x="824" y="298" on="0"/>
        <pt x="829" y="300" on="0"/>
        <pt x="832" y="300" on="1"/>
        <pt x="836" y="300" on="0"/>
        <pt x="843" y="297" on="0"/>
        <pt x="847" y="297" on="1"/>
        <pt x="854" y="297" on="0"/>
        <pt x="865" y="304" on="0"/>
        <pt x="871" y="306" on="1"/>
        <pt x="873" y="308" on="0"/>
        <pt x="879" y="307" on="0"/>
        <pt x="882" y="309" on="1"/>
        <pt x="895" y="314" on="0"/>
        <pt x="896" y="305" on="0"/>
        <pt x="901" y="304" on="1"/>
        <pt x="917" y="302" on="0"/>
        <pt x="940" y="284" on="0"/>
        <pt x="940" y="267" on="1"/>
        <pt x="940" y="265" on="0"/>
        <pt x="937" y="247" on="0"/>
        <pt x="936" y="246" on="1"/>
        <pt x="927" y="239" on="0"/>
        <pt x="928" y="235" on="0"/>
        <pt x="927" y="233" on="1"/>
        <pt x="925" y="228" on="0"/>
        <pt x="918" y="224" on="0"/>
        <pt x="921" y="218" on="1"/>
        <pt x="916" y="216" on="0"/>
        <pt x="905" y="213" on="0"/>
        <pt x="903" y="207" on="1"/>
        <pt x="894" y="209" on="0"/>
        <pt x="869" y="211" on="0"/>
        <pt x="862" y="202" on="1"/>
        <pt x="857" y="207" on="0"/>
        <pt x="847" y="213" on="0"/>
        <pt x="840" y="209" on="1"/>
        <pt x="831" y="216" on="0"/>
        <pt x="808" y="215" on="0"/>
        <pt x="797" y="215" on="1"/>
        <pt x="792" y="215" on="0"/>
        <pt x="782" y="218" on="0"/>
        <pt x="777" y="218" on="1"/>
        <pt x="772" y="218" on="0"/>
        <pt x="759" y="212" on="0"/>
        <pt x="754" y="209" on="1"/>
        <pt x="750" y="212" on="0"/>
        <pt x="737" y="209" on="0"/>
        <pt x="734" y="213" on="1"/>
        <pt x="725" y="210" on="0"/>
        <pt x="705" y="207" on="0"/>
        <pt x="695" y="205" on="1"/>
        <pt x="688" y="203" on="0"/>
        <pt x="670" y="203" on="0"/>
        <pt x="651" y="201" on="0"/>
        <pt x="634" y="197" on="0"/>
        <pt x="628" y="192" on="1"/>
        <pt x="616" y="198" on="0"/>
        <pt x="593" y="187" on="0"/>
        <pt x="581" y="187" on="1"/>
        <pt x="576" y="187" on="0"/>
        <pt x="567" y="190" on="0"/>
        <pt x="562" y="190" on="1"/>
        <pt x="555" y="190" on="0"/>
        <pt x="545" y="183" on="0"/>
        <pt x="539" y="181" on="1"/>
        <pt x="540" y="178" on="0"/>
        <pt x="539" y="171" on="0"/>
        <pt x="539" y="168" on="1"/>
        <pt x="539" y="162" on="0"/>
        <pt x="544" y="156" on="0"/>
        <pt x="544" y="152" on="1"/>
        <pt x="544" y="149" on="0"/>
        <pt x="542" y="143" on="0"/>
        <pt x="542" y="140" on="1"/>
        <pt x="542" y="138" on="0"/>
        <pt x="544" y="121" on="0"/>
        <pt x="546" y="102" on="0"/>
        <pt x="548" y="85" on="0"/>
        <pt x="548" y="83" on="1"/>
        <pt x="555" y="79" on="0"/>
        <pt x="569" y="74" on="0"/>
        <pt x="577" y="74" on="1"/>
        <pt x="582" y="74" on="0"/>
        <pt x="591" y="78" on="0"/>
        <pt x="596" y="79" on="1"/>
        <pt x="601" y="80" on="0"/>
        <pt x="609" y="79" on="0"/>
        <pt x="614" y="79" on="1"/>
        <pt x="622" y="79" on="0"/>
        <pt x="642" y="84" on="0"/>
        <pt x="650" y="81" on="1"/>
        <pt x="653" y="83" on="0"/>
        <pt x="661" y="83" on="0"/>
        <pt x="663" y="86" on="1"/>
        <pt x="668" y="86" on="0"/>
        <pt x="669" y="77" on="0"/>
        <pt x="674" y="77" on="1"/>
        <pt x="686" y="78" on="0"/>
        <pt x="692" y="81" on="0"/>
        <pt x="695" y="81" on="1"/>
        <pt x="703" y="81" on="0"/>
        <pt x="709" y="78" on="0"/>
        <pt x="717" y="81" on="1"/>
        <pt x="733" y="79" on="0"/>
        <pt x="746" y="83" on="0"/>
        <pt x="754" y="83" on="1"/>
        <pt x="767" y="83" on="0"/>
        <pt x="792" y="79" on="0"/>
        <pt x="806" y="79" on="1"/>
        <pt x="809" y="79" on="0"/>
        <pt x="814" y="81" on="0"/>
        <pt x="817" y="81" on="1"/>
        <pt x="820" y="81" on="0"/>
        <pt x="827" y="77" on="0"/>
        <pt x="832" y="77" on="1"/>
        <pt x="839" y="77" on="0"/>
        <pt x="853" y="77" on="0"/>
        <pt x="860" y="79" on="1"/>
        <pt x="865" y="80" on="0"/>
        <pt x="871" y="83" on="0"/>
        <pt x="877" y="83" on="1"/>
        <pt x="887" y="90" on="0"/>
        <pt x="895" y="88" on="0"/>
        <pt x="899" y="90" on="1"/>
        <pt x="903" y="91" on="0"/>
        <pt x="907" y="95" on="0"/>
        <pt x="911" y="99" on="0"/>
        <pt x="917" y="101" on="0"/>
        <pt x="923" y="101" on="1"/>
        <pt x="926" y="101" on="0"/>
        <pt x="929" y="107" on="0"/>
        <pt x="931" y="109" on="1"/>
        <pt x="939" y="108" on="0"/>
        <pt x="954" y="101" on="0"/>
        <pt x="962" y="101" on="1"/>
        <pt x="965" y="99" on="0"/>
        <pt x="968" y="92" on="0"/>
        <pt x="970" y="90" on="1"/>
        <pt x="970" y="83" on="0"/>
        <pt x="979" y="83" on="0"/>
        <pt x="979" y="74" on="1"/>
        <pt x="979" y="61" on="0"/>
        <pt x="969" y="39" on="0"/>
        <pt x="968" y="27" on="1"/>
        <pt x="968" y="21" on="0"/>
        <pt x="960" y="21" on="0"/>
      </contour>
      <contour>
        <pt x="444" y="300" on="1"/>
        <pt x="446" y="309" on="0"/>
        <pt x="443" y="328" on="0"/>
        <pt x="442" y="337" on="1"/>
        <pt x="442" y="356" on="1"/>
        <pt x="442" y="364" on="0"/>
        <pt x="438" y="377" on="0"/>
        <pt x="438" y="384" on="1"/>
        <pt x="438" y="387" on="0"/>
        <pt x="440" y="393" on="0"/>
        <pt x="440" y="396" on="1"/>
        <pt x="440" y="401" on="0"/>
        <pt x="436" y="408" on="0"/>
        <pt x="435" y="413" on="1"/>
        <pt x="435" y="415" on="0"/>
        <pt x="436" y="421" on="0"/>
        <pt x="436" y="424" on="1"/>
        <pt x="436" y="429" on="0"/>
        <pt x="432" y="439" on="0"/>
        <pt x="431" y="444" on="1"/>
        <pt x="429" y="462" on="0"/>
        <pt x="422" y="498" on="0"/>
        <pt x="420" y="517" on="1"/>
        <pt x="419" y="534" on="0"/>
        <pt x="419" y="584" on="0"/>
        <pt x="414" y="599" on="1"/>
        <pt x="404" y="597" on="0"/>
        <pt x="399" y="585" on="0"/>
        <pt x="396" y="579" on="1"/>
        <pt x="394" y="573" on="0"/>
        <pt x="387" y="563" on="0"/>
        <pt x="383" y="558" on="1"/>
        <pt x="380" y="551" on="0"/>
        <pt x="376" y="537" on="0"/>
        <pt x="373" y="530" on="1"/>
        <pt x="371" y="526" on="0"/>
        <pt x="366" y="521" on="0"/>
        <pt x="364" y="517" on="1"/>
        <pt x="362" y="513" on="0"/>
        <pt x="364" y="507" on="0"/>
        <pt x="362" y="504" on="1"/>
        <pt x="359" y="499" on="0"/>
        <pt x="352" y="493" on="0"/>
        <pt x="353" y="486" on="1"/>
        <pt x="348" y="486" on="0"/>
        <pt x="343" y="480" on="0"/>
        <pt x="338" y="472" on="0"/>
        <pt x="333" y="467" on="0"/>
        <pt x="327" y="467" on="1"/>
        <pt x="329" y="461" on="0"/>
        <pt x="326" y="453" on="0"/>
        <pt x="320" y="446" on="0"/>
        <pt x="314" y="438" on="0"/>
        <pt x="314" y="432" on="1"/>
        <pt x="311" y="432" on="0"/>
        <pt x="306" y="429" on="0"/>
        <pt x="303" y="428" on="1"/>
        <pt x="303" y="420" on="0"/>
        <pt x="292" y="408" on="0"/>
        <pt x="288" y="402" on="1"/>
        <pt x="286" y="398" on="0"/>
        <pt x="284" y="390" on="0"/>
        <pt x="282" y="387" on="1"/>
        <pt x="278" y="380" on="0"/>
        <pt x="270" y="373" on="0"/>
        <pt x="269" y="365" on="1"/>
        <pt x="261" y="356" on="0"/>
        <pt x="255" y="344" on="0"/>
        <pt x="253" y="337" on="1"/>
        <pt x="247" y="330" on="0"/>
        <pt x="245" y="318" on="0"/>
        <pt x="243" y="315" on="1"/>
        <pt x="238" y="309" on="0"/>
        <pt x="230" y="296" on="0"/>
        <pt x="225" y="291" on="1"/>
        <pt x="225" y="286" on="0"/>
        <pt x="223" y="279" on="0"/>
        <pt x="225" y="274" on="1"/>
        <pt x="219" y="266" on="0"/>
        <pt x="207" y="248" on="0"/>
        <pt x="204" y="237" on="1"/>
        <pt x="213" y="240" on="0"/>
        <pt x="229" y="231" on="0"/>
        <pt x="238" y="231" on="1"/>
        <pt x="246" y="231" on="0"/>
        <pt x="259" y="235" on="0"/>
        <pt x="266" y="235" on="1"/>
        <pt x="280" y="233" on="0"/>
        <pt x="296" y="239" on="0"/>
        <pt x="305" y="235" on="1"/>
        <pt x="316" y="243" on="0"/>
        <pt x="342" y="246" on="0"/>
        <pt x="353" y="241" on="1"/>
        <pt x="358" y="243" on="0"/>
        <pt x="363" y="247" on="0"/>
        <pt x="368" y="248" on="1"/>
        <pt x="387" y="250" on="0"/>
        <pt x="425" y="253" on="0"/>
        <pt x="444" y="252" on="1"/>
        <pt x="446" y="255" on="0"/>
        <pt x="449" y="261" on="0"/>
        <pt x="453" y="263" on="1"/>
        <pt x="453" y="274" on="0"/>
        <pt x="449" y="289" on="0"/>
      </contour>
    </TTGlyph>
    <TTGlyph name="Aacute" xMin="20" yMin="-8" xMax="685" yMax="1053">
      <component glyphName="A" x="0" y="0" flags="0x204"/>
      <component glyphName="acute" x="10" y="246" flags="0x4"/>
    </TTGlyph>
    <TTGlyph name="Acircumflex" xMin="20" yMin="-8" xMax="685" yMax="1000">
      <component glyphName="A" x="0" y="0" flags="0x204"/>
      <component glyphName="circumflex" x="0" y="236" flags="0x4"/>
    </TTGlyph>
    <TTGlyph name="Adieresis" xMin="20" yMin="-8" xMax="685" yMax="962">
      <component glyphName="A" x="0" y="0" flags="0x204"/>
      <component glyphName="dieresis" x="0" y="225" flags="0x4"/>
    </TTGlyph>
    <TTGlyph name="Agrave" xMin="20" yMin="-8" xMax="685" yMax="1078">
      <component glyphName="A" x="0" y="0" flags="0x204"/>
      <component glyphName="grave" x="-9" y="287" flags="0x4"/>
    </TTGlyph>
    <TTGlyph name="Aring" xMin="20" yMin="-8" xMax="685" yMax="940">
      <contour>
        <pt x="430" y="397" on="1"/>
        <pt x="430" y="411" on="0"/>
        <pt x="417" y="434" on="0"/>
        <pt x="418" y="447" on="1"/>
        <pt x="413" y="448" on="0"/>
        <pt x="413" y="457" on="0"/>
        <pt x="409" y="458" on="1"/>
        <pt x="413" y="465" on="0"/>
        <pt x="402" y="482" on="0"/>
        <pt x="404" y="493" on="1"/>
        <pt x="401" y="495" on="0"/>
        <pt x="397" y="503" on="0"/>
        <pt x="395" y="506" on="1"/>
        <pt x="392" y="526" on="0"/>
        <pt x="369" y="557" on="0"/>
        <pt x="364" y="575" on="1"/>
        <pt x="360" y="576" on="0"/>
        <pt x="355" y="580" on="0"/>
        <pt x="352" y="582" on="1"/>
        <pt x="350" y="578" on="0"/>
        <pt x="344" y="577" on="0"/>
        <pt x="342" y="575" on="1"/>
        <pt x="337" y="570" on="0"/>
        <pt x="338" y="554" on="0"/>
        <pt x="330" y="547" on="1"/>
        <pt x="330" y="544" on="0"/>
        <pt x="330" y="536" on="0"/>
        <pt x="333" y="534" on="1"/>
        <pt x="325" y="532" on="0"/>
        <pt x="325" y="522" on="0"/>
        <pt x="323" y="517" on="1"/>
        <pt x="317" y="505" on="0"/>
        <pt x="319" y="496" on="0"/>
        <pt x="318" y="491" on="1"/>
        <pt x="309" y="475" on="1"/>
        <pt x="305" y="473" on="0"/>
        <pt x="301" y="466" on="0"/>
        <pt x="299" y="462" on="1"/>
        <pt x="294" y="454" on="0"/>
        <pt x="288" y="443" on="0"/>
        <pt x="290" y="432" on="1"/>
        <pt x="285" y="422" on="0"/>
        <pt x="281" y="418" on="0"/>
        <pt x="280" y="415" on="1"/>
        <pt x="279" y="411" on="0"/>
        <pt x="280" y="403" on="0"/>
        <pt x="280" y="400" on="1"/>
        <pt x="272" y="390" on="0"/>
        <pt x="266" y="366" on="0"/>
        <pt x="266" y="354" on="1"/>
        <pt x="263" y="349" on="0"/>
        <pt x="260" y="344" on="0"/>
        <pt x="259" y="341" on="0"/>
        <pt x="258" y="337" on="0"/>
        <pt x="256" y="332" on="1"/>
        <pt x="247" y="323" on="0"/>
        <pt x="230" y="293" on="0"/>
        <pt x="230" y="285" on="1"/>
        <pt x="227" y="284" on="0"/>
        <pt x="223" y="280" on="0"/>
        <pt x="221" y="278" on="1"/>
        <pt x="222" y="269" on="0"/>
        <pt x="217" y="256" on="0"/>
        <pt x="216" y="248" on="1"/>
        <pt x="221" y="245" on="0"/>
        <pt x="235" y="243" on="0"/>
        <pt x="240" y="248" on="1"/>
        <pt x="241" y="246" on="0"/>
        <pt x="246" y="245" on="0"/>
        <pt x="252" y="245" on="0"/>
        <pt x="257" y="244" on="0"/>
        <pt x="256" y="241" on="1"/>
        <pt x="276" y="242" on="0"/>
        <pt x="318" y="244" on="0"/>
        <pt x="337" y="237" on="1"/>
        <pt x="356" y="240" on="0"/>
        <pt x="397" y="242" on="0"/>
        <pt x="416" y="237" on="1"/>
        <pt x="432" y="243" on="0"/>
        <pt x="464" y="241" on="0"/>
        <pt x="480" y="244" on="1"/>
        <pt x="478" y="249" on="0"/>
        <pt x="490" y="251" on="0"/>
        <pt x="490" y="261" on="1"/>
        <pt x="490" y="269" on="0"/>
        <pt x="479" y="285" on="0"/>
        <pt x="476" y="293" on="1"/>
        <pt x="474" y="298" on="0"/>
        <pt x="473" y="308" on="0"/>
        <pt x="471" y="313" on="1"/>
        <pt x="469" y="316" on="0"/>
        <pt x="463" y="320" on="0"/>
        <pt x="461" y="324" on="1"/>
        <pt x="454" y="343" on="0"/>
        <pt x="441" y="380" on="0"/>
      </contour>
      <contour>
        <pt x="526" y="837" on="1"/>
        <pt x="525" y="833" on="0"/>
        <pt x="521" y="827" on="0"/>
        <pt x="519" y="822" on="1"/>
        <pt x="522" y="812" on="0"/>
        <pt x="515" y="800" on="0"/>
        <pt x="513" y="792" on="1"/>
        <pt x="511" y="787" on="0"/>
        <pt x="514" y="776" on="0"/>
        <pt x="510" y="772" on="1"/>
        <pt x="504" y="768" on="0"/>
        <pt x="506" y="762" on="0"/>
        <pt x="504" y="759" on="1"/>
        <pt x="502" y="757" on="0"/>
        <pt x="497" y="755" on="0"/>
        <pt x="495" y="753" on="1"/>
        <pt x="491" y="748" on="0"/>
        <pt x="490" y="741" on="0"/>
        <pt x="482" y="742" on="1"/>
        <pt x="481" y="733" on="0"/>
        <pt x="466" y="727" on="0"/>
        <pt x="465" y="718" on="1"/>
        <pt x="457" y="718" on="0"/>
        <pt x="447" y="706" on="0"/>
        <pt x="439" y="705" on="1"/>
        <pt x="436" y="703" on="0"/>
        <pt x="424" y="693" on="0"/>
        <pt x="422" y="692" on="1"/>
        <pt x="423" y="689" on="0"/>
        <pt x="426" y="684" on="0"/>
        <pt x="428" y="681" on="1"/>
        <pt x="427" y="673" on="0"/>
        <pt x="423" y="668" on="0"/>
        <pt x="428" y="660" on="1"/>
        <pt x="427" y="653" on="0"/>
        <pt x="429" y="651" on="0"/>
        <pt x="431" y="649" on="0"/>
        <pt x="432" y="644" on="0"/>
        <pt x="432" y="638" on="1"/>
        <pt x="439" y="628" on="0"/>
        <pt x="438" y="619" on="0"/>
        <pt x="445" y="618" on="1"/>
        <pt x="445" y="608" on="0"/>
        <pt x="454" y="594" on="0"/>
        <pt x="461" y="588" on="1"/>
        <pt x="461" y="580" on="0"/>
        <pt x="467" y="570" on="0"/>
        <pt x="466" y="562" on="1"/>
        <pt x="468" y="554" on="0"/>
        <pt x="476" y="549" on="1"/>
        <pt x="474" y="542" on="0"/>
        <pt x="477" y="528" on="0"/>
        <pt x="483" y="515" on="0"/>
        <pt x="490" y="501" on="0"/>
        <pt x="492" y="495" on="1"/>
        <pt x="498" y="470" on="0"/>
        <pt x="512" y="433" on="0"/>
        <pt x="528" y="413" on="1"/>
        <pt x="527" y="411" on="0"/>
        <pt x="529" y="401" on="0"/>
        <pt x="526" y="402" on="1"/>
        <pt x="530" y="397" on="0"/>
        <pt x="544" y="374" on="0"/>
        <pt x="542" y="367" on="1"/>
        <pt x="549" y="355" on="0"/>
        <pt x="550" y="338" on="0"/>
        <pt x="552" y="330" on="1"/>
        <pt x="560" y="322" on="0"/>
        <pt x="566" y="300" on="0"/>
        <pt x="578" y="296" on="1"/>
        <pt x="576" y="282" on="0"/>
        <pt x="593" y="253" on="0"/>
        <pt x="595" y="239" on="1"/>
        <pt x="603" y="231" on="0"/>
        <pt x="612" y="210" on="0"/>
        <pt x="619" y="200" on="1"/>
        <pt x="618" y="195" on="0"/>
        <pt x="618" y="180" on="0"/>
        <pt x="626" y="181" on="1"/>
        <pt x="625" y="175" on="0"/>
        <pt x="629" y="167" on="0"/>
        <pt x="634" y="161" on="0"/>
        <pt x="639" y="155" on="0"/>
        <pt x="640" y="151" on="1"/>
        <pt x="648" y="143" on="0"/>
        <pt x="652" y="140" on="1"/>
        <pt x="652" y="122" on="1"/>
        <pt x="657" y="117" on="0"/>
        <pt x="668" y="105" on="0"/>
        <pt x="676" y="103" on="1"/>
        <pt x="671" y="87" on="0"/>
        <pt x="685" y="67" on="0"/>
        <pt x="685" y="59" on="1"/>
        <pt x="685" y="55" on="0"/>
        <pt x="683" y="50" on="0"/>
        <pt x="683" y="47" on="1"/>
        <pt x="683" y="43" on="0"/>
        <pt x="685" y="38" on="0"/>
        <pt x="685" y="35" on="1"/>
        <pt x="685" y="24" on="0"/>
        <pt x="673" y="10" on="0"/>
        <pt x="656" y="2" on="0"/>
        <pt x="636" y="-1" on="0"/>
        <pt x="628" y="-1" on="1"/>
        <pt x="621" y="6" on="0"/>
        <pt x="615" y="13" on="0"/>
        <pt x="614" y="18" on="1"/>
        <pt x="598" y="25" on="0"/>
        <pt x="587" y="53" on="0"/>
        <pt x="576" y="64" on="1"/>
        <pt x="576" y="77" on="1"/>
        <pt x="571" y="82" on="0"/>
        <pt x="562" y="92" on="0"/>
        <pt x="557" y="96" on="1"/>
        <pt x="561" y="108" on="0"/>
        <pt x="549" y="127" on="0"/>
        <pt x="547" y="138" on="1"/>
        <pt x="542" y="142" on="0"/>
        <pt x="535" y="151" on="0"/>
        <pt x="533" y="157" on="1"/>
        <pt x="526" y="158" on="0"/>
        <pt x="508" y="157" on="0"/>
        <pt x="490" y="155" on="0"/>
        <pt x="473" y="156" on="0"/>
        <pt x="468" y="161" on="1"/>
        <pt x="460" y="162" on="0"/>
        <pt x="443" y="164" on="0"/>
        <pt x="435" y="166" on="1"/>
        <pt x="414" y="161" on="0"/>
        <pt x="375" y="165" on="0"/>
        <pt x="361" y="159" on="1"/>
        <pt x="357" y="161" on="0"/>
        <pt x="347" y="162" on="0"/>
        <pt x="344" y="166" on="1"/>
        <pt x="334" y="160" on="0"/>
        <pt x="323" y="166" on="0"/>
        <pt x="313" y="166" on="1"/>
        <pt x="309" y="166" on="0"/>
        <pt x="301" y="163" on="0"/>
        <pt x="297" y="161" on="1"/>
        <pt x="289" y="164" on="0"/>
        <pt x="272" y="168" on="0"/>
        <pt x="263" y="168" on="1"/>
        <pt x="258" y="168" on="0"/>
        <pt x="251" y="164" on="0"/>
        <pt x="247" y="164" on="1"/>
        <pt x="242" y="164" on="0"/>
        <pt x="233" y="167" on="0"/>
        <pt x="228" y="164" on="1"/>
        <pt x="217" y="166" on="0"/>
        <pt x="207" y="159" on="0"/>
        <pt x="202" y="164" on="1"/>
        <pt x="195" y="159" on="0"/>
        <pt x="179" y="157" on="0"/>
        <pt x="173" y="153" on="1"/>
        <pt x="169" y="144" on="0"/>
        <pt x="167" y="144" on="0"/>
        <pt x="166" y="142" on="1"/>
        <pt x="161" y="137" on="0"/>
        <pt x="160" y="124" on="0"/>
        <pt x="152" y="122" on="1"/>
        <pt x="150" y="111" on="0"/>
        <pt x="140" y="95" on="0"/>
        <pt x="135" y="86" on="1"/>
        <pt x="136" y="82" on="0"/>
        <pt x="137" y="76" on="0"/>
        <pt x="137" y="72" on="1"/>
        <pt x="132" y="62" on="0"/>
        <pt x="136" y="59" on="0"/>
        <pt x="135" y="57" on="1"/>
        <pt x="128" y="52" on="0"/>
        <pt x="128" y="45" on="0"/>
        <pt x="123" y="47" on="1"/>
        <pt x="123" y="27" on="0"/>
        <pt x="101" y="10" on="0"/>
        <pt x="90" y="-3" on="1"/>
        <pt x="82" y="-3" on="0"/>
        <pt x="69" y="-6" on="0"/>
        <pt x="61" y="-8" on="1"/>
        <pt x="55" y="-4" on="0"/>
        <pt x="40" y="0" on="0"/>
        <pt x="35" y="5" on="1"/>
        <pt x="29" y="20" on="0"/>
        <pt x="22" y="26" on="0"/>
        <pt x="20" y="34" on="1"/>
        <pt x="25" y="47" on="0"/>
        <pt x="39" y="64" on="0"/>
        <pt x="40" y="79" on="1"/>
        <pt x="42" y="83" on="0"/>
        <pt x="49" y="89" on="0"/>
        <pt x="51" y="94" on="1"/>
        <pt x="53" y="98" on="0"/>
        <pt x="54" y="106" on="0"/>
        <pt x="56" y="109" on="1"/>
        <pt x="63" y="117" on="0"/>
        <pt x="65" y="125" on="0"/>
        <pt x="71" y="127" on="1"/>
        <pt x="69" y="138" on="0"/>
        <pt x="83" y="145" on="0"/>
        <pt x="83" y="153" on="1"/>
        <pt x="83" y="163" on="0"/>
        <pt x="75" y="180" on="0"/>
        <pt x="75" y="190" on="1"/>
        <pt x="75" y="197" on="0"/>
        <pt x="82" y="204" on="0"/>
        <pt x="91" y="210" on="0"/>
        <pt x="99" y="217" on="0"/>
        <pt x="101" y="222" on="1"/>
        <pt x="111" y="222" on="1"/>
        <pt x="119" y="232" on="0"/>
        <pt x="129" y="256" on="0"/>
        <pt x="135" y="267" on="1"/>
        <pt x="137" y="271" on="0"/>
        <pt x="135" y="282" on="0"/>
        <pt x="137" y="285" on="1"/>
        <pt x="144" y="293" on="0"/>
        <pt x="142" y="300" on="0"/>
        <pt x="149" y="302" on="1"/>
        <pt x="148" y="311" on="0"/>
        <pt x="153" y="317" on="0"/>
        <pt x="154" y="324" on="1"/>
        <pt x="157" y="328" on="0"/>
        <pt x="164" y="333" on="0"/>
        <pt x="168" y="335" on="1"/>
        <pt x="168" y="348" on="1"/>
        <pt x="172" y="350" on="0"/>
        <pt x="176" y="357" on="0"/>
        <pt x="180" y="358" on="1"/>
        <pt x="181" y="362" on="0"/>
        <pt x="180" y="367" on="0"/>
        <pt x="185" y="367" on="1"/>
        <pt x="187" y="371" on="0"/>
        <pt x="185" y="378" on="0"/>
        <pt x="187" y="382" on="1"/>
        <pt x="189" y="387" on="0"/>
        <pt x="197" y="394" on="0"/>
        <pt x="197" y="399" on="1"/>
        <pt x="195" y="400" on="0"/>
        <pt x="196" y="404" on="0"/>
        <pt x="199" y="410" on="0"/>
        <pt x="200" y="416" on="0"/>
        <pt x="199" y="421" on="1"/>
        <pt x="203" y="424" on="0"/>
        <pt x="206" y="431" on="0"/>
        <pt x="209" y="434" on="1"/>
        <pt x="207" y="444" on="0"/>
        <pt x="211" y="458" on="0"/>
        <pt x="213" y="467" on="1"/>
        <pt x="220" y="470" on="0"/>
        <pt x="223" y="475" on="1"/>
        <pt x="222" y="482" on="0"/>
        <pt x="226" y="495" on="0"/>
        <pt x="231" y="507" on="0"/>
        <pt x="233" y="518" on="0"/>
        <pt x="230" y="525" on="1"/>
        <pt x="233" y="533" on="0"/>
        <pt x="244" y="540" on="0"/>
        <pt x="242" y="551" on="1"/>
        <pt x="249" y="557" on="0"/>
        <pt x="264" y="576" on="0"/>
        <pt x="261" y="586" on="1"/>
        <pt x="269" y="597" on="0"/>
        <pt x="277" y="622" on="0"/>
        <pt x="275" y="636" on="1"/>
        <pt x="280" y="646" on="0"/>
        <pt x="291" y="672" on="0"/>
        <pt x="290" y="683" on="1"/>
        <pt x="296" y="685" on="0"/>
        <pt x="297" y="696" on="0"/>
        <pt x="299" y="700" on="1"/>
        <pt x="289" y="709" on="0"/>
        <pt x="275" y="711" on="0"/>
        <pt x="270" y="714" on="1"/>
        <pt x="261" y="718" on="0"/>
        <pt x="254" y="724" on="0"/>
        <pt x="247" y="732" on="0"/>
        <pt x="240" y="739" on="0"/>
        <pt x="240" y="740" on="1"/>
        <pt x="235" y="751" on="0"/>
        <pt x="229" y="757" on="0"/>
        <pt x="227" y="759" on="1"/>
        <pt x="225" y="762" on="0"/>
        <pt x="219" y="774" on="0"/>
        <pt x="213" y="788" on="0"/>
        <pt x="209" y="802" on="0"/>
        <pt x="209" y="805" on="1"/>
        <pt x="209" y="812" on="0"/>
        <pt x="200" y="814" on="0"/>
        <pt x="200" y="819" on="1"/>
        <pt x="200" y="823" on="0"/>
        <pt x="207" y="822" on="0"/>
        <pt x="207" y="827" on="1"/>
        <pt x="207" y="842" on="1"/>
        <pt x="213" y="849" on="0"/>
        <pt x="224" y="865" on="0"/>
        <pt x="227" y="874" on="1"/>
        <pt x="234" y="873" on="0"/>
        <pt x="241" y="877" on="0"/>
        <pt x="245" y="883" on="0"/>
        <pt x="248" y="891" on="0"/>
        <pt x="253" y="894" on="1"/>
        <pt x="257" y="895" on="0"/>
        <pt x="265" y="897" on="0"/>
        <pt x="270" y="896" on="1"/>
        <pt x="278" y="899" on="0"/>
        <pt x="287" y="911" on="0"/>
        <pt x="294" y="915" on="1"/>
        <pt x="307" y="914" on="0"/>
        <pt x="318" y="925" on="0"/>
        <pt x="328" y="926" on="1"/>
        <pt x="331" y="928" on="0"/>
        <pt x="333" y="934" on="0"/>
        <pt x="337" y="935" on="1"/>
        <pt x="342" y="933" on="0"/>
        <pt x="352" y="934" on="0"/>
        <pt x="357" y="931" on="1"/>
        <pt x="359" y="932" on="0"/>
        <pt x="371" y="935" on="0"/>
        <pt x="384" y="938" on="0"/>
        <pt x="396" y="940" on="0"/>
        <pt x="398" y="940" on="1"/>
        <pt x="405" y="940" on="0"/>
        <pt x="419" y="932" on="0"/>
        <pt x="434" y="922" on="0"/>
        <pt x="448" y="913" on="0"/>
        <pt x="454" y="913" on="1"/>
        <pt x="456" y="911" on="0"/>
        <pt x="456" y="905" on="0"/>
        <pt x="458" y="902" on="1"/>
        <pt x="463" y="903" on="0"/>
        <pt x="468" y="898" on="0"/>
        <pt x="471" y="896" on="1"/>
        <pt x="475" y="894" on="0"/>
        <pt x="483" y="894" on="0"/>
        <pt x="487" y="892" on="1"/>
        <pt x="495" y="886" on="0"/>
        <pt x="503" y="868" on="0"/>
        <pt x="513" y="863" on="1"/>
        <pt x="512" y="854" on="0"/>
        <pt x="522" y="845" on="0"/>
      </contour>
      <contour>
        <pt x="415" y="855" on="1"/>
        <pt x="405" y="857" on="0"/>
        <pt x="388" y="866" on="0"/>
        <pt x="377" y="866" on="1"/>
        <pt x="371" y="866" on="0"/>
        <pt x="363" y="859" on="0"/>
        <pt x="357" y="861" on="1"/>
        <pt x="352" y="855" on="0"/>
        <pt x="346" y="850" on="1"/>
        <pt x="337" y="849" on="0"/>
        <pt x="326" y="842" on="0"/>
        <pt x="317" y="833" on="0"/>
        <pt x="307" y="823" on="0"/>
        <pt x="300" y="820" on="1"/>
        <pt x="302" y="817" on="0"/>
        <pt x="300" y="811" on="0"/>
        <pt x="300" y="807" on="1"/>
        <pt x="300" y="803" on="0"/>
        <pt x="305" y="799" on="0"/>
        <pt x="307" y="796" on="1"/>
        <pt x="308" y="794" on="0"/>
        <pt x="309" y="787" on="0"/>
        <pt x="311" y="785" on="1"/>
        <pt x="313" y="783" on="0"/>
        <pt x="320" y="785" on="0"/>
        <pt x="322" y="783" on="1"/>
        <pt x="323" y="778" on="0"/>
        <pt x="325" y="776" on="0"/>
        <pt x="328" y="772" on="1"/>
        <pt x="342" y="769" on="0"/>
        <pt x="376" y="771" on="0"/>
        <pt x="389" y="766" on="1"/>
        <pt x="397" y="772" on="0"/>
        <pt x="416" y="781" on="0"/>
        <pt x="424" y="788" on="1"/>
        <pt x="425" y="789" on="0"/>
        <pt x="427" y="796" on="0"/>
        <pt x="428" y="798" on="1"/>
        <pt x="433" y="806" on="0"/>
        <pt x="436" y="810" on="0"/>
        <pt x="436" y="820" on="1"/>
        <pt x="436" y="829" on="0"/>
        <pt x="431" y="837" on="0"/>
        <pt x="424" y="843" on="0"/>
        <pt x="417" y="849" on="0"/>
      </contour>
    </TTGlyph>
    <TTGlyph name="Atilde" xMin="20" yMin="-8" xMax="685" yMax="979">
      <component glyphName="A" x="0" y="0" flags="0x204"/>
      <component glyphName="tilde" x="0" y="215" flags="0x4"/>
    </TTGlyph>
    <TTGlyph name="B" xMin="56" yMin="-13" xMax="661" yMax="752">
      <contour>
        <pt x="658" y="161" on="1"/>
        <pt x="648" y="151" on="0"/>
        <pt x="643" y="124" on="0"/>
        <pt x="632" y="114" on="1"/>
        <pt x="634" y="109" on="0"/>
        <pt x="634" y="107" on="0"/>
        <pt x="632" y="103" on="1"/>
        <pt x="627" y="98" on="0"/>
        <pt x="619" y="90" on="0"/>
        <pt x="617" y="83" on="1"/>
        <pt x="614" y="81" on="0"/>
        <pt x="609" y="76" on="0"/>
        <pt x="604" y="75" on="1"/>
        <pt x="604" y="70" on="0"/>
        <pt x="599" y="62" on="0"/>
        <pt x="600" y="57" on="1"/>
        <pt x="594" y="58" on="0"/>
        <pt x="592" y="49" on="0"/>
        <pt x="585" y="51" on="1"/>
        <pt x="582" y="49" on="0"/>
        <pt x="576" y="46" on="0"/>
        <pt x="574" y="42" on="1"/>
        <pt x="569" y="46" on="0"/>
        <pt x="560" y="36" on="0"/>
        <pt x="551" y="36" on="1"/>
        <pt x="539" y="29" on="0"/>
        <pt x="525" y="29" on="0"/>
        <pt x="520" y="23" on="1"/>
        <pt x="517" y="22" on="0"/>
        <pt x="513" y="26" on="0"/>
        <pt x="509" y="25" on="1"/>
        <pt x="508" y="21" on="0"/>
        <pt x="501" y="22" on="0"/>
        <pt x="498" y="21" on="1"/>
        <pt x="490" y="13" on="0"/>
        <pt x="483" y="14" on="0"/>
        <pt x="485" y="10" on="1"/>
        <pt x="475" y="9" on="0"/>
        <pt x="448" y="2" on="0"/>
        <pt x="440" y="8" on="1"/>
        <pt x="433" y="6" on="0"/>
        <pt x="421" y="6" on="0"/>
        <pt x="415" y="6" on="1"/>
        <pt x="410" y="6" on="0"/>
        <pt x="408" y="-2" on="0"/>
        <pt x="403" y="-1" on="1"/>
        <pt x="395" y="3" on="0"/>
        <pt x="385" y="-1" on="0"/>
        <pt x="375" y="-2" on="0"/>
        <pt x="364" y="-5" on="0"/>
        <pt x="360" y="-8" on="1"/>
        <pt x="352" y="-5" on="0"/>
        <pt x="338" y="-9" on="0"/>
        <pt x="331" y="-3" on="1"/>
        <pt x="326" y="-8" on="0"/>
        <pt x="313" y="-3" on="0"/>
        <pt x="306" y="-3" on="1"/>
        <pt x="301" y="-3" on="0"/>
        <pt x="293" y="-7" on="0"/>
        <pt x="288" y="-8" on="1"/>
        <pt x="283" y="-9" on="0"/>
        <pt x="276" y="-8" on="0"/>
        <pt x="271" y="-8" on="1"/>
        <pt x="267" y="-8" on="0"/>
        <pt x="261" y="-10" on="0"/>
        <pt x="258" y="-10" on="1"/>
        <pt x="251" y="-10" on="0"/>
        <pt x="239" y="-7" on="0"/>
        <pt x="233" y="-7" on="1"/>
        <pt x="226" y="-7" on="0"/>
        <pt x="213" y="-13" on="0"/>
        <pt x="206" y="-13" on="1"/>
        <pt x="197" y="-13" on="0"/>
        <pt x="181" y="-8" on="0"/>
        <pt x="173" y="-8" on="1"/>
        <pt x="164" y="-8" on="0"/>
        <pt x="147" y="-12" on="0"/>
        <pt x="138" y="-12" on="1"/>
        <pt x="133" y="-12" on="0"/>
        <pt x="130" y="-5" on="0"/>
        <pt x="128" y="-3" on="1"/>
        <pt x="125" y="-1" on="0"/>
        <pt x="117" y="1" on="0"/>
        <pt x="115" y="3" on="1"/>
        <pt x="112" y="6" on="0"/>
        <pt x="111" y="15" on="0"/>
        <pt x="104" y="14" on="1"/>
        <pt x="107" y="29" on="0"/>
        <pt x="106" y="43" on="0"/>
        <pt x="101" y="51" on="0"/>
        <pt x="96" y="55" on="0"/>
        <pt x="95" y="60" on="1"/>
        <pt x="93" y="62" on="0"/>
        <pt x="87" y="60" on="0"/>
        <pt x="84" y="64" on="1"/>
        <pt x="85" y="73" on="0"/>
        <pt x="86" y="85" on="0"/>
        <pt x="93" y="92" on="1"/>
        <pt x="94" y="96" on="0"/>
        <pt x="89" y="99" on="0"/>
        <pt x="87" y="101" on="1"/>
        <pt x="90" y="109" on="0"/>
        <pt x="85" y="132" on="0"/>
        <pt x="93" y="138" on="1"/>
        <pt x="89" y="145" on="0"/>
        <pt x="93" y="162" on="0"/>
        <pt x="93" y="170" on="1"/>
        <pt x="93" y="179" on="0"/>
        <pt x="91" y="201" on="0"/>
        <pt x="95" y="209" on="1"/>
        <pt x="93" y="218" on="0"/>
        <pt x="84" y="237" on="0"/>
        <pt x="80" y="246" on="1"/>
        <pt x="80" y="250" on="0"/>
        <pt x="87" y="249" on="0"/>
        <pt x="87" y="257" on="1"/>
        <pt x="87" y="263" on="0"/>
        <pt x="84" y="275" on="0"/>
        <pt x="89" y="280" on="1"/>
        <pt x="87" y="288" on="0"/>
        <pt x="78" y="310" on="0"/>
        <pt x="84" y="317" on="1"/>
        <pt x="75" y="341" on="1"/>
        <pt x="78" y="352" on="0"/>
        <pt x="74" y="356" on="0"/>
        <pt x="74" y="358" on="1"/>
        <pt x="74" y="362" on="0"/>
        <pt x="76" y="368" on="0"/>
        <pt x="76" y="372" on="1"/>
        <pt x="76" y="381" on="0"/>
        <pt x="76" y="399" on="0"/>
        <pt x="74" y="408" on="1"/>
        <pt x="72" y="414" on="0"/>
        <pt x="69" y="421" on="0"/>
        <pt x="69" y="428" on="1"/>
        <pt x="69" y="433" on="0"/>
        <pt x="65" y="436" on="0"/>
        <pt x="65" y="440" on="1"/>
        <pt x="67" y="450" on="0"/>
        <pt x="65" y="459" on="0"/>
        <pt x="65" y="464" on="1"/>
        <pt x="65" y="469" on="0"/>
        <pt x="69" y="479" on="0"/>
        <pt x="69" y="484" on="1"/>
        <pt x="69" y="489" on="0"/>
        <pt x="65" y="498" on="0"/>
        <pt x="65" y="501" on="1"/>
        <pt x="65" y="505" on="0"/>
        <pt x="69" y="511" on="0"/>
        <pt x="69" y="516" on="1"/>
        <pt x="69" y="527" on="0"/>
        <pt x="67" y="530" on="0"/>
        <pt x="67" y="532" on="1"/>
        <pt x="67" y="540" on="0"/>
        <pt x="70" y="558" on="0"/>
        <pt x="65" y="566" on="1"/>
        <pt x="64" y="580" on="0"/>
        <pt x="63" y="609" on="0"/>
        <pt x="63" y="621" on="1"/>
        <pt x="63" y="624" on="0"/>
        <pt x="65" y="630" on="0"/>
        <pt x="65" y="634" on="1"/>
        <pt x="61" y="643" on="0"/>
        <pt x="65" y="647" on="1"/>
        <pt x="62" y="658" on="0"/>
        <pt x="67" y="661" on="0"/>
        <pt x="67" y="666" on="1"/>
        <pt x="67" y="671" on="0"/>
        <pt x="65" y="678" on="0"/>
        <pt x="67" y="683" on="1"/>
        <pt x="65" y="688" on="0"/>
        <pt x="57" y="693" on="0"/>
        <pt x="56" y="699" on="1"/>
        <pt x="64" y="716" on="0"/>
        <pt x="86" y="741" on="0"/>
        <pt x="106" y="744" on="1"/>
        <pt x="117" y="752" on="0"/>
        <pt x="119" y="744" on="0"/>
        <pt x="124" y="744" on="1"/>
        <pt x="137" y="744" on="0"/>
        <pt x="157" y="750" on="0"/>
        <pt x="171" y="740" on="1"/>
        <pt x="182" y="742" on="0"/>
        <pt x="203" y="735" on="0"/>
        <pt x="214" y="735" on="1"/>
        <pt x="222" y="735" on="0"/>
        <pt x="235" y="739" on="0"/>
        <pt x="242" y="739" on="1"/>
        <pt x="255" y="739" on="0"/>
        <pt x="279" y="731" on="0"/>
        <pt x="292" y="731" on="1"/>
        <pt x="298" y="731" on="0"/>
        <pt x="309" y="733" on="0"/>
        <pt x="314" y="733" on="1"/>
        <pt x="326" y="733" on="0"/>
        <pt x="348" y="725" on="0"/>
        <pt x="360" y="722" on="1"/>
        <pt x="364" y="721" on="0"/>
        <pt x="371" y="722" on="0"/>
        <pt x="375" y="720" on="1"/>
        <pt x="380" y="718" on="0"/>
        <pt x="385" y="715" on="1"/>
        <pt x="392" y="714" on="0"/>
        <pt x="397" y="711" on="1"/>
        <pt x="401" y="709" on="0"/>
        <pt x="408" y="705" on="0"/>
        <pt x="407" y="703" on="1"/>
        <pt x="420" y="705" on="0"/>
        <pt x="431" y="695" on="0"/>
        <pt x="442" y="696" on="1"/>
        <pt x="444" y="692" on="0"/>
        <pt x="451" y="687" on="0"/>
        <pt x="451" y="681" on="1"/>
        <pt x="461" y="676" on="0"/>
        <pt x="474" y="659" on="0"/>
        <pt x="483" y="653" on="1"/>
        <pt x="485" y="651" on="0"/>
        <pt x="492" y="651" on="0"/>
        <pt x="494" y="649" on="1"/>
        <pt x="496" y="647" on="0"/>
        <pt x="498" y="642" on="0"/>
        <pt x="500" y="640" on="1"/>
        <pt x="511" y="635" on="0"/>
        <pt x="514" y="628" on="0"/>
        <pt x="520" y="629" on="1"/>
        <pt x="519" y="618" on="0"/>
        <pt x="524" y="602" on="0"/>
        <pt x="533" y="595" on="1"/>
        <pt x="529" y="588" on="0"/>
        <pt x="528" y="580" on="0"/>
        <pt x="533" y="582" on="1"/>
        <pt x="531" y="576" on="0"/>
        <pt x="529" y="575" on="0"/>
        <pt x="528" y="566" on="1"/>
        <pt x="528" y="563" on="0"/>
        <pt x="537" y="563" on="0"/>
        <pt x="535" y="558" on="1"/>
        <pt x="530" y="556" on="0"/>
        <pt x="526" y="556" on="0"/>
        <pt x="526" y="549" on="1"/>
        <pt x="526" y="545" on="0"/>
        <pt x="531" y="541" on="0"/>
        <pt x="533" y="538" on="1"/>
        <pt x="532" y="527" on="0"/>
        <pt x="519" y="502" on="0"/>
        <pt x="519" y="498" on="1"/>
        <pt x="522" y="491" on="0"/>
        <pt x="518" y="488" on="0"/>
        <pt x="515" y="488" on="1"/>
        <pt x="517" y="482" on="0"/>
        <pt x="509" y="477" on="0"/>
        <pt x="507" y="475" on="1"/>
        <pt x="503" y="470" on="0"/>
        <pt x="502" y="458" on="0"/>
        <pt x="494" y="456" on="1"/>
        <pt x="495" y="451" on="0"/>
        <pt x="492" y="445" on="0"/>
        <pt x="487" y="438" on="0"/>
        <pt x="483" y="431" on="0"/>
        <pt x="483" y="426" on="1"/>
        <pt x="476" y="427" on="0"/>
        <pt x="474" y="419" on="0"/>
        <pt x="468" y="421" on="1"/>
        <pt x="467" y="410" on="0"/>
        <pt x="459" y="405" on="0"/>
        <pt x="459" y="398" on="1"/>
        <pt x="459" y="392" on="0"/>
        <pt x="467" y="385" on="0"/>
        <pt x="478" y="381" on="0"/>
        <pt x="489" y="378" on="0"/>
        <pt x="492" y="374" on="1"/>
        <pt x="506" y="373" on="0"/>
        <pt x="526" y="362" on="0"/>
        <pt x="537" y="354" on="1"/>
        <pt x="543" y="355" on="0"/>
        <pt x="554" y="351" on="0"/>
        <pt x="559" y="352" on="1"/>
        <pt x="564" y="346" on="0"/>
        <pt x="569" y="344" on="0"/>
        <pt x="572" y="341" on="0"/>
        <pt x="576" y="338" on="0"/>
        <pt x="580" y="339" on="1"/>
        <pt x="583" y="333" on="0"/>
        <pt x="594" y="325" on="0"/>
        <pt x="598" y="319" on="1"/>
        <pt x="603" y="318" on="0"/>
        <pt x="607" y="322" on="0"/>
        <pt x="611" y="322" on="1"/>
        <pt x="611" y="306" on="1"/>
        <pt x="615" y="298" on="0"/>
        <pt x="629" y="285" on="0"/>
        <pt x="637" y="278" on="1"/>
        <pt x="639" y="267" on="0"/>
        <pt x="641" y="258" on="0"/>
        <pt x="645" y="257" on="1"/>
        <pt x="645" y="249" on="0"/>
        <pt x="653" y="235" on="0"/>
        <pt x="654" y="227" on="1"/>
        <pt x="659" y="221" on="0"/>
        <pt x="653" y="218" on="0"/>
        <pt x="653" y="216" on="1"/>
        <pt x="653" y="208" on="0"/>
        <pt x="661" y="190" on="0"/>
        <pt x="661" y="181" on="1"/>
        <pt x="661" y="176" on="0"/>
        <pt x="658" y="166" on="0"/>
      </contour>
      <contour>
        <pt x="427" y="595" on="1"/>
        <pt x="418" y="603" on="0"/>
        <pt x="412" y="610" on="0"/>
        <pt x="407" y="612" on="1"/>
        <pt x="398" y="616" on="0"/>
        <pt x="394" y="621" on="0"/>
        <pt x="392" y="623" on="1"/>
        <pt x="390" y="625" on="0"/>
        <pt x="383" y="626" on="0"/>
        <pt x="381" y="629" on="1"/>
        <pt x="364" y="629" on="1"/>
        <pt x="362" y="629" on="0"/>
        <pt x="357" y="635" on="0"/>
        <pt x="355" y="636" on="1"/>
        <pt x="349" y="639" on="0"/>
        <pt x="334" y="638" on="0"/>
        <pt x="327" y="640" on="1"/>
        <pt x="322" y="642" on="0"/>
        <pt x="315" y="647" on="0"/>
        <pt x="309" y="647" on="1"/>
        <pt x="295" y="646" on="0"/>
        <pt x="283" y="655" on="0"/>
        <pt x="275" y="655" on="1"/>
        <pt x="272" y="655" on="0"/>
        <pt x="267" y="653" on="0"/>
        <pt x="264" y="653" on="1"/>
        <pt x="260" y="653" on="0"/>
        <pt x="254" y="657" on="0"/>
        <pt x="250" y="657" on="1"/>
        <pt x="247" y="657" on="0"/>
        <pt x="241" y="655" on="0"/>
        <pt x="238" y="655" on="1"/>
        <pt x="235" y="655" on="0"/>
        <pt x="230" y="660" on="0"/>
        <pt x="226" y="660" on="1"/>
        <pt x="215" y="657" on="0"/>
        <pt x="207" y="660" on="0"/>
        <pt x="204" y="655" on="1"/>
        <pt x="191" y="661" on="0"/>
        <pt x="160" y="657" on="0"/>
        <pt x="147" y="653" on="1"/>
        <pt x="142" y="643" on="0"/>
        <pt x="140" y="616" on="0"/>
        <pt x="145" y="605" on="1"/>
        <pt x="138" y="597" on="0"/>
        <pt x="145" y="574" on="0"/>
        <pt x="141" y="564" on="1"/>
        <pt x="149" y="560" on="0"/>
        <pt x="148" y="535" on="0"/>
        <pt x="147" y="527" on="1"/>
        <pt x="147" y="525" on="0"/>
        <pt x="143" y="520" on="0"/>
        <pt x="143" y="517" on="1"/>
        <pt x="143" y="507" on="0"/>
        <pt x="149" y="477" on="0"/>
        <pt x="154" y="469" on="1"/>
        <pt x="152" y="464" on="0"/>
        <pt x="147" y="459" on="0"/>
        <pt x="147" y="454" on="1"/>
        <pt x="147" y="448" on="0"/>
        <pt x="156" y="442" on="0"/>
        <pt x="156" y="431" on="1"/>
        <pt x="156" y="424" on="0"/>
        <pt x="160" y="413" on="0"/>
        <pt x="160" y="406" on="1"/>
        <pt x="168" y="408" on="0"/>
        <pt x="184" y="404" on="0"/>
        <pt x="192" y="404" on="1"/>
        <pt x="197" y="404" on="0"/>
        <pt x="203" y="407" on="0"/>
        <pt x="208" y="408" on="1"/>
        <pt x="214" y="403" on="0"/>
        <pt x="223" y="407" on="0"/>
        <pt x="229" y="407" on="1"/>
        <pt x="244" y="410" on="0"/>
        <pt x="263" y="414" on="0"/>
        <pt x="273" y="413" on="1"/>
        <pt x="277" y="414" on="0"/>
        <pt x="279" y="421" on="0"/>
        <pt x="284" y="421" on="1"/>
        <pt x="298" y="421" on="0"/>
        <pt x="322" y="425" on="0"/>
        <pt x="336" y="432" on="1"/>
        <pt x="339" y="430" on="0"/>
        <pt x="347" y="430" on="1"/>
        <pt x="352" y="434" on="0"/>
        <pt x="363" y="436" on="0"/>
        <pt x="368" y="436" on="1"/>
        <pt x="369" y="440" on="0"/>
        <pt x="379" y="447" on="0"/>
        <pt x="391" y="455" on="0"/>
        <pt x="402" y="462" on="0"/>
        <pt x="405" y="465" on="1"/>
        <pt x="411" y="475" on="0"/>
        <pt x="414" y="478" on="0"/>
        <pt x="416" y="480" on="1"/>
        <pt x="419" y="485" on="0"/>
        <pt x="422" y="494" on="0"/>
        <pt x="425" y="499" on="1"/>
        <pt x="425" y="517" on="1"/>
        <pt x="432" y="521" on="0"/>
        <pt x="446" y="538" on="0"/>
        <pt x="446" y="546" on="1"/>
        <pt x="446" y="550" on="0"/>
        <pt x="444" y="556" on="0"/>
        <pt x="444" y="560" on="1"/>
        <pt x="444" y="565" on="0"/>
        <pt x="446" y="572" on="0"/>
        <pt x="446" y="577" on="1"/>
        <pt x="446" y="582" on="0"/>
        <pt x="432" y="593" on="0"/>
      </contour>
      <contour>
        <pt x="554" y="239" on="1"/>
        <pt x="552" y="247" on="0"/>
        <pt x="542" y="254" on="0"/>
        <pt x="537" y="259" on="1"/>
        <pt x="534" y="262" on="0"/>
        <pt x="528" y="272" on="0"/>
        <pt x="524" y="274" on="1"/>
        <pt x="520" y="277" on="0"/>
        <pt x="511" y="278" on="0"/>
        <pt x="507" y="280" on="1"/>
        <pt x="505" y="282" on="0"/>
        <pt x="497" y="289" on="0"/>
        <pt x="496" y="289" on="1"/>
        <pt x="488" y="289" on="0"/>
        <pt x="485" y="293" on="0"/>
        <pt x="483" y="293" on="1"/>
        <pt x="475" y="297" on="0"/>
        <pt x="459" y="297" on="0"/>
        <pt x="451" y="300" on="1"/>
        <pt x="446" y="302" on="0"/>
        <pt x="438" y="311" on="0"/>
        <pt x="433" y="313" on="1"/>
        <pt x="430" y="315" on="0"/>
        <pt x="423" y="314" on="0"/>
        <pt x="420" y="315" on="1"/>
        <pt x="417" y="317" on="0"/>
        <pt x="413" y="320" on="0"/>
        <pt x="409" y="322" on="1"/>
        <pt x="401" y="324" on="0"/>
        <pt x="382" y="323" on="0"/>
        <pt x="373" y="324" on="1"/>
        <pt x="370" y="329" on="0"/>
        <pt x="360" y="332" on="0"/>
        <pt x="357" y="337" on="1"/>
        <pt x="349" y="337" on="0"/>
        <pt x="330" y="340" on="0"/>
        <pt x="323" y="335" on="1"/>
        <pt x="316" y="337" on="0"/>
        <pt x="301" y="333" on="0"/>
        <pt x="286" y="329" on="0"/>
        <pt x="271" y="327" on="0"/>
        <pt x="264" y="332" on="1"/>
        <pt x="247" y="323" on="0"/>
        <pt x="225" y="330" on="1"/>
        <pt x="220" y="328" on="0"/>
        <pt x="213" y="321" on="0"/>
        <pt x="208" y="319" on="1"/>
        <pt x="193" y="315" on="0"/>
        <pt x="194" y="313" on="0"/>
        <pt x="186" y="313" on="1"/>
        <pt x="172" y="313" on="0"/>
        <pt x="165" y="306" on="1"/>
        <pt x="169" y="296" on="0"/>
        <pt x="168" y="276" on="0"/>
        <pt x="168" y="265" on="1"/>
        <pt x="168" y="257" on="0"/>
        <pt x="174" y="244" on="0"/>
        <pt x="174" y="237" on="1"/>
        <pt x="177" y="227" on="0"/>
        <pt x="177" y="214" on="0"/>
        <pt x="173" y="209" on="1"/>
        <pt x="179" y="206" on="0"/>
        <pt x="177" y="186" on="0"/>
        <pt x="175" y="181" on="1"/>
        <pt x="176" y="176" on="0"/>
        <pt x="184" y="177" on="0"/>
        <pt x="182" y="170" on="1"/>
        <pt x="184" y="164" on="0"/>
        <pt x="177" y="148" on="0"/>
        <pt x="175" y="142" on="1"/>
        <pt x="177" y="137" on="0"/>
        <pt x="179" y="129" on="0"/>
        <pt x="180" y="125" on="1"/>
        <pt x="174" y="124" on="0"/>
        <pt x="171" y="114" on="0"/>
        <pt x="169" y="109" on="1"/>
        <pt x="174" y="99" on="0"/>
        <pt x="182" y="84" on="0"/>
        <pt x="182" y="73" on="1"/>
        <pt x="186" y="73" on="0"/>
        <pt x="193" y="70" on="0"/>
        <pt x="197" y="70" on="1"/>
        <pt x="206" y="73" on="0"/>
        <pt x="213" y="66" on="0"/>
        <pt x="218" y="66" on="1"/>
        <pt x="228" y="68" on="0"/>
        <pt x="235" y="65" on="0"/>
        <pt x="238" y="64" on="1"/>
        <pt x="245" y="62" on="0"/>
        <pt x="258" y="62" on="0"/>
        <pt x="264" y="62" on="1"/>
        <pt x="268" y="62" on="0"/>
        <pt x="274" y="66" on="0"/>
        <pt x="277" y="66" on="1"/>
        <pt x="284" y="64" on="0"/>
        <pt x="286" y="66" on="0"/>
        <pt x="288" y="66" on="1"/>
        <pt x="299" y="66" on="0"/>
        <pt x="310" y="64" on="0"/>
        <pt x="317" y="65" on="0"/>
        <pt x="327" y="69" on="0"/>
        <pt x="338" y="75" on="1"/>
        <pt x="343" y="68" on="0"/>
        <pt x="356" y="70" on="0"/>
        <pt x="362" y="66" on="1"/>
        <pt x="366" y="68" on="0"/>
        <pt x="382" y="75" on="0"/>
        <pt x="387" y="75" on="1"/>
        <pt x="397" y="73" on="0"/>
        <pt x="403" y="76" on="0"/>
        <pt x="407" y="77" on="1"/>
        <pt x="415" y="79" on="0"/>
        <pt x="434" y="77" on="0"/>
        <pt x="442" y="79" on="1"/>
        <pt x="447" y="81" on="0"/>
        <pt x="444" y="83" on="0"/>
        <pt x="453" y="83" on="1"/>
        <pt x="457" y="83" on="0"/>
        <pt x="461" y="90" on="0"/>
        <pt x="464" y="92" on="1"/>
        <pt x="474" y="92" on="0"/>
        <pt x="480" y="94" on="0"/>
        <pt x="483" y="96" on="1"/>
        <pt x="490" y="95" on="0"/>
        <pt x="506" y="101" on="0"/>
        <pt x="520" y="108" on="0"/>
        <pt x="532" y="114" on="0"/>
        <pt x="535" y="114" on="1"/>
        <pt x="540" y="121" on="0"/>
        <pt x="551" y="132" on="0"/>
        <pt x="559" y="135" on="1"/>
        <pt x="558" y="143" on="0"/>
        <pt x="570" y="151" on="0"/>
        <pt x="572" y="161" on="1"/>
        <pt x="578" y="170" on="0"/>
        <pt x="580" y="187" on="0"/>
        <pt x="580" y="192" on="1"/>
        <pt x="580" y="194" on="0"/>
        <pt x="577" y="205" on="0"/>
        <pt x="572" y="217" on="0"/>
        <pt x="568" y="227" on="0"/>
        <pt x="567" y="228" on="1"/>
        <pt x="565" y="232" on="0"/>
        <pt x="557" y="236" on="0"/>
      </contour>
    </TTGlyph>
    <TTGlyph name="C" xMin="31" yMin="-6" xMax="597" yMax="735">
      <contour>
        <pt x="514" y="150" on="1"/>
        <pt x="519" y="157" on="0"/>
        <pt x="517" y="161" on="0"/>
        <pt x="517" y="162" on="1"/>
        <pt x="529" y="162" on="1"/>
        <pt x="531" y="166" on="0"/>
        <pt x="531" y="169" on="0"/>
        <pt x="531" y="170" on="0"/>
        <pt x="534" y="172" on="0"/>
        <pt x="539" y="174" on="1"/>
        <pt x="541" y="177" on="0"/>
        <pt x="547" y="184" on="0"/>
        <pt x="549" y="187" on="1"/>
        <pt x="559" y="191" on="0"/>
        <pt x="579" y="189" on="0"/>
        <pt x="589" y="187" on="1"/>
        <pt x="596" y="168" on="0"/>
        <pt x="597" y="151" on="0"/>
        <pt x="593" y="140" on="0"/>
        <pt x="586" y="128" on="0"/>
        <pt x="586" y="115" on="1"/>
        <pt x="586" y="107" on="0"/>
        <pt x="585" y="104" on="1"/>
        <pt x="579" y="99" on="0"/>
        <pt x="571" y="94" on="0"/>
        <pt x="570" y="85" on="1"/>
        <pt x="564" y="85" on="0"/>
        <pt x="558" y="81" on="0"/>
        <pt x="553" y="75" on="0"/>
        <pt x="547" y="70" on="0"/>
        <pt x="541" y="70" on="1"/>
        <pt x="536" y="68" on="0"/>
        <pt x="531" y="59" on="0"/>
        <pt x="529" y="55" on="1"/>
        <pt x="524" y="55" on="0"/>
        <pt x="516" y="50" on="0"/>
        <pt x="511" y="49" on="1"/>
        <pt x="504" y="42" on="0"/>
        <pt x="500" y="40" on="0"/>
        <pt x="498" y="40" on="1"/>
        <pt x="492" y="38" on="0"/>
        <pt x="487" y="27" on="0"/>
        <pt x="481" y="25" on="1"/>
        <pt x="469" y="21" on="0"/>
        <pt x="440" y="21" on="0"/>
        <pt x="432" y="10" on="1"/>
        <pt x="416" y="8" on="0"/>
        <pt x="387" y="-1" on="0"/>
        <pt x="372" y="-6" on="1"/>
        <pt x="365" y="0" on="0"/>
        <pt x="342" y="-2" on="0"/>
        <pt x="334" y="-2" on="1"/>
        <pt x="327" y="-2" on="0"/>
        <pt x="322" y="3" on="1"/>
        <pt x="318" y="2" on="0"/>
        <pt x="304" y="-1" on="0"/>
        <pt x="290" y="-1" on="0"/>
        <pt x="278" y="4" on="0"/>
        <pt x="276" y="10" on="1"/>
        <pt x="274" y="9" on="0"/>
        <pt x="268" y="7" on="0"/>
        <pt x="266" y="6" on="1"/>
        <pt x="244" y="11" on="0"/>
        <pt x="203" y="23" on="0"/>
        <pt x="183" y="34" on="1"/>
        <pt x="165" y="34" on="1"/>
        <pt x="162" y="40" on="0"/>
        <pt x="149" y="44" on="0"/>
        <pt x="147" y="51" on="1"/>
        <pt x="143" y="53" on="0"/>
        <pt x="136" y="55" on="0"/>
        <pt x="131" y="56" on="1"/>
        <pt x="122" y="64" on="0"/>
        <pt x="117" y="73" on="0"/>
        <pt x="103" y="72" on="1"/>
        <pt x="105" y="81" on="0"/>
        <pt x="101" y="84" on="0"/>
        <pt x="99" y="86" on="1"/>
        <pt x="93" y="91" on="0"/>
        <pt x="95" y="99" on="0"/>
        <pt x="87" y="101" on="1"/>
        <pt x="87" y="104" on="0"/>
        <pt x="85" y="108" on="0"/>
        <pt x="85" y="111" on="1"/>
        <pt x="83" y="113" on="0"/>
        <pt x="76" y="117" on="0"/>
        <pt x="74" y="119" on="1"/>
        <pt x="72" y="130" on="0"/>
        <pt x="69" y="133" on="1"/>
        <pt x="66" y="145" on="0"/>
        <pt x="63" y="150" on="0"/>
        <pt x="63" y="154" on="1"/>
        <pt x="61" y="157" on="0"/>
        <pt x="59" y="162" on="0"/>
        <pt x="55" y="164" on="1"/>
        <pt x="53" y="176" on="0"/>
        <pt x="49" y="204" on="0"/>
        <pt x="42" y="214" on="1"/>
        <pt x="44" y="228" on="0"/>
        <pt x="35" y="257" on="0"/>
        <pt x="35" y="271" on="1"/>
        <pt x="35" y="275" on="0"/>
        <pt x="37" y="281" on="0"/>
        <pt x="37" y="285" on="1"/>
        <pt x="37" y="294" on="0"/>
        <pt x="31" y="312" on="0"/>
        <pt x="31" y="320" on="1"/>
        <pt x="31" y="329" on="0"/>
        <pt x="39" y="345" on="0"/>
        <pt x="31" y="354" on="1"/>
        <pt x="35" y="365" on="0"/>
        <pt x="31" y="369" on="0"/>
        <pt x="31" y="372" on="1"/>
        <pt x="31" y="377" on="0"/>
        <pt x="35" y="384" on="0"/>
        <pt x="35" y="389" on="1"/>
        <pt x="33" y="409" on="0"/>
        <pt x="41" y="429" on="0"/>
        <pt x="39" y="442" on="1"/>
        <pt x="40" y="443" on="0"/>
        <pt x="44" y="450" on="0"/>
        <pt x="49" y="459" on="0"/>
        <pt x="52" y="468" on="0"/>
        <pt x="53" y="470" on="1"/>
        <pt x="53" y="472" on="0"/>
        <pt x="50" y="477" on="0"/>
        <pt x="50" y="480" on="1"/>
        <pt x="50" y="482" on="0"/>
        <pt x="54" y="486" on="0"/>
        <pt x="55" y="489" on="1"/>
        <pt x="56" y="492" on="0"/>
        <pt x="53" y="502" on="0"/>
        <pt x="59" y="503" on="1"/>
        <pt x="58" y="517" on="0"/>
        <pt x="71" y="541" on="0"/>
        <pt x="67" y="554" on="1"/>
        <pt x="73" y="558" on="0"/>
        <pt x="79" y="566" on="0"/>
        <pt x="78" y="574" on="1"/>
        <pt x="86" y="578" on="0"/>
        <pt x="94" y="593" on="0"/>
        <pt x="96" y="602" on="1"/>
        <pt x="107" y="607" on="0"/>
        <pt x="112" y="627" on="0"/>
        <pt x="123" y="632" on="1"/>
        <pt x="128" y="641" on="0"/>
        <pt x="133" y="645" on="0"/>
        <pt x="135" y="649" on="1"/>
        <pt x="140" y="656" on="0"/>
        <pt x="155" y="661" on="0"/>
        <pt x="158" y="666" on="1"/>
        <pt x="173" y="678" on="0"/>
        <pt x="179" y="692" on="0"/>
        <pt x="189" y="696" on="1"/>
        <pt x="197" y="699" on="0"/>
        <pt x="203" y="703" on="0"/>
        <pt x="208" y="710" on="1"/>
        <pt x="222" y="710" on="1"/>
        <pt x="229" y="713" on="0"/>
        <pt x="237" y="719" on="1"/>
        <pt x="243" y="718" on="0"/>
        <pt x="253" y="720" on="0"/>
        <pt x="258" y="725" on="1"/>
        <pt x="272" y="725" on="0"/>
        <pt x="303" y="735" on="0"/>
        <pt x="317" y="728" on="1"/>
        <pt x="323" y="731" on="0"/>
        <pt x="340" y="731" on="0"/>
        <pt x="358" y="729" on="0"/>
        <pt x="376" y="728" on="0"/>
        <pt x="384" y="730" on="1"/>
        <pt x="390" y="725" on="0"/>
        <pt x="407" y="723" on="0"/>
        <pt x="415" y="726" on="1"/>
        <pt x="418" y="719" on="0"/>
        <pt x="430" y="720" on="0"/>
        <pt x="434" y="715" on="1"/>
        <pt x="439" y="715" on="0"/>
        <pt x="445" y="713" on="0"/>
        <pt x="449" y="712" on="1"/>
        <pt x="451" y="709" on="0"/>
        <pt x="456" y="702" on="0"/>
        <pt x="458" y="698" on="1"/>
        <pt x="469" y="697" on="0"/>
        <pt x="487" y="683" on="0"/>
        <pt x="489" y="670" on="1"/>
        <pt x="492" y="668" on="0"/>
        <pt x="499" y="663" on="0"/>
        <pt x="500" y="659" on="1"/>
        <pt x="507" y="659" on="0"/>
        <pt x="513" y="653" on="0"/>
        <pt x="516" y="648" on="1"/>
        <pt x="525" y="646" on="0"/>
        <pt x="538" y="637" on="0"/>
        <pt x="545" y="631" on="1"/>
        <pt x="545" y="625" on="0"/>
        <pt x="548" y="612" on="0"/>
        <pt x="540" y="609" on="1"/>
        <pt x="541" y="599" on="1"/>
        <pt x="539" y="596" on="0"/>
        <pt x="536" y="591" on="0"/>
        <pt x="534" y="588" on="1"/>
        <pt x="529" y="580" on="0"/>
        <pt x="523" y="564" on="0"/>
        <pt x="511" y="564" on="1"/>
        <pt x="506" y="564" on="0"/>
        <pt x="497" y="567" on="0"/>
        <pt x="492" y="567" on="1"/>
        <pt x="485" y="573" on="0"/>
        <pt x="482" y="583" on="0"/>
        <pt x="471" y="582" on="1"/>
        <pt x="471" y="593" on="0"/>
        <pt x="463" y="600" on="0"/>
        <pt x="461" y="609" on="1"/>
        <pt x="454" y="611" on="0"/>
        <pt x="447" y="621" on="0"/>
        <pt x="442" y="626" on="1"/>
        <pt x="433" y="628" on="0"/>
        <pt x="423" y="636" on="0"/>
        <pt x="412" y="636" on="1"/>
        <pt x="395" y="645" on="0"/>
        <pt x="369" y="647" on="0"/>
        <pt x="355" y="649" on="1"/>
        <pt x="349" y="648" on="0"/>
        <pt x="344" y="642" on="0"/>
        <pt x="337" y="647" on="1"/>
        <pt x="335" y="647" on="0"/>
        <pt x="328" y="641" on="0"/>
        <pt x="324" y="648" on="1"/>
        <pt x="313" y="643" on="0"/>
        <pt x="304" y="649" on="1"/>
        <pt x="302" y="647" on="0"/>
        <pt x="299" y="642" on="0"/>
        <pt x="293" y="643" on="1"/>
        <pt x="279" y="644" on="0"/>
        <pt x="251" y="640" on="0"/>
        <pt x="243" y="626" on="1"/>
        <pt x="235" y="624" on="0"/>
        <pt x="223" y="611" on="0"/>
        <pt x="215" y="608" on="1"/>
        <pt x="213" y="607" on="0"/>
        <pt x="210" y="602" on="0"/>
        <pt x="209" y="600" on="1"/>
        <pt x="199" y="600" on="1"/>
        <pt x="194" y="596" on="0"/>
        <pt x="191" y="583" on="0"/>
        <pt x="184" y="579" on="1"/>
        <pt x="185" y="571" on="0"/>
        <pt x="174" y="561" on="0"/>
        <pt x="166" y="559" on="1"/>
        <pt x="164" y="554" on="0"/>
        <pt x="159" y="543" on="0"/>
        <pt x="154" y="540" on="1"/>
        <pt x="158" y="535" on="0"/>
        <pt x="154" y="530" on="0"/>
        <pt x="149" y="528" on="1"/>
        <pt x="149" y="517" on="0"/>
        <pt x="147" y="512" on="0"/>
        <pt x="140" y="503" on="1"/>
        <pt x="142" y="500" on="0"/>
        <pt x="140" y="493" on="0"/>
        <pt x="138" y="490" on="1"/>
        <pt x="140" y="485" on="0"/>
        <pt x="136" y="484" on="0"/>
        <pt x="143" y="480" on="1"/>
        <pt x="135" y="472" on="0"/>
        <pt x="133" y="449" on="0"/>
        <pt x="131" y="438" on="1"/>
        <pt x="130" y="431" on="0"/>
        <pt x="127" y="423" on="0"/>
        <pt x="124" y="417" on="0"/>
        <pt x="123" y="408" on="0"/>
        <pt x="124" y="399" on="1"/>
        <pt x="121" y="397" on="0"/>
        <pt x="120" y="392" on="0"/>
        <pt x="118" y="389" on="1"/>
        <pt x="120" y="381" on="0"/>
        <pt x="118" y="367" on="0"/>
        <pt x="118" y="359" on="1"/>
        <pt x="118" y="349" on="0"/>
        <pt x="120" y="329" on="0"/>
        <pt x="120" y="319" on="1"/>
        <pt x="120" y="316" on="0"/>
        <pt x="122" y="311" on="0"/>
        <pt x="122" y="308" on="1"/>
        <pt x="117" y="295" on="0"/>
        <pt x="120" y="284" on="0"/>
        <pt x="121" y="280" on="1"/>
        <pt x="123" y="272" on="0"/>
        <pt x="123" y="257" on="0"/>
        <pt x="125" y="249" on="1"/>
        <pt x="126" y="244" on="0"/>
        <pt x="131" y="239" on="1"/>
        <pt x="126" y="231" on="0"/>
        <pt x="133" y="221" on="0"/>
        <pt x="133" y="213" on="1"/>
        <pt x="135" y="208" on="0"/>
        <pt x="135" y="202" on="0"/>
        <pt x="134" y="200" on="1"/>
        <pt x="140" y="192" on="0"/>
        <pt x="146" y="186" on="0"/>
        <pt x="148" y="176" on="1"/>
        <pt x="154" y="167" on="0"/>
        <pt x="154" y="159" on="0"/>
        <pt x="161" y="157" on="1"/>
        <pt x="161" y="146" on="0"/>
        <pt x="165" y="138" on="0"/>
        <pt x="173" y="133" on="0"/>
        <pt x="182" y="128" on="0"/>
        <pt x="185" y="121" on="1"/>
        <pt x="201" y="121" on="0"/>
        <pt x="216" y="107" on="0"/>
        <pt x="230" y="106" on="1"/>
        <pt x="233" y="101" on="0"/>
        <pt x="242" y="97" on="0"/>
        <pt x="245" y="93" on="1"/>
        <pt x="253" y="91" on="0"/>
        <pt x="268" y="92" on="0"/>
        <pt x="273" y="86" on="1"/>
        <pt x="276" y="86" on="0"/>
        <pt x="278" y="90" on="0"/>
        <pt x="285" y="88" on="1"/>
        <pt x="285" y="81" on="0"/>
        <pt x="307" y="84" on="0"/>
        <pt x="309" y="85" on="1"/>
        <pt x="322" y="78" on="0"/>
        <pt x="346" y="73" on="0"/>
        <pt x="358" y="73" on="1"/>
        <pt x="366" y="73" on="0"/>
        <pt x="383" y="77" on="0"/>
        <pt x="392" y="77" on="1"/>
        <pt x="404" y="83" on="0"/>
        <pt x="416" y="84" on="0"/>
        <pt x="421" y="86" on="1"/>
        <pt x="430" y="89" on="0"/>
        <pt x="446" y="99" on="0"/>
        <pt x="455" y="101" on="1"/>
        <pt x="458" y="105" on="0"/>
        <pt x="468" y="110" on="0"/>
        <pt x="477" y="116" on="0"/>
        <pt x="484" y="122" on="0"/>
        <pt x="484" y="127" on="1"/>
        <pt x="489" y="128" on="0"/>
        <pt x="496" y="134" on="0"/>
        <pt x="502" y="142" on="0"/>
        <pt x="509" y="149" on="0"/>
      </contour>
    </TTGlyph>
    <TTGlyph name="Ccedilla" xMin="30" yMin="-322" xMax="597" yMax="735">
      <contour>
        <pt x="489" y="-200" on="1"/>
        <pt x="484" y="-204" on="0"/>
        <pt x="479" y="-220" on="0"/>
        <pt x="477" y="-239" on="0"/>
        <pt x="476" y="-258" on="0"/>
        <pt x="475" y="-264" on="1"/>
        <pt x="467" y="-261" on="0"/>
        <pt x="466" y="-266" on="0"/>
        <pt x="462" y="-270" on="1"/>
        <pt x="446" y="-278" on="0"/>
        <pt x="437" y="-292" on="0"/>
        <pt x="429" y="-297" on="1"/>
        <pt x="426" y="-299" on="0"/>
        <pt x="420" y="-299" on="0"/>
        <pt x="418" y="-300" on="1"/>
        <pt x="412" y="-303" on="0"/>
        <pt x="405" y="-312" on="0"/>
        <pt x="397" y="-310" on="1"/>
        <pt x="393" y="-312" on="0"/>
        <pt x="384" y="-315" on="0"/>
        <pt x="379" y="-317" on="1"/>
        <pt x="375" y="-320" on="0"/>
        <pt x="362" y="-319" on="0"/>
        <pt x="361" y="-322" on="1"/>
        <pt x="303" y="-317" on="1"/>
        <pt x="303" y="-310" on="0"/>
        <pt x="294" y="-304" on="0"/>
        <pt x="289" y="-300" on="1"/>
        <pt x="288" y="-296" on="0"/>
        <pt x="286" y="-287" on="0"/>
        <pt x="282" y="-284" on="1"/>
        <pt x="283" y="-279" on="0"/>
        <pt x="290" y="-262" on="0"/>
        <pt x="300" y="-246" on="0"/>
        <pt x="313" y="-235" on="0"/>
        <pt x="319" y="-235" on="1"/>
        <pt x="325" y="-237" on="0"/>
        <pt x="338" y="-238" on="0"/>
        <pt x="336" y="-243" on="1"/>
        <pt x="342" y="-242" on="0"/>
        <pt x="350" y="-237" on="0"/>
        <pt x="358" y="-231" on="0"/>
        <pt x="368" y="-228" on="0"/>
        <pt x="376" y="-229" on="1"/>
        <pt x="382" y="-228" on="0"/>
        <pt x="389" y="-215" on="0"/>
        <pt x="394" y="-198" on="0"/>
        <pt x="396" y="-182" on="0"/>
        <pt x="396" y="-177" on="1"/>
        <pt x="396" y="-172" on="0"/>
        <pt x="387" y="-168" on="0"/>
        <pt x="384" y="-167" on="1"/>
        <pt x="383" y="-162" on="0"/>
        <pt x="381" y="-154" on="1"/>
        <pt x="372" y="-153" on="0"/>
        <pt x="360" y="-145" on="0"/>
        <pt x="351" y="-145" on="1"/>
        <pt x="331" y="-140" on="0"/>
        <pt x="296" y="-135" on="0"/>
        <pt x="278" y="-132" on="1"/>
        <pt x="278" y="-127" on="0"/>
        <pt x="270" y="-124" on="0"/>
        <pt x="268" y="-122" on="1"/>
        <pt x="263" y="-117" on="0"/>
        <pt x="258" y="-103" on="0"/>
        <pt x="250" y="-101" on="1"/>
        <pt x="253" y="-88" on="0"/>
        <pt x="255" y="-83" on="0"/>
        <pt x="257" y="-78" on="1"/>
        <pt x="261" y="-70" on="0"/>
        <pt x="260" y="-70" on="0"/>
        <pt x="259" y="-68" on="1"/>
        <pt x="263" y="-59" on="0"/>
        <pt x="264" y="-43" on="0"/>
        <pt x="265" y="-35" on="1"/>
        <pt x="266" y="-28" on="0"/>
        <pt x="264" y="-15" on="0"/>
        <pt x="265" y="-9" on="1"/>
        <pt x="266" y="6" on="1"/>
        <pt x="244" y="11" on="0"/>
        <pt x="203" y="23" on="0"/>
        <pt x="183" y="34" on="1"/>
        <pt x="165" y="34" on="1"/>
        <pt x="162" y="40" on="0"/>
        <pt x="149" y="44" on="0"/>
        <pt x="147" y="51" on="1"/>
        <pt x="143" y="53" on="0"/>
        <pt x="136" y="55" on="0"/>
        <pt x="131" y="56" on="1"/>
        <pt x="122" y="64" on="0"/>
        <pt x="117" y="73" on="0"/>
        <pt x="103" y="72" on="1"/>
        <pt x="105" y="81" on="0"/>
        <pt x="101" y="84" on="0"/>
        <pt x="99" y="86" on="1"/>
        <pt x="93" y="91" on="0"/>
        <pt x="95" y="99" on="0"/>
        <pt x="87" y="101" on="1"/>
        <pt x="87" y="104" on="0"/>
        <pt x="85" y="108" on="0"/>
        <pt x="85" y="111" on="1"/>
        <pt x="83" y="113" on="0"/>
        <pt x="76" y="117" on="0"/>
        <pt x="74" y="119" on="1"/>
        <pt x="72" y="130" on="0"/>
        <pt x="69" y="133" on="1"/>
        <pt x="66" y="145" on="0"/>
        <pt x="63" y="150" on="0"/>
        <pt x="63" y="154" on="1"/>
        <pt x="61" y="157" on="0"/>
        <pt x="59" y="162" on="0"/>
        <pt x="55" y="164" on="1"/>
        <pt x="53" y="176" on="0"/>
        <pt x="49" y="204" on="0"/>
        <pt x="42" y="214" on="1"/>
        <pt x="44" y="228" on="0"/>
        <pt x="35" y="257" on="0"/>
        <pt x="35" y="271" on="1"/>
        <pt x="35" y="275" on="0"/>
        <pt x="37" y="281" on="0"/>
        <pt x="37" y="285" on="1"/>
        <pt x="37" y="294" on="0"/>
        <pt x="30" y="312" on="0"/>
        <pt x="31" y="320" on="1"/>
        <pt x="32" y="329" on="0"/>
        <pt x="39" y="345" on="0"/>
        <pt x="31" y="354" on="1"/>
        <pt x="35" y="365" on="0"/>
        <pt x="31" y="369" on="0"/>
        <pt x="31" y="372" on="1"/>
        <pt x="31" y="377" on="0"/>
        <pt x="35" y="384" on="0"/>
        <pt x="35" y="389" on="1"/>
        <pt x="33" y="409" on="0"/>
        <pt x="41" y="429" on="0"/>
        <pt x="39" y="442" on="1"/>
        <pt x="40" y="443" on="0"/>
        <pt x="44" y="450" on="0"/>
        <pt x="49" y="459" on="0"/>
        <pt x="52" y="468" on="0"/>
        <pt x="53" y="470" on="1"/>
        <pt x="53" y="472" on="0"/>
        <pt x="50" y="477" on="0"/>
        <pt x="50" y="480" on="1"/>
        <pt x="50" y="482" on="0"/>
        <pt x="54" y="486" on="0"/>
        <pt x="55" y="489" on="1"/>
        <pt x="56" y="492" on="0"/>
        <pt x="53" y="502" on="0"/>
        <pt x="59" y="503" on="1"/>
        <pt x="58" y="517" on="0"/>
        <pt x="71" y="541" on="0"/>
        <pt x="67" y="554" on="1"/>
        <pt x="73" y="558" on="0"/>
        <pt x="79" y="566" on="0"/>
        <pt x="78" y="574" on="1"/>
        <pt x="86" y="578" on="0"/>
        <pt x="94" y="593" on="0"/>
        <pt x="96" y="602" on="1"/>
        <pt x="107" y="607" on="0"/>
        <pt x="112" y="627" on="0"/>
        <pt x="123" y="632" on="1"/>
        <pt x="128" y="641" on="0"/>
        <pt x="133" y="645" on="0"/>
        <pt x="135" y="649" on="1"/>
        <pt x="140" y="656" on="0"/>
        <pt x="155" y="661" on="0"/>
        <pt x="158" y="666" on="1"/>
        <pt x="173" y="678" on="0"/>
        <pt x="179" y="692" on="0"/>
        <pt x="189" y="696" on="1"/>
        <pt x="197" y="699" on="0"/>
        <pt x="203" y="703" on="0"/>
        <pt x="208" y="710" on="1"/>
        <pt x="222" y="710" on="1"/>
        <pt x="229" y="713" on="0"/>
        <pt x="237" y="719" on="1"/>
        <pt x="243" y="718" on="0"/>
        <pt x="253" y="720" on="0"/>
        <pt x="258" y="725" on="1"/>
        <pt x="272" y="725" on="0"/>
        <pt x="303" y="735" on="0"/>
        <pt x="317" y="728" on="1"/>
        <pt x="323" y="731" on="0"/>
        <pt x="340" y="731" on="0"/>
        <pt x="358" y="729" on="0"/>
        <pt x="376" y="728" on="0"/>
        <pt x="384" y="730" on="1"/>
        <pt x="390" y="725" on="0"/>
        <pt x="407" y="723" on="0"/>
        <pt x="415" y="726" on="1"/>
        <pt x="418" y="719" on="0"/>
        <pt x="430" y="720" on="0"/>
        <pt x="434" y="715" on="1"/>
        <pt x="439" y="715" on="0"/>
        <pt x="445" y="713" on="0"/>
        <pt x="449" y="712" on="1"/>
        <pt x="451" y="709" on="0"/>
        <pt x="456" y="702" on="0"/>
        <pt x="458" y="698" on="1"/>
        <pt x="469" y="697" on="0"/>
        <pt x="487" y="683" on="0"/>
        <pt x="489" y="670" on="1"/>
        <pt x="492" y="668" on="0"/>
        <pt x="499" y="663" on="0"/>
        <pt x="500" y="659" on="1"/>
        <pt x="507" y="659" on="0"/>
        <pt x="513" y="653" on="0"/>
        <pt x="516" y="648" on="1"/>
        <pt x="525" y="646" on="0"/>
        <pt x="538" y="637" on="0"/>
        <pt x="545" y="631" on="1"/>
        <pt x="545" y="625" on="0"/>
        <pt x="548" y="612" on="0"/>
        <pt x="540" y="609" on="1"/>
        <pt x="541" y="599" on="1"/>
        <pt x="539" y="596" on="0"/>
        <pt x="536" y="591" on="0"/>
        <pt x="534" y="588" on="1"/>
        <pt x="529" y="580" on="0"/>
        <pt x="523" y="564" on="0"/>
        <pt x="511" y="564" on="1"/>
        <pt x="506" y="564" on="0"/>
        <pt x="497" y="567" on="0"/>
        <pt x="492" y="567" on="1"/>
        <pt x="488" y="570" on="0"/>
        <pt x="485" y="576" on="0"/>
        <pt x="482" y="580" on="0"/>
        <pt x="477" y="582" on="0"/>
        <pt x="471" y="582" on="1"/>
        <pt x="471" y="593" on="0"/>
        <pt x="463" y="600" on="0"/>
        <pt x="461" y="609" on="1"/>
        <pt x="454" y="611" on="0"/>
        <pt x="447" y="621" on="0"/>
        <pt x="442" y="626" on="1"/>
        <pt x="433" y="628" on="0"/>
        <pt x="423" y="636" on="0"/>
        <pt x="412" y="636" on="1"/>
        <pt x="395" y="645" on="0"/>
        <pt x="369" y="647" on="0"/>
        <pt x="355" y="649" on="1"/>
        <pt x="349" y="648" on="0"/>
        <pt x="344" y="642" on="0"/>
        <pt x="337" y="647" on="1"/>
        <pt x="335" y="647" on="0"/>
        <pt x="328" y="641" on="0"/>
        <pt x="324" y="648" on="1"/>
        <pt x="313" y="643" on="0"/>
        <pt x="304" y="649" on="1"/>
        <pt x="302" y="647" on="0"/>
        <pt x="299" y="642" on="0"/>
        <pt x="293" y="643" on="1"/>
        <pt x="279" y="644" on="0"/>
        <pt x="251" y="640" on="0"/>
        <pt x="243" y="626" on="1"/>
        <pt x="235" y="624" on="0"/>
        <pt x="223" y="611" on="0"/>
        <pt x="215" y="608" on="1"/>
        <pt x="213" y="607" on="0"/>
        <pt x="210" y="602" on="0"/>
        <pt x="209" y="600" on="1"/>
        <pt x="199" y="600" on="1"/>
        <pt x="194" y="596" on="0"/>
        <pt x="191" y="583" on="0"/>
        <pt x="184" y="579" on="1"/>
        <pt x="185" y="571" on="0"/>
        <pt x="174" y="561" on="0"/>
        <pt x="166" y="559" on="1"/>
        <pt x="164" y="554" on="0"/>
        <pt x="159" y="543" on="0"/>
        <pt x="154" y="540" on="1"/>
        <pt x="158" y="535" on="0"/>
        <pt x="154" y="530" on="0"/>
        <pt x="149" y="528" on="1"/>
        <pt x="149" y="517" on="0"/>
        <pt x="147" y="512" on="0"/>
        <pt x="140" y="503" on="1"/>
        <pt x="142" y="500" on="0"/>
        <pt x="140" y="493" on="0"/>
        <pt x="138" y="490" on="1"/>
        <pt x="140" y="485" on="0"/>
        <pt x="136" y="484" on="0"/>
        <pt x="143" y="480" on="1"/>
        <pt x="135" y="472" on="0"/>
        <pt x="133" y="449" on="0"/>
        <pt x="131" y="438" on="1"/>
        <pt x="130" y="431" on="0"/>
        <pt x="127" y="423" on="0"/>
        <pt x="124" y="417" on="0"/>
        <pt x="123" y="408" on="0"/>
        <pt x="124" y="399" on="1"/>
        <pt x="121" y="397" on="0"/>
        <pt x="120" y="392" on="0"/>
        <pt x="118" y="389" on="1"/>
        <pt x="120" y="381" on="0"/>
        <pt x="118" y="367" on="0"/>
        <pt x="118" y="359" on="1"/>
        <pt x="118" y="349" on="0"/>
        <pt x="120" y="329" on="0"/>
        <pt x="120" y="319" on="1"/>
        <pt x="120" y="316" on="0"/>
        <pt x="122" y="311" on="0"/>
        <pt x="122" y="308" on="1"/>
        <pt x="117" y="295" on="0"/>
        <pt x="120" y="284" on="0"/>
        <pt x="121" y="280" on="1"/>
        <pt x="123" y="272" on="0"/>
        <pt x="123" y="257" on="0"/>
        <pt x="125" y="249" on="1"/>
        <pt x="126" y="244" on="0"/>
        <pt x="131" y="239" on="1"/>
        <pt x="126" y="231" on="0"/>
        <pt x="133" y="221" on="0"/>
        <pt x="133" y="213" on="1"/>
        <pt x="135" y="208" on="0"/>
        <pt x="135" y="202" on="0"/>
        <pt x="134" y="200" on="1"/>
        <pt x="140" y="192" on="0"/>
        <pt x="146" y="186" on="0"/>
        <pt x="148" y="176" on="1"/>
        <pt x="154" y="167" on="0"/>
        <pt x="154" y="159" on="0"/>
        <pt x="161" y="157" on="1"/>
        <pt x="161" y="146" on="0"/>
        <pt x="165" y="138" on="0"/>
        <pt x="173" y="133" on="0"/>
        <pt x="182" y="128" on="0"/>
        <pt x="185" y="121" on="1"/>
        <pt x="201" y="121" on="0"/>
        <pt x="216" y="107" on="0"/>
        <pt x="230" y="106" on="1"/>
        <pt x="233" y="101" on="0"/>
        <pt x="242" y="97" on="0"/>
        <pt x="245" y="93" on="1"/>
        <pt x="253" y="91" on="0"/>
        <pt x="268" y="92" on="0"/>
        <pt x="273" y="86" on="1"/>
        <pt x="276" y="86" on="0"/>
        <pt x="278" y="90" on="0"/>
        <pt x="285" y="88" on="1"/>
        <pt x="285" y="85" on="0"/>
        <pt x="290" y="83" on="0"/>
        <pt x="298" y="83" on="0"/>
        <pt x="307" y="85" on="0"/>
        <pt x="309" y="85" on="1"/>
        <pt x="322" y="78" on="0"/>
        <pt x="346" y="73" on="0"/>
        <pt x="358" y="73" on="1"/>
        <pt x="366" y="73" on="0"/>
        <pt x="383" y="77" on="0"/>
        <pt x="392" y="77" on="1"/>
        <pt x="404" y="83" on="0"/>
        <pt x="416" y="84" on="0"/>
        <pt x="421" y="86" on="1"/>
        <pt x="430" y="89" on="0"/>
        <pt x="446" y="99" on="0"/>
        <pt x="455" y="101" on="1"/>
        <pt x="458" y="105" on="0"/>
        <pt x="468" y="110" on="0"/>
        <pt x="477" y="116" on="0"/>
        <pt x="484" y="122" on="0"/>
        <pt x="484" y="127" on="1"/>
        <pt x="489" y="128" on="0"/>
        <pt x="496" y="134" on="0"/>
        <pt x="502" y="142" on="0"/>
        <pt x="509" y="149" on="0"/>
        <pt x="514" y="150" on="1"/>
        <pt x="519" y="157" on="0"/>
        <pt x="517" y="161" on="0"/>
        <pt x="517" y="162" on="1"/>
        <pt x="529" y="162" on="1"/>
        <pt x="531" y="166" on="0"/>
        <pt x="531" y="169" on="0"/>
        <pt x="531" y="170" on="0"/>
        <pt x="534" y="172" on="0"/>
        <pt x="539" y="174" on="1"/>
        <pt x="541" y="177" on="0"/>
        <pt x="547" y="184" on="0"/>
        <pt x="549" y="187" on="1"/>
        <pt x="559" y="191" on="0"/>
        <pt x="579" y="189" on="0"/>
        <pt x="589" y="187" on="1"/>
        <pt x="596" y="168" on="0"/>
        <pt x="597" y="151" on="0"/>
        <pt x="593" y="140" on="0"/>
        <pt x="586" y="128" on="0"/>
        <pt x="586" y="115" on="1"/>
        <pt x="586" y="107" on="0"/>
        <pt x="585" y="104" on="1"/>
        <pt x="579" y="99" on="0"/>
        <pt x="571" y="94" on="0"/>
        <pt x="570" y="85" on="1"/>
        <pt x="564" y="85" on="0"/>
        <pt x="558" y="81" on="0"/>
        <pt x="553" y="75" on="0"/>
        <pt x="547" y="70" on="0"/>
        <pt x="541" y="70" on="1"/>
        <pt x="536" y="68" on="0"/>
        <pt x="531" y="59" on="0"/>
        <pt x="529" y="55" on="1"/>
        <pt x="524" y="55" on="0"/>
        <pt x="516" y="50" on="0"/>
        <pt x="511" y="49" on="1"/>
        <pt x="504" y="42" on="0"/>
        <pt x="500" y="40" on="0"/>
        <pt x="498" y="40" on="1"/>
        <pt x="492" y="38" on="0"/>
        <pt x="487" y="27" on="0"/>
        <pt x="481" y="25" on="1"/>
        <pt x="469" y="21" on="0"/>
        <pt x="440" y="21" on="0"/>
        <pt x="432" y="10" on="1"/>
        <pt x="416" y="8" on="0"/>
        <pt x="387" y="-1" on="0"/>
        <pt x="372" y="-6" on="1"/>
        <pt x="364" y="0" on="0"/>
        <pt x="343" y="-2" on="0"/>
        <pt x="335" y="-2" on="1"/>
        <pt x="334" y="-12" on="0"/>
        <pt x="339" y="-32" on="0"/>
        <pt x="338" y="-39" on="1"/>
        <pt x="338" y="-44" on="0"/>
        <pt x="343" y="-50" on="0"/>
        <pt x="343" y="-54" on="1"/>
        <pt x="353" y="-58" on="0"/>
        <pt x="362" y="-60" on="0"/>
        <pt x="371" y="-68" on="1"/>
        <pt x="379" y="-66" on="0"/>
        <pt x="389" y="-73" on="0"/>
        <pt x="394" y="-70" on="1"/>
        <pt x="399" y="-70" on="0"/>
        <pt x="399" y="-80" on="0"/>
        <pt x="402" y="-82" on="1"/>
        <pt x="415" y="-83" on="1"/>
        <pt x="424" y="-97" on="0"/>
        <pt x="444" y="-107" on="0"/>
        <pt x="445" y="-118" on="1"/>
        <pt x="451" y="-120" on="0"/>
        <pt x="458" y="-131" on="0"/>
        <pt x="465" y="-133" on="1"/>
        <pt x="463" y="-138" on="0"/>
        <pt x="470" y="-141" on="0"/>
        <pt x="468" y="-146" on="1"/>
        <pt x="475" y="-153" on="0"/>
        <pt x="480" y="-169" on="0"/>
        <pt x="482" y="-184" on="0"/>
        <pt x="484" y="-196" on="0"/>
      </contour>
    </TTGlyph>
    <TTGlyph name="D" xMin="72" yMin="-20" xMax="629" yMax="726">
      <contour>
        <pt x="98" y="221" on="1"/>
        <pt x="91" y="224" on="0"/>
        <pt x="95" y="244" on="0"/>
        <pt x="96" y="249" on="1"/>
        <pt x="92" y="254" on="0"/>
        <pt x="98" y="262" on="0"/>
        <pt x="98" y="267" on="1"/>
        <pt x="98" y="271" on="0"/>
        <pt x="94" y="278" on="0"/>
        <pt x="94" y="283" on="1"/>
        <pt x="94" y="287" on="0"/>
        <pt x="96" y="293" on="0"/>
        <pt x="96" y="297" on="1"/>
        <pt x="96" y="310" on="0"/>
        <pt x="93" y="335" on="0"/>
        <pt x="92" y="349" on="1"/>
        <pt x="91" y="354" on="0"/>
        <pt x="93" y="362" on="0"/>
        <pt x="93" y="367" on="1"/>
        <pt x="93" y="377" on="0"/>
        <pt x="85" y="382" on="1"/>
        <pt x="86" y="402" on="0"/>
        <pt x="90" y="441" on="0"/>
        <pt x="90" y="461" on="1"/>
        <pt x="90" y="466" on="0"/>
        <pt x="88" y="474" on="0"/>
        <pt x="88" y="479" on="1"/>
        <pt x="86" y="492" on="0"/>
        <pt x="87" y="505" on="0"/>
        <pt x="83" y="510" on="1"/>
        <pt x="89" y="522" on="0"/>
        <pt x="85" y="534" on="0"/>
        <pt x="85" y="545" on="1"/>
        <pt x="85" y="551" on="0"/>
        <pt x="87" y="558" on="0"/>
        <pt x="88" y="566" on="0"/>
        <pt x="86" y="575" on="0"/>
        <pt x="81" y="581" on="1"/>
        <pt x="82" y="586" on="0"/>
        <pt x="84" y="593" on="0"/>
        <pt x="83" y="598" on="1"/>
        <pt x="78" y="607" on="0"/>
        <pt x="77" y="628" on="0"/>
        <pt x="72" y="638" on="1"/>
        <pt x="77" y="641" on="0"/>
        <pt x="74" y="646" on="0"/>
        <pt x="74" y="651" on="1"/>
        <pt x="74" y="659" on="0"/>
        <pt x="81" y="671" on="0"/>
        <pt x="81" y="678" on="1"/>
        <pt x="81" y="684" on="0"/>
        <pt x="79" y="696" on="0"/>
        <pt x="79" y="702" on="1"/>
        <pt x="90" y="704" on="0"/>
        <pt x="99" y="716" on="0"/>
        <pt x="109" y="721" on="1"/>
        <pt x="116" y="721" on="0"/>
        <pt x="128" y="719" on="0"/>
        <pt x="135" y="719" on="1"/>
        <pt x="138" y="719" on="0"/>
        <pt x="143" y="721" on="0"/>
        <pt x="146" y="721" on="1"/>
        <pt x="153" y="721" on="0"/>
        <pt x="166" y="717" on="0"/>
        <pt x="174" y="717" on="1"/>
        <pt x="176" y="717" on="0"/>
        <pt x="182" y="719" on="0"/>
        <pt x="184" y="719" on="1"/>
        <pt x="189" y="719" on="0"/>
        <pt x="196" y="717" on="0"/>
        <pt x="201" y="717" on="1"/>
        <pt x="208" y="717" on="0"/>
        <pt x="222" y="724" on="0"/>
        <pt x="229" y="726" on="1"/>
        <pt x="234" y="721" on="0"/>
        <pt x="239" y="724" on="0"/>
        <pt x="242" y="724" on="1"/>
        <pt x="257" y="721" on="0"/>
        <pt x="271" y="725" on="0"/>
        <pt x="276" y="717" on="1"/>
        <pt x="286" y="719" on="0"/>
        <pt x="304" y="717" on="0"/>
        <pt x="322" y="712" on="0"/>
        <pt x="340" y="707" on="0"/>
        <pt x="349" y="706" on="1"/>
        <pt x="367" y="681" on="0"/>
        <pt x="397" y="678" on="1"/>
        <pt x="407" y="671" on="0"/>
        <pt x="425" y="665" on="0"/>
        <pt x="428" y="661" on="1"/>
        <pt x="435" y="656" on="0"/>
        <pt x="445" y="658" on="0"/>
        <pt x="456" y="651" on="1"/>
        <pt x="466" y="646" on="0"/>
        <pt x="471" y="649" on="0"/>
        <pt x="473" y="650" on="1"/>
        <pt x="472" y="641" on="0"/>
        <pt x="475" y="643" on="0"/>
        <pt x="478" y="638" on="1"/>
        <pt x="488" y="638" on="0"/>
        <pt x="496" y="627" on="0"/>
        <pt x="507" y="627" on="1"/>
        <pt x="507" y="616" on="0"/>
        <pt x="514" y="607" on="0"/>
        <pt x="517" y="598" on="1"/>
        <pt x="523" y="592" on="0"/>
        <pt x="534" y="580" on="0"/>
        <pt x="536" y="572" on="1"/>
        <pt x="541" y="570" on="0"/>
        <pt x="544" y="566" on="0"/>
        <pt x="549" y="567" on="1"/>
        <pt x="550" y="560" on="0"/>
        <pt x="556" y="552" on="0"/>
        <pt x="561" y="548" on="1"/>
        <pt x="571" y="537" on="0"/>
        <pt x="583" y="513" on="0"/>
        <pt x="594" y="503" on="1"/>
        <pt x="596" y="498" on="0"/>
        <pt x="595" y="487" on="0"/>
        <pt x="597" y="483" on="1"/>
        <pt x="597" y="480" on="0"/>
        <pt x="602" y="477" on="0"/>
        <pt x="607" y="475" on="0"/>
        <pt x="612" y="471" on="0"/>
        <pt x="612" y="467" on="1"/>
        <pt x="612" y="464" on="0"/>
        <pt x="609" y="459" on="0"/>
        <pt x="609" y="457" on="1"/>
        <pt x="609" y="452" on="0"/>
        <pt x="615" y="442" on="0"/>
        <pt x="617" y="438" on="1"/>
        <pt x="622" y="429" on="0"/>
        <pt x="621" y="408" on="0"/>
        <pt x="627" y="401" on="1"/>
        <pt x="627" y="397" on="0"/>
        <pt x="624" y="392" on="0"/>
        <pt x="625" y="387" on="1"/>
        <pt x="624" y="384" on="0"/>
        <pt x="628" y="380" on="0"/>
        <pt x="629" y="377" on="1"/>
        <pt x="626" y="369" on="0"/>
        <pt x="627" y="355" on="0"/>
        <pt x="627" y="347" on="1"/>
        <pt x="628" y="341" on="0"/>
        <pt x="625" y="337" on="0"/>
        <pt x="625" y="334" on="1"/>
        <pt x="627" y="332" on="0"/>
        <pt x="625" y="319" on="0"/>
        <pt x="621" y="305" on="0"/>
        <pt x="616" y="293" on="0"/>
        <pt x="614" y="290" on="1"/>
        <pt x="617" y="280" on="0"/>
        <pt x="607" y="261" on="0"/>
        <pt x="609" y="256" on="1"/>
        <pt x="611" y="253" on="0"/>
        <pt x="614" y="251" on="0"/>
        <pt x="614" y="246" on="1"/>
        <pt x="603" y="238" on="0"/>
        <pt x="599" y="224" on="0"/>
        <pt x="599" y="210" on="1"/>
        <pt x="599" y="205" on="0"/>
        <pt x="592" y="203" on="0"/>
        <pt x="590" y="201" on="1"/>
        <pt x="588" y="197" on="0"/>
        <pt x="585" y="191" on="0"/>
        <pt x="580" y="188" on="1"/>
        <pt x="582" y="183" on="0"/>
        <pt x="578" y="180" on="0"/>
        <pt x="574" y="178" on="1"/>
        <pt x="572" y="176" on="0"/>
        <pt x="570" y="167" on="0"/>
        <pt x="556" y="162" on="1"/>
        <pt x="555" y="156" on="0"/>
        <pt x="550" y="153" on="0"/>
        <pt x="552" y="144" on="1"/>
        <pt x="546" y="143" on="0"/>
        <pt x="539" y="140" on="0"/>
        <pt x="534" y="136" on="1"/>
        <pt x="532" y="132" on="0"/>
        <pt x="527" y="124" on="0"/>
        <pt x="526" y="119" on="1"/>
        <pt x="521" y="115" on="0"/>
        <pt x="513" y="112" on="0"/>
        <pt x="511" y="106" on="1"/>
        <pt x="505" y="102" on="0"/>
        <pt x="497" y="100" on="0"/>
        <pt x="496" y="91" on="1"/>
        <pt x="491" y="93" on="0"/>
        <pt x="473" y="89" on="0"/>
        <pt x="469" y="86" on="1"/>
        <pt x="466" y="83" on="0"/>
        <pt x="462" y="82" on="0"/>
        <pt x="458" y="80" on="1"/>
        <pt x="448" y="75" on="0"/>
        <pt x="428" y="63" on="0"/>
        <pt x="419" y="56" on="1"/>
        <pt x="406" y="56" on="0"/>
        <pt x="381" y="51" on="0"/>
        <pt x="373" y="39" on="1"/>
        <pt x="339" y="36" on="0"/>
        <pt x="314" y="17" on="1"/>
        <pt x="308" y="19" on="0"/>
        <pt x="295" y="15" on="0"/>
        <pt x="290" y="17" on="1"/>
        <pt x="285" y="14" on="0"/>
        <pt x="274" y="11" on="0"/>
        <pt x="269" y="6" on="1"/>
        <pt x="255" y="7" on="0"/>
        <pt x="239" y="0" on="0"/>
        <pt x="226" y="-2" on="1"/>
        <pt x="220" y="-4" on="0"/>
        <pt x="207" y="-4" on="0"/>
        <pt x="201" y="-5" on="1"/>
        <pt x="188" y="-7" on="0"/>
        <pt x="181" y="-15" on="1"/>
        <pt x="176" y="-15" on="0"/>
        <pt x="164" y="-15" on="0"/>
        <pt x="162" y="-20" on="1"/>
        <pt x="153" y="-15" on="0"/>
        <pt x="136" y="-15" on="0"/>
        <pt x="127" y="-13" on="1"/>
        <pt x="123" y="-7" on="0"/>
        <pt x="119" y="-1" on="0"/>
        <pt x="111" y="-2" on="1"/>
        <pt x="109" y="14" on="0"/>
        <pt x="96" y="15" on="1"/>
        <pt x="96" y="22" on="0"/>
        <pt x="96" y="36" on="0"/>
        <pt x="91" y="41" on="1"/>
        <pt x="93" y="46" on="0"/>
        <pt x="101" y="63" on="0"/>
        <pt x="101" y="68" on="1"/>
        <pt x="101" y="70" on="0"/>
        <pt x="97" y="76" on="0"/>
        <pt x="96" y="78" on="1"/>
        <pt x="101" y="90" on="0"/>
        <pt x="96" y="106" on="0"/>
        <pt x="96" y="118" on="1"/>
        <pt x="96" y="121" on="0"/>
        <pt x="98" y="126" on="0"/>
        <pt x="98" y="129" on="1"/>
        <pt x="98" y="132" on="0"/>
        <pt x="94" y="137" on="0"/>
        <pt x="94" y="140" on="1"/>
        <pt x="94" y="148" on="0"/>
        <pt x="100" y="164" on="0"/>
        <pt x="100" y="172" on="1"/>
        <pt x="100" y="177" on="0"/>
        <pt x="96" y="186" on="0"/>
        <pt x="96" y="191" on="1"/>
        <pt x="98" y="204" on="0"/>
        <pt x="96" y="209" on="0"/>
        <pt x="96" y="213" on="1"/>
      </contour>
      <contour>
        <pt x="173" y="383" on="1"/>
        <pt x="174" y="378" on="0"/>
        <pt x="177" y="360" on="0"/>
        <pt x="181" y="356" on="1"/>
        <pt x="180" y="353" on="0"/>
        <pt x="176" y="348" on="0"/>
        <pt x="176" y="345" on="1"/>
        <pt x="176" y="342" on="0"/>
        <pt x="178" y="335" on="0"/>
        <pt x="179" y="333" on="1"/>
        <pt x="183" y="317" on="0"/>
        <pt x="181" y="286" on="0"/>
        <pt x="181" y="270" on="1"/>
        <pt x="185" y="266" on="0"/>
        <pt x="185" y="256" on="0"/>
        <pt x="185" y="251" on="1"/>
        <pt x="185" y="243" on="0"/>
        <pt x="193" y="224" on="0"/>
        <pt x="186" y="217" on="1"/>
        <pt x="188" y="212" on="0"/>
        <pt x="187" y="200" on="0"/>
        <pt x="187" y="194" on="1"/>
        <pt x="187" y="186" on="0"/>
        <pt x="192" y="174" on="0"/>
        <pt x="192" y="166" on="1"/>
        <pt x="195" y="152" on="0"/>
        <pt x="196" y="146" on="1"/>
        <pt x="194" y="141" on="0"/>
        <pt x="187" y="140" on="0"/>
        <pt x="187" y="136" on="1"/>
        <pt x="187" y="134" on="0"/>
        <pt x="187" y="119" on="0"/>
        <pt x="187" y="103" on="0"/>
        <pt x="188" y="97" on="1"/>
        <pt x="188" y="90" on="1"/>
        <pt x="191" y="85" on="0"/>
        <pt x="197" y="79" on="0"/>
        <pt x="199" y="74" on="1"/>
        <pt x="207" y="76" on="0"/>
        <pt x="222" y="81" on="0"/>
        <pt x="231" y="80" on="1"/>
        <pt x="236" y="85" on="0"/>
        <pt x="247" y="91" on="0"/>
        <pt x="252" y="94" on="1"/>
        <pt x="255" y="89" on="0"/>
        <pt x="263" y="89" on="0"/>
        <pt x="272" y="93" on="0"/>
        <pt x="281" y="98" on="0"/>
        <pt x="286" y="98" on="1"/>
        <pt x="289" y="102" on="0"/>
        <pt x="296" y="106" on="1"/>
        <pt x="301" y="104" on="0"/>
        <pt x="324" y="111" on="0"/>
        <pt x="329" y="112" on="1"/>
        <pt x="331" y="113" on="0"/>
        <pt x="338" y="118" on="0"/>
        <pt x="340" y="119" on="1"/>
        <pt x="348" y="122" on="0"/>
        <pt x="362" y="125" on="0"/>
        <pt x="369" y="129" on="1"/>
        <pt x="371" y="133" on="0"/>
        <pt x="376" y="138" on="0"/>
        <pt x="379" y="141" on="1"/>
        <pt x="389" y="138" on="0"/>
        <pt x="405" y="142" on="0"/>
        <pt x="419" y="151" on="0"/>
        <pt x="433" y="161" on="0"/>
        <pt x="442" y="164" on="1"/>
        <pt x="440" y="172" on="0"/>
        <pt x="445" y="177" on="1"/>
        <pt x="450" y="177" on="0"/>
        <pt x="455" y="181" on="0"/>
        <pt x="460" y="185" on="0"/>
        <pt x="466" y="189" on="0"/>
        <pt x="471" y="188" on="1"/>
        <pt x="479" y="201" on="0"/>
        <pt x="499" y="219" on="0"/>
        <pt x="505" y="233" on="1"/>
        <pt x="511" y="239" on="0"/>
        <pt x="515" y="247" on="0"/>
        <pt x="514" y="253" on="1"/>
        <pt x="521" y="251" on="0"/>
        <pt x="520" y="253" on="0"/>
        <pt x="525" y="256" on="1"/>
        <pt x="524" y="264" on="0"/>
        <pt x="530" y="277" on="0"/>
        <pt x="525" y="285" on="1"/>
        <pt x="536" y="296" on="0"/>
        <pt x="533" y="328" on="0"/>
        <pt x="536" y="342" on="1"/>
        <pt x="532" y="345" on="0"/>
        <pt x="532" y="353" on="0"/>
        <pt x="536" y="362" on="0"/>
        <pt x="541" y="371" on="0"/>
        <pt x="541" y="375" on="1"/>
        <pt x="541" y="386" on="0"/>
        <pt x="533" y="407" on="0"/>
        <pt x="532" y="418" on="1"/>
        <pt x="526" y="423" on="0"/>
        <pt x="523" y="437" on="0"/>
        <pt x="523" y="445" on="1"/>
        <pt x="515" y="453" on="0"/>
        <pt x="509" y="472" on="0"/>
        <pt x="508" y="483" on="1"/>
        <pt x="502" y="488" on="0"/>
        <pt x="496" y="501" on="0"/>
        <pt x="494" y="508" on="1"/>
        <pt x="488" y="512" on="0"/>
        <pt x="477" y="517" on="0"/>
        <pt x="472" y="522" on="1"/>
        <pt x="470" y="530" on="0"/>
        <pt x="468" y="534" on="1"/>
        <pt x="459" y="538" on="0"/>
        <pt x="451" y="551" on="0"/>
        <pt x="440" y="553" on="1"/>
        <pt x="438" y="561" on="0"/>
        <pt x="428" y="565" on="0"/>
        <pt x="424" y="570" on="1"/>
        <pt x="407" y="570" on="1"/>
        <pt x="407" y="573" on="0"/>
        <pt x="404" y="575" on="0"/>
        <pt x="399" y="577" on="0"/>
        <pt x="396" y="580" on="0"/>
        <pt x="396" y="584" on="1"/>
        <pt x="388" y="585" on="0"/>
        <pt x="378" y="594" on="1"/>
        <pt x="376" y="595" on="0"/>
        <pt x="373" y="591" on="0"/>
        <pt x="368" y="592" on="1"/>
        <pt x="363" y="600" on="0"/>
        <pt x="351" y="608" on="0"/>
        <pt x="341" y="609" on="1"/>
        <pt x="340" y="615" on="0"/>
        <pt x="333" y="617" on="0"/>
        <pt x="331" y="622" on="1"/>
        <pt x="324" y="623" on="0"/>
        <pt x="315" y="627" on="0"/>
        <pt x="307" y="632" on="0"/>
        <pt x="296" y="634" on="0"/>
        <pt x="287" y="632" on="1"/>
        <pt x="282" y="640" on="0"/>
        <pt x="274" y="642" on="0"/>
        <pt x="269" y="642" on="1"/>
        <pt x="266" y="642" on="0"/>
        <pt x="261" y="641" on="0"/>
        <pt x="258" y="641" on="1"/>
        <pt x="247" y="647" on="0"/>
        <pt x="234" y="639" on="0"/>
        <pt x="229" y="639" on="1"/>
        <pt x="221" y="642" on="0"/>
        <pt x="211" y="637" on="0"/>
        <pt x="204" y="634" on="1"/>
        <pt x="194" y="636" on="0"/>
        <pt x="174" y="636" on="0"/>
        <pt x="164" y="637" on="1"/>
        <pt x="160" y="633" on="0"/>
        <pt x="160" y="621" on="0"/>
        <pt x="163" y="609" on="0"/>
        <pt x="168" y="598" on="0"/>
        <pt x="170" y="594" on="1"/>
        <pt x="168" y="591" on="0"/>
        <pt x="165" y="585" on="0"/>
        <pt x="163" y="581" on="1"/>
        <pt x="167" y="575" on="0"/>
        <pt x="166" y="567" on="0"/>
        <pt x="172" y="561" on="1"/>
        <pt x="166" y="555" on="0"/>
        <pt x="167" y="552" on="0"/>
        <pt x="166" y="549" on="1"/>
        <pt x="173" y="529" on="0"/>
        <pt x="168" y="483" on="0"/>
        <pt x="176" y="465" on="1"/>
        <pt x="172" y="456" on="0"/>
        <pt x="173" y="441" on="0"/>
        <pt x="175" y="423" on="0"/>
        <pt x="177" y="406" on="0"/>
        <pt x="178" y="403" on="1"/>
        <pt x="178" y="398" on="0"/>
        <pt x="181" y="392" on="0"/>
        <pt x="181" y="388" on="1"/>
      </contour>
    </TTGlyph>
    <TTGlyph name="E" xMin="82" yMin="-18" xMax="620" yMax="746">
      <contour>
        <pt x="620" y="707" on="1"/>
        <pt x="616" y="706" on="0"/>
        <pt x="613" y="699" on="0"/>
        <pt x="608" y="699" on="1"/>
        <pt x="607" y="694" on="0"/>
        <pt x="616" y="691" on="0"/>
        <pt x="616" y="687" on="1"/>
        <pt x="616" y="681" on="0"/>
        <pt x="605" y="676" on="0"/>
        <pt x="604" y="670" on="1"/>
        <pt x="594" y="672" on="0"/>
        <pt x="587" y="666" on="0"/>
        <pt x="580" y="662" on="1"/>
        <pt x="574" y="663" on="0"/>
        <pt x="564" y="660" on="0"/>
        <pt x="558" y="660" on="1"/>
        <pt x="554" y="660" on="0"/>
        <pt x="548" y="654" on="0"/>
        <pt x="544" y="653" on="1"/>
        <pt x="536" y="651" on="0"/>
        <pt x="519" y="653" on="0"/>
        <pt x="511" y="649" on="1"/>
        <pt x="509" y="654" on="0"/>
        <pt x="499" y="651" on="0"/>
        <pt x="495" y="651" on="1"/>
        <pt x="490" y="651" on="0"/>
        <pt x="482" y="656" on="0"/>
        <pt x="476" y="656" on="1"/>
        <pt x="468" y="656" on="0"/>
        <pt x="451" y="650" on="0"/>
        <pt x="443" y="650" on="1"/>
        <pt x="435" y="650" on="0"/>
        <pt x="422" y="653" on="0"/>
        <pt x="414" y="653" on="1"/>
        <pt x="408" y="653" on="0"/>
        <pt x="404" y="646" on="0"/>
        <pt x="399" y="644" on="1"/>
        <pt x="381" y="651" on="0"/>
        <pt x="335" y="650" on="0"/>
        <pt x="318" y="642" on="1"/>
        <pt x="303" y="648" on="0"/>
        <pt x="269" y="644" on="0"/>
        <pt x="253" y="649" on="1"/>
        <pt x="244" y="644" on="0"/>
        <pt x="219" y="646" on="0"/>
        <pt x="211" y="651" on="1"/>
        <pt x="203" y="648" on="0"/>
        <pt x="185" y="649" on="0"/>
        <pt x="177" y="649" on="1"/>
        <pt x="170" y="645" on="0"/>
        <pt x="175" y="632" on="0"/>
        <pt x="175" y="627" on="1"/>
        <pt x="175" y="624" on="0"/>
        <pt x="172" y="618" on="0"/>
        <pt x="172" y="615" on="1"/>
        <pt x="172" y="610" on="0"/>
        <pt x="176" y="602" on="0"/>
        <pt x="177" y="597" on="1"/>
        <pt x="180" y="576" on="0"/>
        <pt x="180" y="556" on="1"/>
        <pt x="177" y="544" on="0"/>
        <pt x="182" y="539" on="0"/>
        <pt x="182" y="536" on="1"/>
        <pt x="182" y="533" on="0"/>
        <pt x="180" y="527" on="0"/>
        <pt x="180" y="523" on="1"/>
        <pt x="180" y="520" on="0"/>
        <pt x="182" y="515" on="0"/>
        <pt x="182" y="512" on="1"/>
        <pt x="182" y="509" on="0"/>
        <pt x="177" y="505" on="0"/>
        <pt x="177" y="501" on="1"/>
        <pt x="177" y="497" on="0"/>
        <pt x="180" y="489" on="0"/>
        <pt x="180" y="484" on="1"/>
        <pt x="180" y="480" on="0"/>
        <pt x="177" y="474" on="0"/>
        <pt x="177" y="470" on="1"/>
        <pt x="177" y="468" on="0"/>
        <pt x="184" y="448" on="0"/>
        <pt x="184" y="447" on="1"/>
        <pt x="199" y="452" on="0"/>
        <pt x="231" y="445" on="0"/>
        <pt x="246" y="445" on="1"/>
        <pt x="253" y="445" on="0"/>
        <pt x="265" y="450" on="0"/>
        <pt x="273" y="449" on="1"/>
        <pt x="286" y="449" on="0"/>
        <pt x="294" y="448" on="0"/>
        <pt x="298" y="448" on="1"/>
        <pt x="306" y="448" on="0"/>
        <pt x="312" y="454" on="0"/>
        <pt x="317" y="454" on="1"/>
        <pt x="320" y="454" on="0"/>
        <pt x="326" y="451" on="0"/>
        <pt x="330" y="451" on="1"/>
        <pt x="336" y="451" on="0"/>
        <pt x="350" y="462" on="0"/>
        <pt x="354" y="467" on="1"/>
        <pt x="357" y="464" on="0"/>
        <pt x="365" y="465" on="0"/>
        <pt x="372" y="466" on="0"/>
        <pt x="380" y="465" on="0"/>
        <pt x="385" y="462" on="1"/>
        <pt x="386" y="463" on="0"/>
        <pt x="394" y="467" on="0"/>
        <pt x="401" y="469" on="0"/>
        <pt x="408" y="469" on="0"/>
        <pt x="408" y="465" on="1"/>
        <pt x="425" y="472" on="0"/>
        <pt x="447" y="469" on="0"/>
        <pt x="463" y="469" on="1"/>
        <pt x="476" y="469" on="0"/>
        <pt x="501" y="477" on="0"/>
        <pt x="514" y="477" on="1"/>
        <pt x="519" y="477" on="0"/>
        <pt x="526" y="479" on="0"/>
        <pt x="530" y="479" on="1"/>
        <pt x="542" y="474" on="0"/>
        <pt x="545" y="478" on="0"/>
        <pt x="549" y="478" on="1"/>
        <pt x="556" y="478" on="0"/>
        <pt x="573" y="467" on="0"/>
        <pt x="592" y="469" on="1"/>
        <pt x="595" y="463" on="0"/>
        <pt x="601" y="460" on="1"/>
        <pt x="600" y="452" on="0"/>
        <pt x="606" y="440" on="0"/>
        <pt x="611" y="434" on="1"/>
        <pt x="610" y="429" on="0"/>
        <pt x="608" y="421" on="0"/>
        <pt x="613" y="417" on="1"/>
        <pt x="610" y="411" on="0"/>
        <pt x="600" y="403" on="0"/>
        <pt x="597" y="397" on="1"/>
        <pt x="589" y="399" on="0"/>
        <pt x="579" y="393" on="0"/>
        <pt x="573" y="391" on="1"/>
        <pt x="566" y="389" on="0"/>
        <pt x="552" y="392" on="0"/>
        <pt x="547" y="387" on="1"/>
        <pt x="543" y="392" on="0"/>
        <pt x="532" y="387" on="0"/>
        <pt x="527" y="387" on="1"/>
        <pt x="514" y="389" on="0"/>
        <pt x="510" y="384" on="0"/>
        <pt x="506" y="384" on="1"/>
        <pt x="505" y="389" on="0"/>
        <pt x="494" y="387" on="0"/>
        <pt x="492" y="391" on="1"/>
        <pt x="488" y="385" on="0"/>
        <pt x="472" y="389" on="0"/>
        <pt x="467" y="389" on="1"/>
        <pt x="454" y="389" on="0"/>
        <pt x="431" y="378" on="0"/>
        <pt x="418" y="387" on="1"/>
        <pt x="414" y="383" on="0"/>
        <pt x="408" y="383" on="1"/>
        <pt x="403" y="383" on="0"/>
        <pt x="395" y="385" on="0"/>
        <pt x="390" y="385" on="1"/>
        <pt x="382" y="385" on="0"/>
        <pt x="370" y="380" on="0"/>
        <pt x="363" y="380" on="1"/>
        <pt x="354" y="380" on="0"/>
        <pt x="349" y="384" on="1"/>
        <pt x="338" y="379" on="0"/>
        <pt x="309" y="380" on="0"/>
        <pt x="299" y="374" on="1"/>
        <pt x="289" y="372" on="0"/>
        <pt x="284" y="376" on="1"/>
        <pt x="266" y="368" on="0"/>
        <pt x="225" y="370" on="0"/>
        <pt x="206" y="363" on="1"/>
        <pt x="200" y="364" on="0"/>
        <pt x="194" y="371" on="0"/>
        <pt x="187" y="367" on="1"/>
        <pt x="179" y="351" on="0"/>
        <pt x="174" y="308" on="0"/>
        <pt x="182" y="291" on="1"/>
        <pt x="180" y="287" on="0"/>
        <pt x="174" y="280" on="0"/>
        <pt x="172" y="276" on="1"/>
        <pt x="172" y="266" on="0"/>
        <pt x="177" y="261" on="1"/>
        <pt x="177" y="258" on="0"/>
        <pt x="173" y="253" on="0"/>
        <pt x="172" y="250" on="1"/>
        <pt x="171" y="246" on="0"/>
        <pt x="173" y="238" on="0"/>
        <pt x="173" y="234" on="1"/>
        <pt x="173" y="227" on="0"/>
        <pt x="169" y="214" on="0"/>
        <pt x="169" y="206" on="1"/>
        <pt x="169" y="201" on="0"/>
        <pt x="173" y="194" on="0"/>
        <pt x="173" y="189" on="1"/>
        <pt x="173" y="184" on="0"/>
        <pt x="166" y="182" on="0"/>
        <pt x="165" y="179" on="1"/>
        <pt x="164" y="174" on="0"/>
        <pt x="168" y="168" on="0"/>
        <pt x="163" y="164" on="1"/>
        <pt x="170" y="153" on="0"/>
        <pt x="171" y="124" on="0"/>
        <pt x="180" y="114" on="1"/>
        <pt x="176" y="106" on="0"/>
        <pt x="181" y="85" on="0"/>
        <pt x="182" y="77" on="1"/>
        <pt x="187" y="76" on="0"/>
        <pt x="196" y="80" on="0"/>
        <pt x="201" y="79" on="1"/>
        <pt x="208" y="75" on="0"/>
        <pt x="223" y="75" on="0"/>
        <pt x="237" y="78" on="0"/>
        <pt x="251" y="79" on="0"/>
        <pt x="258" y="75" on="1"/>
        <pt x="261" y="77" on="0"/>
        <pt x="281" y="77" on="0"/>
        <pt x="308" y="79" on="0"/>
        <pt x="336" y="84" on="0"/>
        <pt x="346" y="90" on="1"/>
        <pt x="350" y="89" on="0"/>
        <pt x="355" y="85" on="0"/>
        <pt x="358" y="83" on="1"/>
        <pt x="369" y="89" on="0"/>
        <pt x="393" y="88" on="0"/>
        <pt x="404" y="90" on="1"/>
        <pt x="405" y="86" on="0"/>
        <pt x="412" y="84" on="0"/>
        <pt x="415" y="83" on="1"/>
        <pt x="429" y="88" on="0"/>
        <pt x="456" y="85" on="0"/>
        <pt x="470" y="88" on="1"/>
        <pt x="478" y="90" on="0"/>
        <pt x="491" y="99" on="0"/>
        <pt x="499" y="101" on="1"/>
        <pt x="506" y="96" on="0"/>
        <pt x="525" y="97" on="0"/>
        <pt x="545" y="101" on="0"/>
        <pt x="567" y="102" on="0"/>
        <pt x="578" y="96" on="1"/>
        <pt x="578" y="86" on="1"/>
        <pt x="583" y="82" on="0"/>
        <pt x="593" y="75" on="0"/>
        <pt x="597" y="70" on="1"/>
        <pt x="598" y="63" on="0"/>
        <pt x="592" y="55" on="1"/>
        <pt x="592" y="53" on="0"/>
        <pt x="595" y="52" on="0"/>
        <pt x="600" y="50" on="0"/>
        <pt x="602" y="48" on="0"/>
        <pt x="601" y="44" on="1"/>
        <pt x="602" y="40" on="0"/>
        <pt x="590" y="31" on="0"/>
        <pt x="574" y="25" on="0"/>
        <pt x="556" y="21" on="0"/>
        <pt x="551" y="23" on="1"/>
        <pt x="537" y="15" on="0"/>
        <pt x="506" y="6" on="0"/>
        <pt x="489" y="6" on="1"/>
        <pt x="484" y="6" on="0"/>
        <pt x="473" y="8" on="0"/>
        <pt x="467" y="8" on="1"/>
        <pt x="453" y="5" on="0"/>
        <pt x="439" y="8" on="0"/>
        <pt x="432" y="3" on="1"/>
        <pt x="427" y="5" on="0"/>
        <pt x="415" y="9" on="0"/>
        <pt x="409" y="9" on="1"/>
        <pt x="396" y="7" on="0"/>
        <pt x="393" y="13" on="0"/>
        <pt x="389" y="14" on="1"/>
        <pt x="379" y="10" on="0"/>
        <pt x="352" y="13" on="0"/>
        <pt x="344" y="8" on="1"/>
        <pt x="339" y="8" on="0"/>
        <pt x="336" y="10" on="0"/>
        <pt x="334" y="12" on="0"/>
        <pt x="330" y="10" on="0"/>
        <pt x="323" y="5" on="1"/>
        <pt x="317" y="6" on="0"/>
        <pt x="299" y="4" on="0"/>
        <pt x="294" y="8" on="1"/>
        <pt x="289" y="5" on="0"/>
        <pt x="278" y="1" on="0"/>
        <pt x="273" y="-3" on="1"/>
        <pt x="268" y="-5" on="0"/>
        <pt x="265" y="-1" on="0"/>
        <pt x="261" y="-1" on="1"/>
        <pt x="257" y="-1" on="0"/>
        <pt x="252" y="-5" on="0"/>
        <pt x="249" y="-5" on="1"/>
        <pt x="246" y="-5" on="0"/>
        <pt x="240" y="-3" on="0"/>
        <pt x="237" y="-3" on="1"/>
        <pt x="231" y="-3" on="0"/>
        <pt x="221" y="-8" on="0"/>
        <pt x="215" y="-8" on="1"/>
        <pt x="193" y="-5" on="0"/>
        <pt x="167" y="-18" on="0"/>
        <pt x="152" y="-18" on="1"/>
        <pt x="144" y="-18" on="0"/>
        <pt x="132" y="-8" on="0"/>
        <pt x="122" y="-10" on="1"/>
        <pt x="123" y="-4" on="0"/>
        <pt x="117" y="-1" on="0"/>
        <pt x="115" y="1" on="1"/>
        <pt x="113" y="5" on="0"/>
        <pt x="113" y="14" on="0"/>
        <pt x="111" y="18" on="1"/>
        <pt x="108" y="25" on="0"/>
        <pt x="97" y="34" on="0"/>
        <pt x="94" y="40" on="1"/>
        <pt x="92" y="45" on="0"/>
        <pt x="93" y="50" on="0"/>
        <pt x="89" y="55" on="1"/>
        <pt x="86" y="60" on="0"/>
        <pt x="90" y="68" on="0"/>
        <pt x="82" y="70" on="1"/>
        <pt x="90" y="78" on="0"/>
        <pt x="84" y="104" on="0"/>
        <pt x="84" y="114" on="1"/>
        <pt x="84" y="120" on="0"/>
        <pt x="89" y="131" on="0"/>
        <pt x="89" y="138" on="1"/>
        <pt x="89" y="141" on="0"/>
        <pt x="84" y="146" on="0"/>
        <pt x="84" y="150" on="1"/>
        <pt x="85" y="161" on="0"/>
        <pt x="82" y="161" on="1"/>
        <pt x="86" y="167" on="0"/>
        <pt x="88" y="189" on="0"/>
        <pt x="88" y="197" on="1"/>
        <pt x="88" y="205" on="0"/>
        <pt x="82" y="221" on="0"/>
        <pt x="82" y="229" on="1"/>
        <pt x="82" y="239" on="0"/>
        <pt x="87" y="257" on="0"/>
        <pt x="87" y="267" on="1"/>
        <pt x="84" y="272" on="0"/>
        <pt x="88" y="278" on="0"/>
        <pt x="88" y="282" on="1"/>
        <pt x="88" y="287" on="0"/>
        <pt x="85" y="304" on="0"/>
        <pt x="82" y="309" on="1"/>
        <pt x="88" y="317" on="0"/>
        <pt x="88" y="340" on="0"/>
        <pt x="96" y="348" on="1"/>
        <pt x="97" y="359" on="0"/>
        <pt x="93" y="384" on="0"/>
        <pt x="99" y="395" on="1"/>
        <pt x="95" y="401" on="0"/>
        <pt x="95" y="416" on="0"/>
        <pt x="96" y="431" on="0"/>
        <pt x="95" y="446" on="0"/>
        <pt x="91" y="452" on="1"/>
        <pt x="96" y="456" on="0"/>
        <pt x="97" y="471" on="0"/>
        <pt x="93" y="489" on="0"/>
        <pt x="89" y="506" on="0"/>
        <pt x="89" y="512" on="1"/>
        <pt x="91" y="516" on="0"/>
        <pt x="89" y="521" on="0"/>
        <pt x="89" y="523" on="1"/>
        <pt x="89" y="531" on="0"/>
        <pt x="92" y="544" on="0"/>
        <pt x="92" y="551" on="1"/>
        <pt x="92" y="557" on="0"/>
        <pt x="88" y="569" on="0"/>
        <pt x="88" y="575" on="1"/>
        <pt x="88" y="590" on="0"/>
        <pt x="99" y="623" on="0"/>
        <pt x="91" y="638" on="1"/>
        <pt x="92" y="646" on="0"/>
        <pt x="99" y="653" on="1"/>
        <pt x="94" y="670" on="0"/>
        <pt x="96" y="708" on="0"/>
        <pt x="99" y="725" on="1"/>
        <pt x="101" y="727" on="0"/>
        <pt x="109" y="730" on="0"/>
        <pt x="111" y="733" on="1"/>
        <pt x="113" y="736" on="0"/>
        <pt x="130" y="744" on="0"/>
        <pt x="133" y="744" on="1"/>
        <pt x="142" y="745" on="0"/>
        <pt x="153" y="742" on="0"/>
        <pt x="166" y="736" on="0"/>
        <pt x="177" y="728" on="0"/>
        <pt x="180" y="727" on="1"/>
        <pt x="192" y="729" on="0"/>
        <pt x="211" y="720" on="0"/>
        <pt x="222" y="720" on="1"/>
        <pt x="230" y="720" on="0"/>
        <pt x="246" y="723" on="0"/>
        <pt x="253" y="718" on="1"/>
        <pt x="271" y="727" on="0"/>
        <pt x="311" y="725" on="0"/>
        <pt x="330" y="725" on="1"/>
        <pt x="335" y="725" on="0"/>
        <pt x="342" y="729" on="0"/>
        <pt x="346" y="731" on="1"/>
        <pt x="355" y="729" on="0"/>
        <pt x="373" y="729" on="0"/>
        <pt x="382" y="729" on="1"/>
        <pt x="397" y="727" on="0"/>
        <pt x="410" y="731" on="0"/>
        <pt x="418" y="731" on="1"/>
        <pt x="423" y="731" on="0"/>
        <pt x="430" y="727" on="0"/>
        <pt x="435" y="727" on="1"/>
        <pt x="446" y="727" on="0"/>
        <pt x="469" y="731" on="0"/>
        <pt x="480" y="731" on="1"/>
        <pt x="486" y="738" on="0"/>
        <pt x="508" y="739" on="0"/>
        <pt x="516" y="744" on="1"/>
        <pt x="530" y="739" on="0"/>
        <pt x="561" y="738" on="0"/>
        <pt x="575" y="746" on="1"/>
        <pt x="579" y="744" on="0"/>
        <pt x="588" y="742" on="0"/>
        <pt x="589" y="737" on="1"/>
        <pt x="599" y="739" on="0"/>
        <pt x="608" y="732" on="0"/>
        <pt x="616" y="731" on="1"/>
        <pt x="617" y="725" on="0"/>
        <pt x="618" y="713" on="0"/>
      </contour>
    </TTGlyph>
    <TTGlyph name="Eacute" xMin="82" yMin="-18" xMax="620" yMax="1053">
      <component glyphName="E" x="0" y="0" flags="0x204"/>
      <component glyphName="acute" x="31" y="246" flags="0x4"/>
    </TTGlyph>
    <TTGlyph name="Ecircumflex" xMin="82" yMin="-18" xMax="620" yMax="989">
      <component glyphName="E" x="0" y="0" flags="0x204"/>
      <component glyphName="circumflex" x="-19" y="225" flags="0x4"/>
    </TTGlyph>
    <TTGlyph name="Edieresis" xMin="82" yMin="-18" xMax="620" yMax="952">
      <component glyphName="E" x="0" y="0" flags="0x204"/>
      <component glyphName="dieresis" x="-9" y="215" flags="0x4"/>
    </TTGlyph>
    <TTGlyph name="Egrave" xMin="82" yMin="-18" xMax="620" yMax="1037">
      <component glyphName="E" x="0" y="0" flags="0x204"/>
      <component glyphName="grave" x="-30" y="246" flags="0x4"/>
    </TTGlyph>
    <TTGlyph name="Eth" xMin="-23" yMin="-20" xMax="629" yMax="726">
      <contour>
        <pt x="180" y="391" on="1"/>
        <pt x="188" y="393" on="0"/>
        <pt x="203" y="393" on="0"/>
        <pt x="210" y="389" on="1"/>
        <pt x="214" y="393" on="0"/>
        <pt x="223" y="396" on="0"/>
        <pt x="228" y="399" on="1"/>
        <pt x="232" y="399" on="0"/>
        <pt x="238" y="397" on="0"/>
        <pt x="242" y="398" on="1"/>
        <pt x="249" y="398" on="0"/>
        <pt x="260" y="405" on="0"/>
        <pt x="268" y="405" on="1"/>
        <pt x="276" y="406" on="0"/>
        <pt x="285" y="396" on="0"/>
        <pt x="292" y="392" on="1"/>
        <pt x="304" y="386" on="1"/>
        <pt x="309" y="363" on="0"/>
        <pt x="299" y="343" on="0"/>
        <pt x="294" y="329" on="1"/>
        <pt x="289" y="329" on="0"/>
        <pt x="282" y="333" on="0"/>
        <pt x="277" y="333" on="1"/>
        <pt x="272" y="333" on="0"/>
        <pt x="267" y="328" on="0"/>
        <pt x="262" y="327" on="1"/>
        <pt x="249" y="329" on="0"/>
        <pt x="243" y="323" on="0"/>
        <pt x="239" y="322" on="1"/>
        <pt x="236" y="321" on="0"/>
        <pt x="229" y="321" on="1"/>
        <pt x="224" y="321" on="0"/>
        <pt x="219" y="316" on="0"/>
        <pt x="216" y="316" on="1"/>
        <pt x="212" y="316" on="0"/>
        <pt x="205" y="318" on="0"/>
        <pt x="201" y="317" on="1"/>
        <pt x="198" y="317" on="0"/>
        <pt x="192" y="316" on="0"/>
        <pt x="188" y="316" on="1"/>
        <pt x="182" y="305" on="0"/>
        <pt x="181" y="281" on="0"/>
        <pt x="181" y="270" on="1"/>
        <pt x="185" y="266" on="0"/>
        <pt x="185" y="256" on="0"/>
        <pt x="185" y="251" on="1"/>
        <pt x="185" y="243" on="0"/>
        <pt x="193" y="224" on="0"/>
        <pt x="186" y="217" on="1"/>
        <pt x="188" y="212" on="0"/>
        <pt x="187" y="200" on="0"/>
        <pt x="187" y="194" on="1"/>
        <pt x="187" y="186" on="0"/>
        <pt x="192" y="174" on="0"/>
        <pt x="192" y="166" on="1"/>
        <pt x="195" y="152" on="0"/>
        <pt x="196" y="146" on="1"/>
        <pt x="194" y="141" on="0"/>
        <pt x="187" y="140" on="0"/>
        <pt x="187" y="136" on="1"/>
        <pt x="187" y="134" on="0"/>
        <pt x="187" y="119" on="0"/>
        <pt x="187" y="103" on="0"/>
        <pt x="188" y="97" on="1"/>
        <pt x="188" y="90" on="1"/>
        <pt x="191" y="85" on="0"/>
        <pt x="197" y="79" on="0"/>
        <pt x="199" y="74" on="1"/>
        <pt x="207" y="76" on="0"/>
        <pt x="222" y="81" on="0"/>
        <pt x="231" y="80" on="1"/>
        <pt x="236" y="85" on="0"/>
        <pt x="247" y="91" on="0"/>
        <pt x="252" y="94" on="1"/>
        <pt x="255" y="89" on="0"/>
        <pt x="263" y="89" on="0"/>
        <pt x="272" y="93" on="0"/>
        <pt x="281" y="98" on="0"/>
        <pt x="286" y="98" on="1"/>
        <pt x="289" y="102" on="0"/>
        <pt x="296" y="106" on="1"/>
        <pt x="301" y="104" on="0"/>
        <pt x="324" y="111" on="0"/>
        <pt x="329" y="112" on="1"/>
        <pt x="331" y="113" on="0"/>
        <pt x="338" y="118" on="0"/>
        <pt x="340" y="119" on="1"/>
        <pt x="348" y="122" on="0"/>
        <pt x="362" y="125" on="0"/>
        <pt x="369" y="129" on="1"/>
        <pt x="371" y="133" on="0"/>
        <pt x="376" y="138" on="0"/>
        <pt x="379" y="141" on="1"/>
        <pt x="389" y="138" on="0"/>
        <pt x="405" y="142" on="0"/>
        <pt x="419" y="151" on="0"/>
        <pt x="433" y="161" on="0"/>
        <pt x="442" y="164" on="1"/>
        <pt x="440" y="172" on="0"/>
        <pt x="445" y="177" on="1"/>
        <pt x="450" y="177" on="0"/>
        <pt x="455" y="181" on="0"/>
        <pt x="460" y="185" on="0"/>
        <pt x="466" y="189" on="0"/>
        <pt x="471" y="188" on="1"/>
        <pt x="479" y="201" on="0"/>
        <pt x="499" y="219" on="0"/>
        <pt x="505" y="233" on="1"/>
        <pt x="511" y="239" on="0"/>
        <pt x="515" y="247" on="0"/>
        <pt x="514" y="253" on="1"/>
        <pt x="521" y="251" on="0"/>
        <pt x="520" y="253" on="0"/>
        <pt x="525" y="256" on="1"/>
        <pt x="524" y="264" on="0"/>
        <pt x="530" y="277" on="0"/>
        <pt x="525" y="285" on="1"/>
        <pt x="536" y="296" on="0"/>
        <pt x="533" y="328" on="0"/>
        <pt x="536" y="342" on="1"/>
        <pt x="532" y="345" on="0"/>
        <pt x="532" y="353" on="0"/>
        <pt x="536" y="362" on="0"/>
        <pt x="541" y="371" on="0"/>
        <pt x="541" y="375" on="1"/>
        <pt x="541" y="386" on="0"/>
        <pt x="533" y="407" on="0"/>
        <pt x="532" y="418" on="1"/>
        <pt x="526" y="423" on="0"/>
        <pt x="523" y="437" on="0"/>
        <pt x="523" y="445" on="1"/>
        <pt x="515" y="453" on="0"/>
        <pt x="509" y="472" on="0"/>
        <pt x="508" y="483" on="1"/>
        <pt x="502" y="488" on="0"/>
        <pt x="496" y="501" on="0"/>
        <pt x="494" y="508" on="1"/>
        <pt x="488" y="512" on="0"/>
        <pt x="477" y="517" on="0"/>
        <pt x="472" y="522" on="1"/>
        <pt x="470" y="530" on="0"/>
        <pt x="468" y="534" on="1"/>
        <pt x="459" y="538" on="0"/>
        <pt x="451" y="551" on="0"/>
        <pt x="440" y="553" on="1"/>
        <pt x="438" y="561" on="0"/>
        <pt x="428" y="565" on="0"/>
        <pt x="424" y="570" on="1"/>
        <pt x="407" y="570" on="1"/>
        <pt x="407" y="573" on="0"/>
        <pt x="404" y="575" on="0"/>
        <pt x="399" y="577" on="0"/>
        <pt x="396" y="580" on="0"/>
        <pt x="396" y="584" on="1"/>
        <pt x="388" y="585" on="0"/>
        <pt x="378" y="594" on="1"/>
        <pt x="376" y="595" on="0"/>
        <pt x="373" y="591" on="0"/>
        <pt x="368" y="592" on="1"/>
        <pt x="363" y="600" on="0"/>
        <pt x="351" y="608" on="0"/>
        <pt x="341" y="609" on="1"/>
        <pt x="340" y="615" on="0"/>
        <pt x="333" y="617" on="0"/>
        <pt x="331" y="622" on="1"/>
        <pt x="324" y="623" on="0"/>
        <pt x="315" y="627" on="0"/>
        <pt x="307" y="632" on="0"/>
        <pt x="296" y="634" on="0"/>
        <pt x="287" y="632" on="1"/>
        <pt x="282" y="640" on="0"/>
        <pt x="274" y="642" on="0"/>
        <pt x="269" y="642" on="1"/>
        <pt x="266" y="642" on="0"/>
        <pt x="261" y="641" on="0"/>
        <pt x="258" y="641" on="1"/>
        <pt x="247" y="647" on="0"/>
        <pt x="234" y="639" on="0"/>
        <pt x="229" y="639" on="1"/>
        <pt x="221" y="642" on="0"/>
        <pt x="211" y="637" on="0"/>
        <pt x="204" y="634" on="1"/>
        <pt x="194" y="636" on="0"/>
        <pt x="174" y="636" on="0"/>
        <pt x="164" y="637" on="1"/>
        <pt x="160" y="633" on="0"/>
        <pt x="160" y="621" on="0"/>
        <pt x="163" y="609" on="0"/>
        <pt x="168" y="598" on="0"/>
        <pt x="170" y="594" on="1"/>
        <pt x="168" y="591" on="0"/>
        <pt x="165" y="585" on="0"/>
        <pt x="163" y="581" on="1"/>
        <pt x="167" y="575" on="0"/>
        <pt x="166" y="567" on="0"/>
        <pt x="172" y="561" on="1"/>
        <pt x="166" y="556" on="0"/>
        <pt x="167" y="552" on="0"/>
        <pt x="166" y="549" on="1"/>
        <pt x="173" y="529" on="0"/>
        <pt x="168" y="483" on="0"/>
        <pt x="176" y="465" on="1"/>
        <pt x="171" y="456" on="0"/>
        <pt x="173" y="437" on="0"/>
        <pt x="176" y="415" on="0"/>
        <pt x="179" y="395" on="0"/>
      </contour>
      <contour>
        <pt x="47" y="299" on="1"/>
        <pt x="44" y="300" on="0"/>
        <pt x="24" y="302" on="0"/>
        <pt x="22" y="304" on="1"/>
        <pt x="19" y="304" on="0"/>
        <pt x="14" y="302" on="0"/>
        <pt x="12" y="301" on="1"/>
        <pt x="8" y="301" on="0"/>
        <pt x="3" y="309" on="0"/>
        <pt x="-1" y="307" on="1"/>
        <pt x="-2" y="316" on="0"/>
        <pt x="-13" y="330" on="0"/>
        <pt x="-19" y="337" on="1"/>
        <pt x="-23" y="360" on="0"/>
        <pt x="-4" y="376" on="0"/>
        <pt x="15" y="382" on="1"/>
        <pt x="20" y="384" on="0"/>
        <pt x="26" y="393" on="0"/>
        <pt x="30" y="396" on="1"/>
        <pt x="34" y="396" on="0"/>
        <pt x="44" y="397" on="0"/>
        <pt x="46" y="393" on="1"/>
        <pt x="50" y="398" on="0"/>
        <pt x="66" y="397" on="0"/>
        <pt x="71" y="394" on="1"/>
        <pt x="76" y="396" on="0"/>
        <pt x="86" y="396" on="1"/>
        <pt x="87" y="412" on="0"/>
        <pt x="90" y="444" on="0"/>
        <pt x="90" y="461" on="1"/>
        <pt x="90" y="466" on="0"/>
        <pt x="88" y="474" on="0"/>
        <pt x="88" y="479" on="1"/>
        <pt x="86" y="492" on="0"/>
        <pt x="87" y="505" on="0"/>
        <pt x="83" y="510" on="1"/>
        <pt x="89" y="522" on="0"/>
        <pt x="85" y="534" on="0"/>
        <pt x="85" y="545" on="1"/>
        <pt x="85" y="551" on="0"/>
        <pt x="87" y="558" on="0"/>
        <pt x="88" y="566" on="0"/>
        <pt x="86" y="575" on="0"/>
        <pt x="81" y="581" on="1"/>
        <pt x="82" y="586" on="0"/>
        <pt x="84" y="593" on="0"/>
        <pt x="83" y="598" on="1"/>
        <pt x="78" y="607" on="0"/>
        <pt x="77" y="628" on="0"/>
        <pt x="72" y="638" on="1"/>
        <pt x="77" y="641" on="0"/>
        <pt x="74" y="646" on="0"/>
        <pt x="74" y="651" on="1"/>
        <pt x="74" y="659" on="0"/>
        <pt x="81" y="671" on="0"/>
        <pt x="81" y="678" on="1"/>
        <pt x="81" y="684" on="0"/>
        <pt x="79" y="696" on="0"/>
        <pt x="79" y="702" on="1"/>
        <pt x="90" y="704" on="0"/>
        <pt x="99" y="716" on="0"/>
        <pt x="109" y="721" on="1"/>
        <pt x="116" y="721" on="0"/>
        <pt x="128" y="719" on="0"/>
        <pt x="135" y="719" on="1"/>
        <pt x="138" y="719" on="0"/>
        <pt x="143" y="721" on="0"/>
        <pt x="146" y="721" on="1"/>
        <pt x="153" y="721" on="0"/>
        <pt x="166" y="717" on="0"/>
        <pt x="174" y="717" on="1"/>
        <pt x="176" y="717" on="0"/>
        <pt x="182" y="719" on="0"/>
        <pt x="184" y="719" on="1"/>
        <pt x="189" y="719" on="0"/>
        <pt x="196" y="717" on="0"/>
        <pt x="201" y="717" on="1"/>
        <pt x="208" y="717" on="0"/>
        <pt x="222" y="724" on="0"/>
        <pt x="229" y="726" on="1"/>
        <pt x="234" y="721" on="0"/>
        <pt x="239" y="724" on="0"/>
        <pt x="242" y="724" on="1"/>
        <pt x="257" y="721" on="0"/>
        <pt x="271" y="725" on="0"/>
        <pt x="276" y="717" on="1"/>
        <pt x="286" y="719" on="0"/>
        <pt x="304" y="717" on="0"/>
        <pt x="322" y="712" on="0"/>
        <pt x="340" y="707" on="0"/>
        <pt x="349" y="706" on="1"/>
        <pt x="367" y="681" on="0"/>
        <pt x="397" y="678" on="1"/>
        <pt x="407" y="671" on="0"/>
        <pt x="425" y="665" on="0"/>
        <pt x="428" y="661" on="1"/>
        <pt x="435" y="656" on="0"/>
        <pt x="445" y="658" on="0"/>
        <pt x="456" y="651" on="1"/>
        <pt x="466" y="646" on="0"/>
        <pt x="471" y="649" on="0"/>
        <pt x="473" y="650" on="1"/>
        <pt x="472" y="641" on="0"/>
        <pt x="475" y="643" on="0"/>
        <pt x="478" y="638" on="1"/>
        <pt x="488" y="638" on="0"/>
        <pt x="496" y="627" on="0"/>
        <pt x="507" y="627" on="1"/>
        <pt x="507" y="616" on="0"/>
        <pt x="514" y="607" on="0"/>
        <pt x="517" y="598" on="1"/>
        <pt x="523" y="592" on="0"/>
        <pt x="534" y="580" on="0"/>
        <pt x="536" y="572" on="1"/>
        <pt x="541" y="570" on="0"/>
        <pt x="544" y="566" on="0"/>
        <pt x="549" y="567" on="1"/>
        <pt x="550" y="560" on="0"/>
        <pt x="556" y="552" on="0"/>
        <pt x="561" y="548" on="1"/>
        <pt x="571" y="537" on="0"/>
        <pt x="583" y="513" on="0"/>
        <pt x="594" y="503" on="1"/>
        <pt x="596" y="498" on="0"/>
        <pt x="595" y="487" on="0"/>
        <pt x="597" y="483" on="1"/>
        <pt x="597" y="480" on="0"/>
        <pt x="602" y="477" on="0"/>
        <pt x="607" y="475" on="0"/>
        <pt x="612" y="471" on="0"/>
        <pt x="612" y="467" on="1"/>
        <pt x="612" y="464" on="0"/>
        <pt x="609" y="459" on="0"/>
        <pt x="609" y="457" on="1"/>
        <pt x="609" y="452" on="0"/>
        <pt x="615" y="442" on="0"/>
        <pt x="617" y="438" on="1"/>
        <pt x="622" y="429" on="0"/>
        <pt x="621" y="408" on="0"/>
        <pt x="627" y="401" on="1"/>
        <pt x="627" y="397" on="0"/>
        <pt x="624" y="392" on="0"/>
        <pt x="625" y="387" on="1"/>
        <pt x="624" y="384" on="0"/>
        <pt x="628" y="380" on="0"/>
        <pt x="629" y="377" on="1"/>
        <pt x="626" y="369" on="0"/>
        <pt x="627" y="355" on="0"/>
        <pt x="627" y="347" on="1"/>
        <pt x="628" y="341" on="0"/>
        <pt x="625" y="337" on="0"/>
        <pt x="625" y="334" on="1"/>
        <pt x="627" y="332" on="0"/>
        <pt x="625" y="319" on="0"/>
        <pt x="621" y="305" on="0"/>
        <pt x="616" y="293" on="0"/>
        <pt x="614" y="290" on="1"/>
        <pt x="617" y="280" on="0"/>
        <pt x="607" y="261" on="0"/>
        <pt x="609" y="256" on="1"/>
        <pt x="611" y="253" on="0"/>
        <pt x="614" y="251" on="0"/>
        <pt x="614" y="246" on="1"/>
        <pt x="603" y="238" on="0"/>
        <pt x="599" y="224" on="0"/>
        <pt x="599" y="210" on="1"/>
        <pt x="599" y="205" on="0"/>
        <pt x="592" y="203" on="0"/>
        <pt x="590" y="201" on="1"/>
        <pt x="588" y="197" on="0"/>
        <pt x="585" y="191" on="0"/>
        <pt x="580" y="188" on="1"/>
        <pt x="582" y="183" on="0"/>
        <pt x="578" y="180" on="0"/>
        <pt x="574" y="178" on="1"/>
        <pt x="572" y="176" on="0"/>
        <pt x="570" y="167" on="0"/>
        <pt x="556" y="162" on="1"/>
        <pt x="555" y="156" on="0"/>
        <pt x="550" y="153" on="0"/>
        <pt x="552" y="144" on="1"/>
        <pt x="546" y="143" on="0"/>
        <pt x="539" y="140" on="0"/>
        <pt x="534" y="136" on="1"/>
        <pt x="532" y="132" on="0"/>
        <pt x="527" y="124" on="0"/>
        <pt x="526" y="119" on="1"/>
        <pt x="521" y="115" on="0"/>
        <pt x="513" y="112" on="0"/>
        <pt x="511" y="106" on="1"/>
        <pt x="505" y="102" on="0"/>
        <pt x="497" y="100" on="0"/>
        <pt x="496" y="91" on="1"/>
        <pt x="491" y="93" on="0"/>
        <pt x="473" y="89" on="0"/>
        <pt x="469" y="86" on="1"/>
        <pt x="466" y="83" on="0"/>
        <pt x="462" y="82" on="0"/>
        <pt x="458" y="80" on="1"/>
        <pt x="448" y="75" on="0"/>
        <pt x="428" y="63" on="0"/>
        <pt x="419" y="56" on="1"/>
        <pt x="406" y="56" on="0"/>
        <pt x="381" y="51" on="0"/>
        <pt x="373" y="39" on="1"/>
        <pt x="339" y="36" on="0"/>
        <pt x="314" y="17" on="1"/>
        <pt x="308" y="19" on="0"/>
        <pt x="295" y="15" on="0"/>
        <pt x="290" y="17" on="1"/>
        <pt x="285" y="14" on="0"/>
        <pt x="274" y="11" on="0"/>
        <pt x="269" y="6" on="1"/>
        <pt x="255" y="7" on="0"/>
        <pt x="239" y="0" on="0"/>
        <pt x="226" y="-2" on="1"/>
        <pt x="220" y="-4" on="0"/>
        <pt x="207" y="-4" on="0"/>
        <pt x="201" y="-5" on="1"/>
        <pt x="188" y="-7" on="0"/>
        <pt x="181" y="-15" on="1"/>
        <pt x="176" y="-15" on="0"/>
        <pt x="164" y="-15" on="0"/>
        <pt x="162" y="-20" on="1"/>
        <pt x="153" y="-15" on="0"/>
        <pt x="136" y="-15" on="0"/>
        <pt x="127" y="-13" on="1"/>
        <pt x="123" y="-7" on="0"/>
        <pt x="119" y="-1" on="0"/>
        <pt x="111" y="-2" on="1"/>
        <pt x="109" y="14" on="0"/>
        <pt x="96" y="15" on="1"/>
        <pt x="96" y="22" on="0"/>
        <pt x="96" y="36" on="0"/>
        <pt x="91" y="41" on="1"/>
        <pt x="93" y="46" on="0"/>
        <pt x="101" y="63" on="0"/>
        <pt x="101" y="68" on="1"/>
        <pt x="101" y="70" on="0"/>
        <pt x="97" y="76" on="0"/>
        <pt x="96" y="78" on="1"/>
        <pt x="101" y="90" on="0"/>
        <pt x="96" y="106" on="0"/>
        <pt x="96" y="118" on="1"/>
        <pt x="96" y="121" on="0"/>
        <pt x="98" y="126" on="0"/>
        <pt x="98" y="129" on="1"/>
        <pt x="98" y="132" on="0"/>
        <pt x="94" y="137" on="0"/>
        <pt x="94" y="140" on="1"/>
        <pt x="94" y="148" on="0"/>
        <pt x="100" y="164" on="0"/>
        <pt x="100" y="172" on="1"/>
        <pt x="100" y="177" on="0"/>
        <pt x="96" y="186" on="0"/>
        <pt x="96" y="191" on="1"/>
        <pt x="98" y="204" on="0"/>
        <pt x="96" y="209" on="0"/>
        <pt x="96" y="213" on="1"/>
        <pt x="91" y="224" on="0"/>
        <pt x="95" y="244" on="0"/>
        <pt x="96" y="249" on="1"/>
        <pt x="92" y="254" on="0"/>
        <pt x="98" y="262" on="0"/>
        <pt x="98" y="267" on="1"/>
        <pt x="98" y="271" on="0"/>
        <pt x="94" y="278" on="0"/>
        <pt x="94" y="283" on="1"/>
        <pt x="94" y="287" on="0"/>
        <pt x="96" y="293" on="0"/>
        <pt x="96" y="297" on="1"/>
        <pt x="96" y="302" on="0"/>
        <pt x="96" y="310" on="0"/>
        <pt x="95" y="315" on="1"/>
        <pt x="79" y="315" on="0"/>
        <pt x="67" y="311" on="1"/>
        <pt x="62" y="309" on="0"/>
        <pt x="53" y="301" on="0"/>
      </contour>
    </TTGlyph>
    <TTGlyph name="Euro" xMin="5" yMin="64" xMax="777" yMax="655">
      <contour>
        <pt x="749" y="127" on="1"/>
        <pt x="735" y="125" on="0"/>
        <pt x="708" y="117" on="0"/>
        <pt x="697" y="107" on="1"/>
        <pt x="693" y="107" on="0"/>
        <pt x="686" y="105" on="0"/>
        <pt x="682" y="105" on="1"/>
        <pt x="676" y="105" on="0"/>
        <pt x="674" y="98" on="0"/>
        <pt x="669" y="96" on="1"/>
        <pt x="665" y="98" on="0"/>
        <pt x="658" y="96" on="0"/>
        <pt x="653" y="93" on="0"/>
        <pt x="648" y="91" on="0"/>
        <pt x="645" y="94" on="1"/>
        <pt x="637" y="88" on="0"/>
        <pt x="632" y="86" on="1"/>
        <pt x="616" y="83" on="0"/>
        <pt x="599" y="81" on="0"/>
        <pt x="591" y="79" on="1"/>
        <pt x="587" y="78" on="0"/>
        <pt x="580" y="74" on="0"/>
        <pt x="576" y="73" on="1"/>
        <pt x="568" y="71" on="0"/>
        <pt x="550" y="70" on="0"/>
        <pt x="541" y="70" on="1"/>
        <pt x="530" y="73" on="0"/>
        <pt x="518" y="67" on="0"/>
        <pt x="511" y="66" on="1"/>
        <pt x="503" y="65" on="0"/>
        <pt x="487" y="69" on="0"/>
        <pt x="479" y="64" on="1"/>
        <pt x="470" y="68" on="0"/>
        <pt x="460" y="69" on="0"/>
        <pt x="453" y="67" on="0"/>
        <pt x="448" y="64" on="0"/>
        <pt x="443" y="64" on="1"/>
        <pt x="442" y="64" on="0"/>
        <pt x="432" y="66" on="0"/>
        <pt x="421" y="68" on="0"/>
        <pt x="410" y="70" on="0"/>
        <pt x="409" y="70" on="1"/>
        <pt x="399" y="75" on="0"/>
        <pt x="395" y="73" on="0"/>
        <pt x="393" y="73" on="1"/>
        <pt x="389" y="73" on="0"/>
        <pt x="375" y="78" on="0"/>
        <pt x="370" y="79" on="1"/>
        <pt x="362" y="81" on="0"/>
        <pt x="343" y="82" on="0"/>
        <pt x="338" y="90" on="1"/>
        <pt x="329" y="88" on="0"/>
        <pt x="311" y="95" on="0"/>
        <pt x="292" y="104" on="0"/>
        <pt x="273" y="113" on="0"/>
        <pt x="264" y="114" on="1"/>
        <pt x="263" y="118" on="0"/>
        <pt x="254" y="120" on="0"/>
        <pt x="253" y="125" on="1"/>
        <pt x="248" y="125" on="0"/>
        <pt x="239" y="127" on="0"/>
        <pt x="236" y="131" on="1"/>
        <pt x="234" y="132" on="0"/>
        <pt x="226" y="139" on="0"/>
        <pt x="218" y="148" on="0"/>
        <pt x="212" y="157" on="0"/>
        <pt x="212" y="159" on="1"/>
        <pt x="199" y="159" on="1"/>
        <pt x="196" y="174" on="0"/>
        <pt x="188" y="185" on="1"/>
        <pt x="186" y="189" on="0"/>
        <pt x="177" y="190" on="0"/>
        <pt x="173" y="192" on="1"/>
        <pt x="171" y="203" on="0"/>
        <pt x="159" y="221" on="0"/>
        <pt x="154" y="231" on="1"/>
        <pt x="150" y="232" on="0"/>
        <pt x="135" y="232" on="0"/>
        <pt x="120" y="231" on="0"/>
        <pt x="108" y="231" on="0"/>
        <pt x="106" y="233" on="1"/>
        <pt x="103" y="232" on="0"/>
        <pt x="97" y="229" on="0"/>
        <pt x="94" y="229" on="1"/>
        <pt x="90" y="229" on="0"/>
        <pt x="82" y="231" on="0"/>
        <pt x="78" y="231" on="1"/>
        <pt x="73" y="231" on="0"/>
        <pt x="62" y="228" on="0"/>
        <pt x="57" y="228" on="1"/>
        <pt x="53" y="228" on="0"/>
        <pt x="33" y="235" on="0"/>
        <pt x="30" y="237" on="1"/>
        <pt x="26" y="251" on="0"/>
        <pt x="23" y="253" on="0"/>
        <pt x="23" y="260" on="1"/>
        <pt x="23" y="267" on="0"/>
        <pt x="26" y="280" on="0"/>
        <pt x="28" y="287" on="1"/>
        <pt x="30" y="289" on="0"/>
        <pt x="37" y="289" on="0"/>
        <pt x="39" y="291" on="1"/>
        <pt x="42" y="294" on="0"/>
        <pt x="44" y="296" on="0"/>
        <pt x="45" y="297" on="0"/>
        <pt x="48" y="298" on="0"/>
        <pt x="53" y="298" on="1"/>
        <pt x="65" y="298" on="0"/>
        <pt x="68" y="302" on="0"/>
        <pt x="71" y="302" on="1"/>
        <pt x="77" y="302" on="0"/>
        <pt x="87" y="298" on="0"/>
        <pt x="93" y="298" on="1"/>
        <pt x="99" y="298" on="0"/>
        <pt x="111" y="302" on="0"/>
        <pt x="117" y="302" on="1"/>
        <pt x="121" y="302" on="0"/>
        <pt x="128" y="301" on="0"/>
        <pt x="132" y="301" on="1"/>
        <pt x="140" y="301" on="0"/>
        <pt x="145" y="307" on="1"/>
        <pt x="143" y="315" on="0"/>
        <pt x="145" y="332" on="0"/>
        <pt x="145" y="340" on="1"/>
        <pt x="145" y="346" on="0"/>
        <pt x="142" y="351" on="0"/>
        <pt x="141" y="356" on="1"/>
        <pt x="143" y="358" on="0"/>
        <pt x="142" y="363" on="0"/>
        <pt x="142" y="366" on="1"/>
        <pt x="142" y="374" on="0"/>
        <pt x="145" y="387" on="0"/>
        <pt x="145" y="395" on="1"/>
        <pt x="132" y="404" on="0"/>
        <pt x="113" y="393" on="0"/>
        <pt x="102" y="393" on="1"/>
        <pt x="99" y="393" on="0"/>
        <pt x="94" y="396" on="0"/>
        <pt x="91" y="398" on="1"/>
        <pt x="76" y="393" on="0"/>
        <pt x="45" y="386" on="0"/>
        <pt x="30" y="382" on="1"/>
        <pt x="26" y="384" on="0"/>
        <pt x="22" y="390" on="0"/>
        <pt x="19" y="393" on="1"/>
        <pt x="10" y="404" on="0"/>
        <pt x="5" y="415" on="0"/>
        <pt x="5" y="429" on="1"/>
        <pt x="5" y="437" on="0"/>
        <pt x="8" y="445" on="0"/>
        <pt x="13" y="450" on="0"/>
        <pt x="20" y="455" on="0"/>
        <pt x="24" y="460" on="1"/>
        <pt x="35" y="458" on="0"/>
        <pt x="50" y="465" on="0"/>
        <pt x="60" y="465" on="1"/>
        <pt x="64" y="465" on="0"/>
        <pt x="69" y="462" on="0"/>
        <pt x="73" y="462" on="1"/>
        <pt x="82" y="462" on="0"/>
        <pt x="99" y="471" on="0"/>
        <pt x="109" y="471" on="1"/>
        <pt x="113" y="471" on="0"/>
        <pt x="119" y="469" on="0"/>
        <pt x="122" y="469" on="1"/>
        <pt x="127" y="469" on="0"/>
        <pt x="134" y="471" on="0"/>
        <pt x="138" y="471" on="1"/>
        <pt x="143" y="471" on="0"/>
        <pt x="153" y="470" on="0"/>
        <pt x="158" y="470" on="1"/>
        <pt x="168" y="470" on="0"/>
        <pt x="177" y="477" on="0"/>
        <pt x="182" y="487" on="0"/>
        <pt x="187" y="496" on="0"/>
        <pt x="193" y="499" on="1"/>
        <pt x="190" y="503" on="0"/>
        <pt x="190" y="510" on="1"/>
        <pt x="197" y="512" on="0"/>
        <pt x="201" y="522" on="0"/>
        <pt x="203" y="527" on="1"/>
        <pt x="206" y="532" on="0"/>
        <pt x="213" y="540" on="0"/>
        <pt x="214" y="545" on="1"/>
        <pt x="223" y="554" on="0"/>
        <pt x="229" y="561" on="0"/>
        <pt x="229" y="566" on="1"/>
        <pt x="244" y="571" on="0"/>
        <pt x="249" y="586" on="1"/>
        <pt x="255" y="586" on="0"/>
        <pt x="263" y="592" on="0"/>
        <pt x="269" y="600" on="0"/>
        <pt x="276" y="607" on="0"/>
        <pt x="281" y="608" on="1"/>
        <pt x="280" y="597" on="1"/>
        <pt x="283" y="597" on="0"/>
        <pt x="286" y="606" on="0"/>
        <pt x="288" y="608" on="1"/>
        <pt x="291" y="610" on="0"/>
        <pt x="301" y="611" on="0"/>
        <pt x="301" y="616" on="1"/>
        <pt x="309" y="618" on="0"/>
        <pt x="326" y="622" on="0"/>
        <pt x="331" y="629" on="1"/>
        <pt x="340" y="629" on="0"/>
        <pt x="346" y="630" on="0"/>
        <pt x="348" y="632" on="0"/>
        <pt x="349" y="636" on="0"/>
        <pt x="353" y="638" on="1"/>
        <pt x="365" y="636" on="0"/>
        <pt x="395" y="641" on="0"/>
        <pt x="405" y="649" on="1"/>
        <pt x="427" y="649" on="1"/>
        <pt x="433" y="649" on="0"/>
        <pt x="440" y="653" on="0"/>
        <pt x="443" y="653" on="1"/>
        <pt x="445" y="653" on="0"/>
        <pt x="450" y="651" on="0"/>
        <pt x="453" y="651" on="1"/>
        <pt x="455" y="651" on="0"/>
        <pt x="461" y="655" on="0"/>
        <pt x="466" y="655" on="1"/>
        <pt x="470" y="655" on="0"/>
        <pt x="477" y="651" on="0"/>
        <pt x="482" y="651" on="1"/>
        <pt x="484" y="651" on="0"/>
        <pt x="489" y="653" on="0"/>
        <pt x="492" y="653" on="1"/>
        <pt x="494" y="653" on="0"/>
        <pt x="499" y="651" on="0"/>
        <pt x="502" y="651" on="1"/>
        <pt x="514" y="653" on="0"/>
        <pt x="526" y="651" on="0"/>
        <pt x="531" y="647" on="1"/>
        <pt x="545" y="651" on="0"/>
        <pt x="557" y="649" on="0"/>
        <pt x="565" y="651" on="1"/>
        <pt x="573" y="648" on="0"/>
        <pt x="582" y="641" on="0"/>
        <pt x="591" y="644" on="1"/>
        <pt x="599" y="636" on="0"/>
        <pt x="615" y="627" on="0"/>
        <pt x="626" y="627" on="1"/>
        <pt x="635" y="620" on="0"/>
        <pt x="657" y="611" on="0"/>
        <pt x="665" y="603" on="1"/>
        <pt x="666" y="601" on="0"/>
        <pt x="665" y="591" on="0"/>
        <pt x="660" y="590" on="1"/>
        <pt x="661" y="587" on="0"/>
        <pt x="665" y="582" on="0"/>
        <pt x="667" y="579" on="1"/>
        <pt x="662" y="577" on="0"/>
        <pt x="666" y="567" on="0"/>
        <pt x="665" y="562" on="1"/>
        <pt x="661" y="559" on="0"/>
        <pt x="656" y="550" on="0"/>
        <pt x="652" y="547" on="1"/>
        <pt x="643" y="549" on="0"/>
        <pt x="636" y="546" on="0"/>
        <pt x="628" y="543" on="1"/>
        <pt x="623" y="545" on="0"/>
        <pt x="616" y="551" on="0"/>
        <pt x="615" y="556" on="1"/>
        <pt x="603" y="558" on="0"/>
        <pt x="582" y="577" on="0"/>
        <pt x="568" y="577" on="1"/>
        <pt x="564" y="577" on="0"/>
        <pt x="561" y="571" on="0"/>
        <pt x="556" y="573" on="1"/>
        <pt x="551" y="580" on="0"/>
        <pt x="537" y="582" on="0"/>
        <pt x="523" y="581" on="0"/>
        <pt x="511" y="581" on="0"/>
        <pt x="509" y="584" on="1"/>
        <pt x="501" y="582" on="0"/>
        <pt x="489" y="576" on="0"/>
        <pt x="481" y="576" on="1"/>
        <pt x="464" y="577" on="0"/>
        <pt x="461" y="569" on="1"/>
        <pt x="458" y="571" on="0"/>
        <pt x="450" y="572" on="0"/>
        <pt x="448" y="575" on="1"/>
        <pt x="431" y="571" on="0"/>
        <pt x="409" y="571" on="1"/>
        <pt x="395" y="571" on="0"/>
        <pt x="384" y="565" on="0"/>
        <pt x="372" y="560" on="1"/>
        <pt x="367" y="558" on="0"/>
        <pt x="358" y="556" on="0"/>
        <pt x="353" y="553" on="1"/>
        <pt x="341" y="543" on="0"/>
        <pt x="325" y="542" on="0"/>
        <pt x="323" y="534" on="1"/>
        <pt x="316" y="535" on="0"/>
        <pt x="310" y="530" on="0"/>
        <pt x="305" y="530" on="1"/>
        <pt x="301" y="519" on="0"/>
        <pt x="288" y="500" on="0"/>
        <pt x="284" y="489" on="1"/>
        <pt x="293" y="481" on="0"/>
        <pt x="317" y="479" on="0"/>
        <pt x="344" y="481" on="0"/>
        <pt x="368" y="481" on="0"/>
        <pt x="377" y="475" on="1"/>
        <pt x="385" y="480" on="0"/>
        <pt x="403" y="477" on="0"/>
        <pt x="411" y="477" on="1"/>
        <pt x="417" y="477" on="0"/>
        <pt x="428" y="482" on="0"/>
        <pt x="434" y="482" on="1"/>
        <pt x="461" y="482" on="1"/>
        <pt x="464" y="482" on="0"/>
        <pt x="469" y="484" on="0"/>
        <pt x="472" y="484" on="1"/>
        <pt x="484" y="482" on="0"/>
        <pt x="490" y="486" on="0"/>
        <pt x="495" y="486" on="1"/>
        <pt x="501" y="486" on="0"/>
        <pt x="511" y="484" on="1"/>
        <pt x="517" y="483" on="0"/>
        <pt x="529" y="485" on="0"/>
        <pt x="535" y="485" on="1"/>
        <pt x="551" y="485" on="0"/>
        <pt x="566" y="460" on="0"/>
        <pt x="574" y="450" on="1"/>
        <pt x="573" y="445" on="0"/>
        <pt x="571" y="436" on="0"/>
        <pt x="574" y="432" on="1"/>
        <pt x="569" y="427" on="0"/>
        <pt x="551" y="428" on="0"/>
        <pt x="546" y="421" on="1"/>
        <pt x="548" y="412" on="0"/>
        <pt x="543" y="404" on="0"/>
        <pt x="541" y="404" on="1"/>
        <pt x="533" y="404" on="0"/>
        <pt x="530" y="415" on="0"/>
        <pt x="524" y="417" on="1"/>
        <pt x="517" y="415" on="0"/>
        <pt x="509" y="408" on="0"/>
        <pt x="501" y="408" on="1"/>
        <pt x="492" y="408" on="0"/>
        <pt x="473" y="411" on="0"/>
        <pt x="468" y="393" on="1"/>
        <pt x="461" y="395" on="0"/>
        <pt x="445" y="395" on="0"/>
        <pt x="440" y="400" on="1"/>
        <pt x="433" y="401" on="0"/>
        <pt x="431" y="393" on="0"/>
        <pt x="427" y="391" on="1"/>
        <pt x="422" y="393" on="0"/>
        <pt x="415" y="402" on="0"/>
        <pt x="409" y="404" on="1"/>
        <pt x="405" y="401" on="0"/>
        <pt x="397" y="402" on="0"/>
        <pt x="393" y="402" on="1"/>
        <pt x="386" y="402" on="0"/>
        <pt x="374" y="398" on="0"/>
        <pt x="367" y="398" on="1"/>
        <pt x="359" y="398" on="0"/>
        <pt x="344" y="404" on="0"/>
        <pt x="336" y="404" on="1"/>
        <pt x="326" y="404" on="0"/>
        <pt x="303" y="401" on="0"/>
        <pt x="294" y="406" on="1"/>
        <pt x="280" y="400" on="0"/>
        <pt x="250" y="406" on="0"/>
        <pt x="236" y="404" on="1"/>
        <pt x="231" y="401" on="0"/>
        <pt x="229" y="392" on="0"/>
        <pt x="229" y="382" on="0"/>
        <pt x="229" y="372" on="0"/>
        <pt x="227" y="369" on="1"/>
        <pt x="228" y="355" on="0"/>
        <pt x="229" y="327" on="0"/>
        <pt x="229" y="313" on="1"/>
        <pt x="234" y="309" on="0"/>
        <pt x="248" y="313" on="0"/>
        <pt x="253" y="315" on="1"/>
        <pt x="261" y="313" on="0"/>
        <pt x="273" y="314" on="0"/>
        <pt x="282" y="318" on="0"/>
        <pt x="290" y="322" on="0"/>
        <pt x="295" y="322" on="1"/>
        <pt x="306" y="319" on="0"/>
        <pt x="337" y="327" on="0"/>
        <pt x="348" y="327" on="1"/>
        <pt x="353" y="327" on="0"/>
        <pt x="361" y="326" on="0"/>
        <pt x="366" y="326" on="1"/>
        <pt x="369" y="326" on="0"/>
        <pt x="379" y="333" on="0"/>
        <pt x="381" y="335" on="1"/>
        <pt x="395" y="331" on="0"/>
        <pt x="411" y="329" on="0"/>
        <pt x="423" y="331" on="0"/>
        <pt x="436" y="335" on="0"/>
        <pt x="448" y="337" on="1"/>
        <pt x="453" y="338" on="0"/>
        <pt x="463" y="336" on="0"/>
        <pt x="468" y="336" on="1"/>
        <pt x="476" y="336" on="0"/>
        <pt x="488" y="346" on="0"/>
        <pt x="496" y="348" on="1"/>
        <pt x="507" y="345" on="0"/>
        <pt x="526" y="353" on="0"/>
        <pt x="533" y="351" on="1"/>
        <pt x="547" y="355" on="0"/>
        <pt x="552" y="350" on="0"/>
        <pt x="556" y="350" on="1"/>
        <pt x="558" y="350" on="0"/>
        <pt x="567" y="352" on="0"/>
        <pt x="576" y="355" on="0"/>
        <pt x="582" y="359" on="0"/>
        <pt x="582" y="361" on="1"/>
        <pt x="595" y="361" on="1"/>
        <pt x="604" y="359" on="0"/>
        <pt x="623" y="336" on="0"/>
        <pt x="628" y="328" on="1"/>
        <pt x="626" y="320" on="0"/>
        <pt x="621" y="304" on="0"/>
        <pt x="617" y="296" on="1"/>
        <pt x="610" y="296" on="0"/>
        <pt x="603" y="289" on="0"/>
        <pt x="598" y="287" on="1"/>
        <pt x="592" y="285" on="0"/>
        <pt x="591" y="276" on="0"/>
        <pt x="587" y="274" on="1"/>
        <pt x="582" y="274" on="0"/>
        <pt x="573" y="279" on="0"/>
        <pt x="567" y="279" on="1"/>
        <pt x="559" y="279" on="0"/>
        <pt x="545" y="274" on="0"/>
        <pt x="537" y="274" on="1"/>
        <pt x="528" y="274" on="0"/>
        <pt x="516" y="270" on="0"/>
        <pt x="511" y="274" on="1"/>
        <pt x="506" y="272" on="0"/>
        <pt x="496" y="267" on="0"/>
        <pt x="492" y="263" on="1"/>
        <pt x="484" y="267" on="0"/>
        <pt x="463" y="263" on="0"/>
        <pt x="457" y="257" on="1"/>
        <pt x="453" y="256" on="0"/>
        <pt x="450" y="263" on="0"/>
        <pt x="446" y="263" on="1"/>
        <pt x="437" y="263" on="0"/>
        <pt x="412" y="260" on="0"/>
        <pt x="405" y="268" on="1"/>
        <pt x="400" y="269" on="0"/>
        <pt x="398" y="262" on="0"/>
        <pt x="394" y="261" on="1"/>
        <pt x="380" y="258" on="0"/>
        <pt x="363" y="258" on="1"/>
        <pt x="357" y="258" on="0"/>
        <pt x="346" y="264" on="0"/>
        <pt x="340" y="264" on="1"/>
        <pt x="335" y="264" on="0"/>
        <pt x="333" y="258" on="0"/>
        <pt x="329" y="257" on="1"/>
        <pt x="320" y="255" on="0"/>
        <pt x="296" y="254" on="0"/>
        <pt x="273" y="251" on="0"/>
        <pt x="252" y="245" on="0"/>
        <pt x="245" y="237" on="1"/>
        <pt x="251" y="231" on="0"/>
        <pt x="251" y="229" on="0"/>
        <pt x="260" y="224" on="1"/>
        <pt x="264" y="214" on="0"/>
        <pt x="269" y="215" on="0"/>
        <pt x="271" y="213" on="1"/>
        <pt x="275" y="202" on="0"/>
        <pt x="281" y="198" on="0"/>
        <pt x="281" y="192" on="1"/>
        <pt x="288" y="190" on="0"/>
        <pt x="297" y="186" on="0"/>
        <pt x="305" y="187" on="1"/>
        <pt x="305" y="180" on="0"/>
        <pt x="307" y="177" on="1"/>
        <pt x="316" y="177" on="0"/>
        <pt x="325" y="168" on="0"/>
        <pt x="336" y="170" on="1"/>
        <pt x="341" y="163" on="0"/>
        <pt x="359" y="162" on="0"/>
        <pt x="364" y="155" on="1"/>
        <pt x="376" y="152" on="0"/>
        <pt x="407" y="150" on="0"/>
        <pt x="418" y="142" on="1"/>
        <pt x="432" y="147" on="0"/>
        <pt x="440" y="142" on="0"/>
        <pt x="450" y="138" on="1"/>
        <pt x="454" y="138" on="0"/>
        <pt x="462" y="137" on="0"/>
        <pt x="466" y="137" on="1"/>
        <pt x="471" y="137" on="0"/>
        <pt x="476" y="140" on="0"/>
        <pt x="481" y="142" on="1"/>
        <pt x="490" y="144" on="0"/>
        <pt x="508" y="142" on="0"/>
        <pt x="518" y="144" on="1"/>
        <pt x="521" y="145" on="0"/>
        <pt x="533" y="151" on="0"/>
        <pt x="535" y="151" on="1"/>
        <pt x="545" y="148" on="0"/>
        <pt x="548" y="153" on="0"/>
        <pt x="550" y="153" on="1"/>
        <pt x="555" y="153" on="0"/>
        <pt x="564" y="151" on="0"/>
        <pt x="569" y="151" on="1"/>
        <pt x="583" y="156" on="0"/>
        <pt x="599" y="157" on="0"/>
        <pt x="615" y="159" on="0"/>
        <pt x="631" y="163" on="0"/>
        <pt x="639" y="170" on="1"/>
        <pt x="643" y="170" on="0"/>
        <pt x="658" y="174" on="0"/>
        <pt x="673" y="181" on="0"/>
        <pt x="685" y="190" on="0"/>
        <pt x="686" y="194" on="1"/>
        <pt x="700" y="194" on="0"/>
        <pt x="722" y="205" on="0"/>
        <pt x="734" y="205" on="1"/>
        <pt x="740" y="205" on="0"/>
        <pt x="745" y="210" on="0"/>
        <pt x="747" y="210" on="1"/>
        <pt x="756" y="201" on="0"/>
        <pt x="762" y="202" on="0"/>
        <pt x="764" y="200" on="1"/>
        <pt x="766" y="192" on="0"/>
        <pt x="777" y="182" on="0"/>
        <pt x="777" y="174" on="1"/>
        <pt x="777" y="170" on="0"/>
        <pt x="770" y="158" on="0"/>
        <pt x="761" y="144" on="0"/>
        <pt x="751" y="131" on="0"/>
      </contour>
    </TTGlyph>
    <TTGlyph name="F" xMin="72" yMin="1" xMax="571" yMax="725">
      <contour>
        <pt x="188" y="98" on="1"/>
        <pt x="190" y="96" on="0"/>
        <pt x="196" y="94" on="0"/>
        <pt x="198" y="90" on="1"/>
        <pt x="194" y="81" on="0"/>
        <pt x="197" y="65" on="0"/>
        <pt x="197" y="56" on="1"/>
        <pt x="197" y="47" on="0"/>
        <pt x="191" y="39" on="0"/>
        <pt x="183" y="33" on="0"/>
        <pt x="175" y="26" on="0"/>
        <pt x="173" y="20" on="1"/>
        <pt x="166" y="20" on="0"/>
        <pt x="150" y="12" on="0"/>
        <pt x="135" y="5" on="0"/>
        <pt x="121" y="1" on="0"/>
        <pt x="117" y="6" on="1"/>
        <pt x="111" y="16" on="0"/>
        <pt x="107" y="17" on="0"/>
        <pt x="105" y="19" on="1"/>
        <pt x="102" y="30" on="0"/>
        <pt x="92" y="41" on="0"/>
        <pt x="90" y="44" on="1"/>
        <pt x="96" y="54" on="0"/>
        <pt x="86" y="64" on="0"/>
        <pt x="83" y="72" on="1"/>
        <pt x="88" y="74" on="0"/>
        <pt x="91" y="77" on="0"/>
        <pt x="93" y="81" on="1"/>
        <pt x="91" y="88" on="0"/>
        <pt x="91" y="93" on="0"/>
        <pt x="94" y="99" on="1"/>
        <pt x="95" y="133" on="1"/>
        <pt x="95" y="137" on="0"/>
        <pt x="93" y="145" on="1"/>
        <pt x="95" y="157" on="0"/>
        <pt x="94" y="177" on="0"/>
        <pt x="94" y="199" on="0"/>
        <pt x="95" y="218" on="0"/>
        <pt x="95" y="223" on="1"/>
        <pt x="96" y="227" on="0"/>
        <pt x="98" y="233" on="0"/>
        <pt x="98" y="236" on="1"/>
        <pt x="98" y="241" on="0"/>
        <pt x="92" y="253" on="0"/>
        <pt x="92" y="259" on="1"/>
        <pt x="92" y="270" on="0"/>
        <pt x="95" y="290" on="0"/>
        <pt x="95" y="300" on="1"/>
        <pt x="95" y="303" on="0"/>
        <pt x="93" y="307" on="0"/>
        <pt x="93" y="310" on="1"/>
        <pt x="96" y="314" on="0"/>
        <pt x="95" y="319" on="0"/>
        <pt x="93" y="324" on="1"/>
        <pt x="93" y="329" on="0"/>
        <pt x="93" y="345" on="0"/>
        <pt x="95" y="350" on="1"/>
        <pt x="90" y="367" on="0"/>
        <pt x="95" y="390" on="0"/>
        <pt x="95" y="401" on="1"/>
        <pt x="95" y="411" on="0"/>
        <pt x="92" y="430" on="0"/>
        <pt x="90" y="439" on="1"/>
        <pt x="98" y="444" on="0"/>
        <pt x="91" y="455" on="0"/>
        <pt x="88" y="459" on="1"/>
        <pt x="92" y="469" on="0"/>
        <pt x="88" y="490" on="0"/>
        <pt x="89" y="492" on="1"/>
        <pt x="88" y="501" on="0"/>
        <pt x="86" y="508" on="0"/>
        <pt x="86" y="514" on="0"/>
        <pt x="88" y="520" on="0"/>
        <pt x="88" y="526" on="1"/>
        <pt x="88" y="537" on="0"/>
        <pt x="83" y="560" on="0"/>
        <pt x="84" y="571" on="1"/>
        <pt x="84" y="582" on="0"/>
        <pt x="84" y="601" on="0"/>
        <pt x="76" y="610" on="1"/>
        <pt x="78" y="613" on="0"/>
        <pt x="80" y="619" on="0"/>
        <pt x="83" y="621" on="1"/>
        <pt x="78" y="628" on="0"/>
        <pt x="80" y="635" on="0"/>
        <pt x="80" y="642" on="1"/>
        <pt x="80" y="650" on="0"/>
        <pt x="72" y="663" on="0"/>
        <pt x="72" y="668" on="1"/>
        <pt x="72" y="671" on="0"/>
        <pt x="74" y="684" on="0"/>
        <pt x="78" y="699" on="0"/>
        <pt x="81" y="711" on="0"/>
        <pt x="83" y="712" on="1"/>
        <pt x="88" y="712" on="0"/>
        <pt x="94" y="716" on="0"/>
        <pt x="98" y="718" on="1"/>
        <pt x="99" y="718" on="0"/>
        <pt x="109" y="721" on="0"/>
        <pt x="121" y="723" on="0"/>
        <pt x="131" y="725" on="0"/>
        <pt x="132" y="725" on="1"/>
        <pt x="139" y="721" on="0"/>
        <pt x="145" y="717" on="1"/>
        <pt x="150" y="714" on="0"/>
        <pt x="159" y="708" on="0"/>
        <pt x="160" y="708" on="1"/>
        <pt x="168" y="710" on="0"/>
        <pt x="185" y="706" on="0"/>
        <pt x="202" y="703" on="0"/>
        <pt x="218" y="704" on="0"/>
        <pt x="225" y="710" on="1"/>
        <pt x="234" y="704" on="0"/>
        <pt x="264" y="709" on="0"/>
        <pt x="272" y="714" on="1"/>
        <pt x="292" y="707" on="0"/>
        <pt x="332" y="714" on="0"/>
        <pt x="352" y="710" on="1"/>
        <pt x="358" y="711" on="0"/>
        <pt x="360" y="720" on="1"/>
        <pt x="370" y="713" on="0"/>
        <pt x="384" y="718" on="0"/>
        <pt x="395" y="718" on="1"/>
        <pt x="400" y="718" on="0"/>
        <pt x="411" y="716" on="0"/>
        <pt x="416" y="716" on="1"/>
        <pt x="423" y="716" on="0"/>
        <pt x="428" y="721" on="1"/>
        <pt x="434" y="716" on="0"/>
        <pt x="454" y="718" on="0"/>
        <pt x="462" y="718" on="1"/>
        <pt x="467" y="718" on="0"/>
        <pt x="477" y="716" on="0"/>
        <pt x="482" y="714" on="1"/>
        <pt x="492" y="716" on="0"/>
        <pt x="511" y="720" on="0"/>
        <pt x="521" y="720" on="1"/>
        <pt x="534" y="720" on="0"/>
        <pt x="557" y="713" on="0"/>
        <pt x="570" y="699" on="0"/>
        <pt x="571" y="679" on="0"/>
        <pt x="563" y="666" on="1"/>
        <pt x="565" y="659" on="0"/>
        <pt x="563" y="650" on="0"/>
        <pt x="563" y="644" on="1"/>
        <pt x="556" y="637" on="0"/>
        <pt x="540" y="636" on="0"/>
        <pt x="535" y="628" on="1"/>
        <pt x="530" y="630" on="0"/>
        <pt x="522" y="633" on="0"/>
        <pt x="517" y="635" on="1"/>
        <pt x="507" y="632" on="0"/>
        <pt x="487" y="632" on="0"/>
        <pt x="466" y="633" on="0"/>
        <pt x="447" y="632" on="0"/>
        <pt x="438" y="627" on="1"/>
        <pt x="433" y="629" on="0"/>
        <pt x="423" y="630" on="0"/>
        <pt x="418" y="633" on="1"/>
        <pt x="408" y="631" on="0"/>
        <pt x="374" y="626" on="0"/>
        <pt x="365" y="631" on="1"/>
        <pt x="359" y="627" on="0"/>
        <pt x="343" y="629" on="0"/>
        <pt x="329" y="631" on="0"/>
        <pt x="320" y="631" on="0"/>
        <pt x="320" y="625" on="1"/>
        <pt x="312" y="623" on="0"/>
        <pt x="310" y="629" on="0"/>
        <pt x="306" y="629" on="1"/>
        <pt x="300" y="629" on="0"/>
        <pt x="290" y="625" on="0"/>
        <pt x="284" y="625" on="1"/>
        <pt x="279" y="625" on="0"/>
        <pt x="261" y="627" on="0"/>
        <pt x="243" y="627" on="0"/>
        <pt x="227" y="623" on="0"/>
        <pt x="224" y="618" on="1"/>
        <pt x="207" y="625" on="0"/>
        <pt x="187" y="617" on="0"/>
        <pt x="171" y="616" on="1"/>
        <pt x="170" y="608" on="0"/>
        <pt x="174" y="602" on="1"/>
        <pt x="173" y="579" on="0"/>
        <pt x="181" y="536" on="0"/>
        <pt x="181" y="514" on="1"/>
        <pt x="192" y="509" on="0"/>
        <pt x="183" y="501" on="0"/>
        <pt x="179" y="494" on="1"/>
        <pt x="183" y="490" on="0"/>
        <pt x="188" y="481" on="0"/>
        <pt x="193" y="478" on="1"/>
        <pt x="201" y="481" on="0"/>
        <pt x="218" y="478" on="0"/>
        <pt x="224" y="486" on="1"/>
        <pt x="230" y="485" on="0"/>
        <pt x="243" y="484" on="0"/>
        <pt x="249" y="484" on="1"/>
        <pt x="258" y="484" on="0"/>
        <pt x="275" y="488" on="0"/>
        <pt x="284" y="488" on="1"/>
        <pt x="289" y="488" on="0"/>
        <pt x="292" y="485" on="0"/>
        <pt x="296" y="484" on="1"/>
        <pt x="306" y="488" on="0"/>
        <pt x="326" y="487" on="0"/>
        <pt x="336" y="491" on="1"/>
        <pt x="346" y="496" on="0"/>
        <pt x="358" y="493" on="1"/>
        <pt x="375" y="492" on="0"/>
        <pt x="388" y="497" on="0"/>
        <pt x="396" y="497" on="1"/>
        <pt x="401" y="497" on="0"/>
        <pt x="405" y="492" on="0"/>
        <pt x="409" y="492" on="1"/>
        <pt x="420" y="492" on="0"/>
        <pt x="440" y="503" on="0"/>
        <pt x="451" y="497" on="1"/>
        <pt x="458" y="501" on="0"/>
        <pt x="470" y="508" on="0"/>
        <pt x="477" y="512" on="1"/>
        <pt x="485" y="511" on="0"/>
        <pt x="492" y="501" on="0"/>
        <pt x="496" y="501" on="1"/>
        <pt x="501" y="501" on="0"/>
        <pt x="512" y="503" on="0"/>
        <pt x="518" y="503" on="1"/>
        <pt x="525" y="503" on="0"/>
        <pt x="535" y="495" on="0"/>
        <pt x="542" y="497" on="1"/>
        <pt x="548" y="488" on="0"/>
        <pt x="552" y="470" on="0"/>
        <pt x="554" y="459" on="1"/>
        <pt x="550" y="459" on="0"/>
        <pt x="548" y="458" on="0"/>
        <pt x="548" y="456" on="0"/>
        <pt x="547" y="453" on="0"/>
        <pt x="544" y="453" on="1"/>
        <pt x="548" y="449" on="0"/>
        <pt x="550" y="446" on="0"/>
        <pt x="548" y="441" on="1"/>
        <pt x="543" y="439" on="0"/>
        <pt x="544" y="430" on="0"/>
        <pt x="544" y="425" on="1"/>
        <pt x="538" y="423" on="0"/>
        <pt x="528" y="420" on="0"/>
        <pt x="527" y="412" on="1"/>
        <pt x="519" y="411" on="0"/>
        <pt x="501" y="408" on="0"/>
        <pt x="493" y="408" on="1"/>
        <pt x="487" y="408" on="0"/>
        <pt x="475" y="412" on="0"/>
        <pt x="469" y="412" on="1"/>
        <pt x="464" y="412" on="0"/>
        <pt x="459" y="404" on="0"/>
        <pt x="451" y="403" on="1"/>
        <pt x="445" y="405" on="0"/>
        <pt x="432" y="406" on="0"/>
        <pt x="427" y="410" on="1"/>
        <pt x="417" y="409" on="0"/>
        <pt x="398" y="408" on="0"/>
        <pt x="388" y="408" on="1"/>
        <pt x="374" y="408" on="0"/>
        <pt x="347" y="412" on="0"/>
        <pt x="334" y="410" on="1"/>
        <pt x="330" y="409" on="0"/>
        <pt x="325" y="405" on="0"/>
        <pt x="321" y="405" on="1"/>
        <pt x="316" y="401" on="0"/>
        <pt x="312" y="408" on="0"/>
        <pt x="307" y="407" on="1"/>
        <pt x="303" y="405" on="0"/>
        <pt x="301" y="400" on="0"/>
        <pt x="296" y="399" on="1"/>
        <pt x="288" y="403" on="0"/>
        <pt x="284" y="403" on="1"/>
        <pt x="273" y="403" on="0"/>
        <pt x="268" y="399" on="0"/>
        <pt x="265" y="399" on="1"/>
        <pt x="260" y="399" on="0"/>
        <pt x="252" y="401" on="0"/>
        <pt x="247" y="401" on="1"/>
        <pt x="243" y="401" on="0"/>
        <pt x="237" y="400" on="0"/>
        <pt x="234" y="400" on="1"/>
        <pt x="228" y="399" on="0"/>
        <pt x="219" y="397" on="0"/>
        <pt x="207" y="394" on="0"/>
        <pt x="196" y="392" on="0"/>
        <pt x="194" y="392" on="1"/>
        <pt x="191" y="384" on="0"/>
        <pt x="191" y="358" on="0"/>
        <pt x="193" y="350" on="1"/>
        <pt x="193" y="347" on="0"/>
        <pt x="195" y="342" on="0"/>
        <pt x="195" y="339" on="1"/>
        <pt x="195" y="332" on="0"/>
        <pt x="191" y="320" on="0"/>
        <pt x="190" y="313" on="1"/>
        <pt x="189" y="304" on="0"/>
        <pt x="188" y="286" on="0"/>
        <pt x="188" y="277" on="1"/>
        <pt x="188" y="274" on="0"/>
        <pt x="190" y="269" on="0"/>
        <pt x="190" y="266" on="1"/>
        <pt x="190" y="238" on="0"/>
        <pt x="186" y="215" on="1"/>
        <pt x="189" y="210" on="0"/>
        <pt x="189" y="203" on="0"/>
        <pt x="196" y="201" on="1"/>
        <pt x="194" y="196" on="0"/>
        <pt x="188" y="183" on="0"/>
        <pt x="188" y="178" on="1"/>
        <pt x="188" y="174" on="0"/>
        <pt x="192" y="167" on="0"/>
        <pt x="193" y="162" on="1"/>
        <pt x="190" y="158" on="0"/>
        <pt x="186" y="143" on="0"/>
        <pt x="186" y="126" on="0"/>
        <pt x="189" y="110" on="0"/>
        <pt x="192" y="106" on="1"/>
      </contour>
    </TTGlyph>
</ttFont>
